<svg width="108" height="93" viewBox="0 0 108 93" fill="none" xmlns="http://www.w3.org/2000/svg">
<g clip-path="url(#clip0_3780_17872)">
<path d="M26.2794 20.3322C26.2794 22.1476 26.9142 23.8108 27.9614 25.1321C27.4768 25.1439 26.9981 25.1862 26.531 25.2647H26.5252C25.0294 22.4011 22.0729 20.4412 18.6553 20.3685C19.6606 19.1081 20.2651 17.5166 20.2651 15.7739C20.2651 14.7247 20.0438 13.7295 19.6489 12.8257C19.6606 12.8257 19.6664 12.8198 19.6791 12.8198C19.8107 12.7776 19.9424 12.7471 20.0799 12.7176C20.0916 12.7118 20.1101 12.7118 20.1276 12.7059C20.2534 12.6813 20.3851 12.6577 20.5167 12.64C20.6659 12.6155 20.8161 12.6037 20.9652 12.5919C21.1144 12.5801 21.2704 12.5742 21.4196 12.5742H22.8559C23.8193 13.1833 24.9562 13.5389 26.1839 13.5389C27.4115 13.5389 28.5358 13.1833 29.505 12.5742H30.9413C31.0729 12.5742 31.1987 12.5801 31.3304 12.586C31.4678 12.5919 31.6112 12.6106 31.7496 12.6282C31.8696 12.64 31.9895 12.6587 32.1143 12.6823C32.2518 12.7068 32.3893 12.7363 32.5278 12.7727C28.9785 13.4299 26.2794 16.5716 26.2794 20.3341V20.3322Z" fill="#542567"/>
<path d="M30.9226 7.18556C30.9226 7.28183 30.9168 7.37811 30.9109 7.47536C30.9051 7.61978 30.8933 7.76517 30.869 7.90958C30.7734 8.54224 30.5521 9.13953 30.2342 9.66413C30.1864 9.73683 30.1386 9.80854 30.0909 9.88124C30.0606 9.93527 30.0187 9.98341 29.9768 10.0384C29.9231 10.117 29.8695 10.1887 29.8091 10.2555C29.4444 10.6956 29.0007 11.0699 28.4985 11.3529C28.4566 11.3774 28.4088 11.401 28.3611 11.4256C28.1631 11.5336 27.9545 11.624 27.739 11.6967C27.6727 11.7213 27.6132 11.7389 27.5478 11.7566C27.4815 11.7743 27.4221 11.793 27.3626 11.8107C27.3265 11.8224 27.2846 11.8283 27.2485 11.8411C27.2124 11.847 27.1705 11.8588 27.1344 11.8657C27.0564 11.8834 26.9784 11.8961 26.9014 11.9079C26.877 11.9079 26.8536 11.9138 26.8234 11.9138C26.7337 11.9256 26.6439 11.9384 26.5542 11.9443C26.5123 11.9502 26.4645 11.956 26.4226 11.956C26.3387 11.9619 26.2607 11.9619 26.1769 11.9619C25.8473 11.9619 25.5246 11.9256 25.2194 11.8657C25.1833 11.8598 25.1472 11.848 25.1121 11.8411C25.0399 11.8234 24.9688 11.8048 24.9025 11.7871C24.8186 11.7625 24.7347 11.7389 24.6567 11.7085C23.825 11.4256 23.0946 10.9186 22.5506 10.2555C22.4911 10.1897 22.4365 10.117 22.3828 10.0384C22.3409 9.98439 22.299 9.93625 22.2688 9.88124C22.221 9.80854 22.1732 9.73683 22.1254 9.66413C22.0659 9.57375 22.0182 9.47748 21.9636 9.3812L21.8563 9.14641C21.8144 9.05603 21.7841 8.97154 21.7481 8.88117C21.7305 8.83892 21.7178 8.79668 21.7003 8.75444C21.6047 8.4833 21.5326 8.19939 21.4906 7.91056C21.4731 7.76615 21.4546 7.62076 21.4487 7.47635C21.4429 7.38007 21.437 7.2838 21.437 7.18654C21.437 5.37206 22.4423 3.7914 23.9205 2.98387C24.0522 2.91118 24.1955 2.84536 24.334 2.78445C24.4773 2.72452 24.6216 2.66951 24.7708 2.62137C25.2135 2.48285 25.6864 2.41016 26.1769 2.41016C26.6673 2.41016 27.1403 2.48285 27.5888 2.62137C27.5888 2.6253 27.5907 2.6253 27.5946 2.62137C27.738 2.66951 27.8823 2.72354 28.0256 2.78445H28.0315C28.169 2.84437 28.3065 2.91118 28.4381 2.98387C29.9163 3.7914 30.9216 5.37108 30.9216 7.18654L30.9226 7.18556Z" fill="#542567"/>
<path d="M65.1979 16.6479V25.6623C63.6719 26.1987 62.3253 27.1093 61.2664 28.2971C61.2605 28.2912 61.2488 28.2912 61.2362 28.2971V27.9532C62.3195 26.4639 62.9601 24.6308 62.9601 22.6473C62.9601 17.6725 58.9379 13.627 54.0011 13.627C49.0642 13.627 45.042 17.6725 45.042 22.6473C45.042 24.6308 45.6826 26.4639 46.766 27.9532V28.2971C46.7543 28.2912 46.7416 28.2912 46.7299 28.2971C45.6709 27.1152 44.3244 26.1987 42.8042 25.6623V16.6479C42.8042 13.0847 45.7012 10.1602 49.2436 10.1602H50.6741C51.6433 10.7692 52.7803 11.1249 54.002 11.1249C55.2238 11.1249 56.3539 10.7692 57.3232 10.1602H58.7595C62.3019 10.1602 65.1989 13.0847 65.1989 16.6479H65.1979Z" fill="#542567"/>
<path d="M58.74 4.77346C58.74 4.90019 58.7341 5.02692 58.7224 5.15365C58.7166 5.26859 58.7049 5.38254 58.6864 5.49748V5.50338C58.662 5.636 58.6386 5.76862 58.6084 5.90125C58.4884 6.3836 58.3032 6.8355 58.0516 7.25203C58.0038 7.32473 57.956 7.39644 57.9082 7.46914C57.878 7.52317 57.8361 7.57131 57.7942 7.62632C57.7405 7.70492 57.6869 7.77663 57.6264 7.84343C57.5426 7.95248 57.447 8.05465 57.3515 8.15092C57.2432 8.25898 57.1301 8.36213 57.016 8.45841C56.8961 8.56058 56.7762 8.65096 56.6514 8.73544C56.6338 8.74134 56.6211 8.75411 56.6036 8.76C56.5558 8.79635 56.508 8.82681 56.4603 8.85628C56.4125 8.88673 56.3647 8.9162 56.3169 8.94076C56.275 8.96532 56.2272 8.9889 56.1794 9.01346C56.1375 9.03114 56.1014 9.0557 56.0595 9.07928C56.0117 9.10384 55.9639 9.12152 55.922 9.13921C55.8801 9.15689 55.8381 9.17555 55.7962 9.19324C55.7182 9.22369 55.647 9.25316 55.5807 9.27772C55.5086 9.30228 55.4374 9.31997 55.3652 9.34453C55.3058 9.36221 55.2453 9.38087 55.1858 9.39856C55.1322 9.41035 55.0844 9.42312 55.0366 9.43491C54.9889 9.45259 54.9284 9.45947 54.8748 9.46536C54.8211 9.47715 54.7734 9.48894 54.7256 9.49581C54.7012 9.49581 54.672 9.50171 54.6417 9.50171C54.552 9.5135 54.4565 9.52627 54.3609 9.53806C54.241 9.54395 54.121 9.54985 54.0021 9.54985C53.6725 9.54985 53.3497 9.5135 53.0387 9.45357C53.0026 9.44768 52.9724 9.43589 52.9373 9.42901C52.8651 9.41133 52.7939 9.39266 52.7218 9.37498C52.6379 9.35042 52.5541 9.32684 52.4761 9.29639C52.2489 9.2178 52.0275 9.12152 51.812 9.01346C51.7399 8.97122 51.6746 8.93487 51.6024 8.89263C51.5302 8.85038 51.4649 8.80814 51.3928 8.7659C51.3752 8.75411 51.3625 8.74232 51.3508 8.73544C51.2913 8.6932 51.2309 8.65096 51.1773 8.60872C51.0875 8.53602 50.992 8.4643 50.9081 8.39161C50.7102 8.22853 50.5308 8.04187 50.3699 7.84245C50.3104 7.77663 50.2558 7.70393 50.2022 7.62534C50.1602 7.57131 50.1242 7.52317 50.0881 7.46816C50.0403 7.39546 49.9925 7.32375 49.9448 7.25105C49.8853 7.16067 49.8375 7.0644 49.7829 6.96812L49.6756 6.73333C49.6337 6.64295 49.6035 6.55847 49.5684 6.46808C49.5508 6.42584 49.5381 6.3836 49.5206 6.34136C49.4845 6.23919 49.4484 6.13604 49.425 6.02797C49.4192 5.99163 49.4075 5.95528 49.4007 5.91893C49.3285 5.64189 49.2866 5.35209 49.269 5.06228C49.2632 4.96601 49.2573 4.86974 49.2573 4.77248C49.2573 2.958 50.2626 1.37734 51.7409 0.56981C51.8783 0.497113 52.0158 0.431293 52.1543 0.370385C52.2976 0.310459 52.4419 0.255445 52.5911 0.207308C53.0397 0.0687907 53.5126 -0.00390625 54.003 -0.00390625C54.4935 -0.00390625 54.9664 0.0687907 55.415 0.207308C55.5641 0.255445 55.7085 0.309476 55.8518 0.370385C55.9893 0.430311 56.1268 0.497113 56.2652 0.56981C57.7376 1.37734 58.7429 2.95702 58.7429 4.77248L58.74 4.77346Z" fill="#542567"/>
<path d="M89.3398 20.3666C85.9289 20.4393 82.9657 22.3982 81.464 25.2628C80.997 25.1842 80.5182 25.142 80.0336 25.1302C81.0867 23.8098 81.7156 22.1457 81.7156 20.3302C81.7156 16.5677 79.0224 13.4329 75.4731 12.7756C75.5687 12.7511 75.6711 12.7275 75.7666 12.7029C75.8144 12.697 75.8622 12.6853 75.91 12.6784C76.0241 12.6538 76.1372 12.6361 76.2454 12.6243C76.3887 12.6067 76.5262 12.588 76.6705 12.5821C76.7963 12.5762 76.928 12.5703 77.0596 12.5703H78.4959C79.4593 13.1794 80.5962 13.535 81.817 13.535C83.0378 13.535 84.1689 13.1794 85.1381 12.5703H86.5744C86.7305 12.5703 86.8796 12.5762 87.0288 12.588C87.1848 12.5998 87.334 12.6126 87.4774 12.6361C87.609 12.6538 87.7406 12.6784 87.8664 12.702C87.8908 12.7078 87.9142 12.7137 87.9386 12.7196C88.0644 12.7442 88.1843 12.7796 88.3101 12.8159C88.3218 12.8159 88.3345 12.8159 88.3462 12.8218C87.9513 13.7266 87.7299 14.7208 87.7299 15.77C87.7299 17.5127 88.3345 19.1042 89.3398 20.3646V20.3666Z" fill="#542567"/>
<path d="M86.5569 7.18654C86.5569 7.31327 86.551 7.44 86.5393 7.56673C86.5335 7.68167 86.5218 7.79562 86.5033 7.91056V7.91646C86.4789 8.04908 86.4555 8.1817 86.4253 8.31433C86.2692 8.95386 85.9943 9.53838 85.6169 10.0453C85.5506 10.1239 85.5028 10.1897 85.4433 10.2565C85.3595 10.3656 85.2639 10.4677 85.1684 10.564C85.0611 10.6721 84.947 10.7752 84.8329 10.8715C84.713 10.9737 84.5931 11.064 84.4683 11.1485C84.4507 11.1544 84.438 11.1672 84.4205 11.1731C84.3727 11.2094 84.3249 11.2399 84.2771 11.2694C84.2294 11.2998 84.1816 11.3293 84.1338 11.3538C84.0919 11.3784 84.0441 11.402 83.9963 11.4265C83.9544 11.4442 83.9183 11.4688 83.8764 11.4924C83.8286 11.5169 83.7808 11.5346 83.7389 11.5523C83.697 11.57 83.655 11.5886 83.6131 11.6063C83.5351 11.6368 83.4639 11.6662 83.3976 11.6908C83.3255 11.7154 83.2543 11.733 83.1821 11.7576C83.1226 11.7753 83.0622 11.794 83.0027 11.8116C82.9013 11.8421 82.7931 11.8598 82.6917 11.8784C82.6137 11.8961 82.5425 11.9089 82.4645 11.9148C82.3689 11.9266 82.2792 11.9393 82.1836 11.9511C82.0637 11.957 81.9379 11.9629 81.819 11.9629C81.4894 11.9629 81.1666 11.9266 80.8556 11.8667C80.8195 11.8608 80.7893 11.849 80.7542 11.8421C80.682 11.8244 80.6108 11.8057 80.5387 11.7881C80.3593 11.734 80.1916 11.68 80.018 11.6073C79.8864 11.5533 79.7606 11.4924 79.6348 11.4265C79.5568 11.3843 79.4914 11.3479 79.4193 11.3057C79.3471 11.2635 79.276 11.2212 79.2096 11.1731C79.1375 11.1249 79.0663 11.0768 78.9942 11.0228C78.9044 10.9501 78.8089 10.8784 78.725 10.8057C78.5271 10.6426 78.3477 10.4559 78.1868 10.2565C78.1273 10.1907 78.0727 10.118 78.0191 10.0394C77.9771 9.98537 77.9411 9.93723 77.905 9.88222C77.8572 9.80952 77.8094 9.73781 77.7616 9.66511C77.7022 9.57473 77.6544 9.47846 77.5998 9.38218L77.4925 9.14739C77.4506 9.05701 77.4204 8.97253 77.3853 8.88215C77.3492 8.79177 77.319 8.70728 77.2897 8.61101C77.2722 8.55698 77.2536 8.49607 77.2419 8.44204C77.2361 8.40569 77.2244 8.36934 77.2176 8.33299C77.1454 8.05596 77.1035 7.76615 77.0859 7.47635C77.0801 7.38007 77.0742 7.2838 77.0742 7.18654C77.0742 5.37207 78.0795 3.7914 79.5577 2.98387C79.6952 2.91118 79.8327 2.84536 79.9712 2.78445C80.1145 2.72452 80.2588 2.66951 80.408 2.62137C80.8566 2.48285 81.3295 2.41016 81.8209 2.41016C82.3124 2.41016 82.7843 2.48285 83.2328 2.62137C83.382 2.66951 83.5263 2.72354 83.6697 2.78445C83.8072 2.84437 83.9446 2.91118 84.0831 2.98387C85.5555 3.7914 86.5608 5.37108 86.5608 7.18654H86.5569Z" fill="#542567"/>
<path d="M18.6367 54.183C18.6367 55.467 19.2715 56.6007 20.2466 57.2766V70.9878C20.2466 72.1451 19.3008 73.098 18.1463 73.098H13.5137V50.282H12.4128V73.098H7.77432C6.62568 73.098 5.6857 72.1451 5.6857 70.9878V31.9761H4.58483V50.1012H1.92676C0.867822 50.1012 0 49.2269 0 48.16V29.529C0 25.399 3.35135 22.0156 7.4506 22.0156H9.11408C10.2335 22.721 11.5498 23.1316 12.9627 23.1316C13.1187 23.1316 13.2679 23.1257 13.4239 23.1139C13.4717 23.1139 13.5137 23.1139 13.5614 23.108C13.6814 23.0963 13.8013 23.0835 13.9261 23.0658C14.0041 23.0599 14.0821 23.0471 14.1592 23.0295C14.2489 23.0177 14.3444 22.999 14.4341 22.9754C14.4878 22.9636 14.5482 22.9509 14.6018 22.9391C14.7276 22.9155 14.8534 22.8791 14.9792 22.8428C15.6315 22.6561 16.2478 22.3722 16.8104 22.0166H18.4739C18.6358 22.0166 18.7908 22.0225 18.9468 22.0343C19.1028 22.0402 19.2579 22.0589 19.408 22.0765C19.4197 22.0765 19.4324 22.0765 19.4441 22.0824C19.6001 22.1001 19.7493 22.1247 19.8926 22.1551C20.1861 22.2151 20.4728 22.2877 20.7546 22.3781C20.8443 22.4086 20.9399 22.4381 21.0296 22.4744C21.054 22.4862 21.0774 22.4921 21.1017 22.5049C21.209 22.5412 21.3114 22.5834 21.4186 22.6316C21.6585 22.7338 21.8915 22.8546 22.1246 22.9872C22.2562 23.0599 22.3879 23.1444 22.5195 23.2289C22.6092 23.2888 22.6989 23.3497 22.7828 23.4096C22.8842 23.4823 22.9924 23.5599 23.088 23.6385C23.0938 23.6444 23.0997 23.6503 23.0997 23.6503C23.2011 23.7289 23.2976 23.8134 23.3932 23.8979C23.4946 23.9883 23.5911 24.0728 23.6808 24.169C23.7764 24.2594 23.8661 24.3557 23.9558 24.452C24.1294 24.6445 24.2971 24.8439 24.4521 25.0551C24.5301 25.1642 24.6081 25.2723 24.6793 25.3803C24.7515 25.4894 24.8226 25.5974 24.8889 25.7124C22.7642 26.4904 20.9993 28.0092 19.8917 29.9573C19.4782 30.6744 19.1613 31.4584 18.9458 32.2787C18.742 33.0567 18.6348 33.8701 18.6348 34.7081V54.184L18.6367 54.183Z" fill="#542567"/>
<path d="M18.4574 15.7809C18.4574 15.8958 18.4516 16.0039 18.4457 16.112C18.4457 16.1964 18.434 16.2809 18.4282 16.3654C18.4106 16.5226 18.3863 16.6788 18.356 16.836C18.3385 16.9264 18.32 17.0108 18.2966 17.1012C18.279 17.1975 18.2488 17.3006 18.2185 17.3969C18.1825 17.5178 18.1464 17.6317 18.0986 17.7408C18.0625 17.8429 18.0206 17.9461 17.9728 18.0423C17.9367 18.1327 17.8948 18.2231 17.847 18.3076C17.7993 18.398 17.7573 18.4825 17.7037 18.5669C17.6501 18.6691 17.5838 18.7723 17.5184 18.8685C17.3693 19.0915 17.2074 19.3028 17.028 19.4953C16.8963 19.6456 16.753 19.791 16.597 19.9236C16.4234 20.0808 16.2382 20.2252 16.0402 20.3637H16.0344C15.9622 20.4119 15.891 20.46 15.813 20.5082C15.7594 20.5445 15.6989 20.575 15.6453 20.6044C15.5975 20.629 15.5439 20.6585 15.4893 20.683C15.4415 20.7076 15.3937 20.737 15.346 20.7616C15.226 20.8215 15.1002 20.8765 14.9813 20.9247C14.8916 20.961 14.8077 20.9905 14.718 21.021C14.6644 21.0386 14.6039 21.0573 14.5444 21.075C14.2275 21.1713 13.898 21.244 13.5625 21.2734C13.4728 21.2852 13.389 21.2911 13.2993 21.298C13.192 21.3039 13.0779 21.3098 12.9638 21.3098C12.8497 21.3098 12.7425 21.3039 12.6343 21.298C12.3651 21.2862 12.1077 21.2499 11.8503 21.1958C11.8142 21.1899 11.784 21.184 11.7489 21.1713C11.6767 21.1595 11.6055 21.1408 11.5334 21.1172C11.4437 21.0927 11.354 21.0691 11.2643 21.0386C11.1209 20.9964 10.9766 20.9424 10.8391 20.8815C10.8333 20.8815 10.8274 20.8756 10.8216 20.8756C10.6899 20.8156 10.5642 20.7488 10.4325 20.683C9.53447 20.2183 8.78658 19.5071 8.26589 18.6328C8.19959 18.5237 8.14011 18.4157 8.08648 18.3076C8.00262 18.1573 7.93729 18.0001 7.87098 17.8429C7.84661 17.7889 7.82906 17.7349 7.8115 17.6798C7.77543 17.5954 7.75202 17.5109 7.7218 17.4205C7.69157 17.3183 7.66232 17.2093 7.63794 17.1012C7.56578 16.8183 7.518 16.5285 7.4946 16.2269C7.48875 16.1729 7.48875 16.1188 7.4829 16.0638C7.47705 15.9734 7.47705 15.8772 7.47705 15.7809C7.47705 12.7237 9.93036 10.2461 12.9648 10.2461C13.0721 10.2461 13.1803 10.252 13.2876 10.2579C13.3714 10.2579 13.4494 10.2638 13.5265 10.2756C13.6162 10.2815 13.7117 10.2932 13.8014 10.3119C13.9448 10.3296 14.0891 10.3601 14.2324 10.3964C14.3338 10.421 14.4362 10.4445 14.5318 10.475C14.8311 10.5654 15.1188 10.6803 15.3937 10.8188C15.4834 10.867 15.5732 10.9092 15.6629 10.9632C16.0217 11.1617 16.3571 11.4092 16.6623 11.6932C16.7345 11.76 16.7998 11.8258 16.8661 11.8916C16.9441 11.9643 17.0221 12.0419 17.0816 12.1264C17.1479 12.1991 17.2074 12.2708 17.2669 12.3494C17.4707 12.597 17.6442 12.8622 17.7934 13.1451C17.8353 13.2237 17.8773 13.3023 17.9133 13.3799C17.9436 13.4398 17.9728 13.5066 18.0031 13.5666C18.045 13.6687 18.0869 13.7719 18.123 13.88C18.1532 13.9644 18.1825 14.0489 18.2127 14.1334C18.2371 14.2238 18.2605 14.3083 18.2849 14.3987C18.3092 14.4831 18.3268 14.5735 18.3443 14.6639C18.3619 14.7543 18.3804 14.8447 18.3921 14.935C18.434 15.2121 18.4584 15.4901 18.4584 15.7789L18.4574 15.7809Z" fill="#542567"/>
<path d="M36.0704 39.5253V62.3954C36.0704 64.8249 38.0332 66.8093 40.4514 66.8093H41.523V78.0488C41.523 79.2611 40.5411 80.2553 39.333 80.2553H34.4859V56.4018H33.3372V80.2553H28.4891C27.2859 80.2553 26.2991 79.2601 26.2991 78.0488V37.2649H25.1563V56.2162H22.3734C22.3012 56.2162 22.2359 56.2103 22.1696 56.2044C22.1101 56.1985 22.0497 56.1926 21.996 56.1798C21.96 56.1739 21.9239 56.168 21.8888 56.1552C21.8771 56.1552 21.8712 56.1494 21.8586 56.1435C21.7991 56.1317 21.7445 56.113 21.685 56.0894C21.6187 56.0649 21.5592 56.0413 21.4939 56.0049C21.4403 55.9804 21.3925 55.9509 21.3379 55.9205C21.2716 55.8782 21.2062 55.836 21.1468 55.7878C21.1165 55.7633 21.0804 55.7397 21.0512 55.7151C20.9976 55.667 20.9498 55.6189 20.902 55.5648C20.8659 55.5226 20.8299 55.4803 20.7947 55.4381C20.7411 55.3713 20.6933 55.3055 20.6573 55.2328C20.5851 55.1306 20.5315 55.0157 20.4895 54.9007C20.4652 54.8408 20.4476 54.7799 20.4301 54.72C20.4242 54.6954 20.4184 54.6718 20.4125 54.6473V54.6296C20.4067 54.6119 20.4008 54.5933 20.4008 54.5697C20.3833 54.5097 20.3764 54.4488 20.3706 54.3889C20.3647 54.3221 20.3589 54.2504 20.3589 54.1836V34.7077C20.3589 34.5692 20.3647 34.4366 20.3706 34.3039C20.3764 34.1713 20.3881 34.0387 20.4008 33.9061C20.4125 33.7734 20.431 33.6467 20.4486 33.5141C20.4661 33.4119 20.4847 33.3029 20.5081 33.2007C20.5198 33.1103 20.5383 33.0258 20.5617 32.9414C20.5861 32.8392 20.6095 32.7419 20.6339 32.6398C20.6397 32.6093 20.6514 32.5857 20.6641 32.5553C20.7119 32.3745 20.7713 32.1879 20.8377 32.013C20.8435 32.0012 20.8435 31.9884 20.8494 31.9766C20.8611 31.9462 20.8737 31.9226 20.8854 31.8922C20.9274 31.7772 20.9751 31.6633 21.0229 31.5542C21.0765 31.4275 21.137 31.3008 21.1965 31.1809C21.2023 31.1691 21.2082 31.1564 21.214 31.1446C21.2618 31.0483 21.3096 30.9579 21.3632 30.8675C21.4051 30.7889 21.4471 30.7172 21.4949 30.6445C21.5612 30.5365 21.6265 30.4274 21.6986 30.3252C21.765 30.2231 21.8361 30.1199 21.9141 30.0178C22.5128 29.2102 23.2666 28.5226 24.1227 27.998C24.3382 27.8653 24.5595 27.7445 24.7867 27.6364C24.7984 27.6305 24.8043 27.6305 24.8111 27.6247C24.8179 27.6188 24.8287 27.6188 24.8355 27.6129C24.8472 27.607 24.8657 27.6011 24.8774 27.5952C24.9369 27.5647 24.9915 27.5412 25.051 27.5107C25.0988 27.493 25.1465 27.4685 25.2002 27.4508C25.2665 27.4262 25.3318 27.3967 25.3981 27.3722C25.4644 27.3417 25.5356 27.3181 25.6019 27.2995C25.6799 27.269 25.7638 27.2396 25.8476 27.215C25.8895 27.1973 25.9373 27.1845 25.9851 27.1728C25.991 27.1728 25.9968 27.1669 26.0027 27.1728C26.1099 27.1305 26.2299 27.1001 26.3439 27.0765C26.3683 27.0706 26.3976 27.0588 26.4278 27.0588C26.4814 27.0411 26.5292 27.0283 26.577 27.0224C26.6306 27.0107 26.6852 27.0048 26.733 26.992C26.8705 26.9674 27.0021 26.9439 27.1396 26.9321C27.1572 26.9262 27.1815 26.9203 27.1991 26.9203C27.2771 26.9085 27.3551 26.9026 27.4321 26.8957C27.5394 26.8839 27.6476 26.878 27.7549 26.8712C27.8865 26.8653 28.0182 26.8594 28.1556 26.8594H29.8913C30.0171 26.938 30.1487 27.0166 30.2862 27.0883C30.292 27.0942 30.3037 27.0942 30.3106 27.1001C30.5797 27.2504 30.8556 27.3771 31.1423 27.492C31.232 27.5284 31.3217 27.5647 31.4173 27.5942C31.6689 27.6846 31.9204 27.7573 32.1769 27.8172H32.1886C32.2841 27.8477 32.3738 27.8653 32.4694 27.8771C32.5474 27.8948 32.6254 27.9076 32.7024 27.9194C32.7804 27.9371 32.8585 27.9498 32.9355 27.9557C33.0437 27.9734 33.1451 27.9803 33.2465 27.9921H33.2641C33.3119 27.998 33.3655 28.0039 33.4133 28.0039C33.581 28.0156 33.7429 28.0215 33.9096 28.0215C34.089 28.0215 34.2626 28.0156 34.4361 28.0039C34.4605 28.0039 34.4898 27.998 34.5141 27.998C34.6633 27.9862 34.8076 27.9675 34.951 27.9498C34.9929 27.9439 35.0407 27.938 35.0826 27.9253C35.1002 27.9253 35.1128 27.9194 35.1304 27.9194C35.2025 27.9135 35.2737 27.8948 35.34 27.883C35.3644 27.8771 35.382 27.8712 35.4063 27.8653C35.4785 27.8594 35.5497 27.8408 35.616 27.8231C35.7174 27.8054 35.8198 27.775 35.9153 27.7445C36.0226 27.7199 36.1308 27.6905 36.2322 27.6482C36.2742 27.6364 36.3219 27.6237 36.3639 27.606C36.4536 27.5755 36.5374 27.5461 36.6271 27.5156C36.6691 27.4979 36.711 27.4793 36.7529 27.4616C36.9265 27.3958 37.1001 27.3172 37.2619 27.2268C37.3039 27.215 37.3399 27.1904 37.3819 27.1728C37.4179 27.1551 37.454 27.1364 37.4891 27.1128C37.6383 27.0342 37.7885 26.9498 37.9318 26.8594H39.6733C39.8049 26.8594 39.9424 26.8653 40.0741 26.8712C40.2896 26.8771 40.505 26.9016 40.7147 26.9311H40.7264C40.8102 26.9429 40.9058 26.9556 40.9897 26.9733H41.0014C41.133 26.9979 41.2529 27.0215 41.3787 27.0519C41.4743 27.0696 41.5698 27.0942 41.6664 27.1246C41.7736 27.1492 41.876 27.1787 41.9833 27.215C42.0974 27.2513 42.2105 27.2877 42.3187 27.3299C42.4864 27.3899 42.6414 27.4508 42.8033 27.5225C42.9593 27.5952 43.1202 27.6669 43.2704 27.7514C43.4196 27.83 43.5639 27.9076 43.7014 27.9989C43.7072 28.0048 43.7131 28.0048 43.7189 28.0107C43.8681 28.1011 44.0124 28.1974 44.1499 28.3005C44.2932 28.3968 44.4307 28.5059 44.5633 28.6139C43.9588 28.7642 43.3659 28.9637 42.8043 29.2112C42.3138 29.4283 41.8351 29.6759 41.3797 29.9647C40.4105 30.562 39.5426 31.3096 38.8006 32.1712C38.2555 32.8038 37.7768 33.4974 37.3819 34.2391C36.9811 34.9985 36.6574 35.8129 36.436 36.6627C36.3044 37.1696 36.2088 37.6883 36.1484 38.2247C36.0947 38.653 36.0704 39.0872 36.0704 39.5273V39.5253Z" fill="#542567"/>
<path d="M39.6486 20.3312C39.6486 20.4333 39.6486 20.5306 39.6427 20.6269C39.6369 20.6927 39.6369 20.7536 39.6252 20.8135C39.6193 20.9461 39.6076 21.0788 39.5833 21.2055V21.2114C39.5589 21.3804 39.5238 21.5493 39.4818 21.7183C39.4575 21.8332 39.4282 21.9413 39.3921 22.0494C39.3561 22.1643 39.32 22.2724 39.2781 22.3814C39.2361 22.4895 39.1942 22.5926 39.1464 22.7007C39.1045 22.8029 39.0567 22.9001 38.9972 23.0023C38.9377 23.1231 38.8714 23.243 38.7993 23.3579C38.6618 23.5868 38.5058 23.8039 38.3381 24.0092C38.2786 24.0819 38.2181 24.1478 38.1587 24.2205C37.9188 24.4798 37.6623 24.7205 37.3805 24.9376C37.2908 25.0103 37.1953 25.0761 37.0929 25.1429C37.0568 25.1665 37.0207 25.1911 36.9788 25.2156C36.8413 25.306 36.698 25.3905 36.5478 25.4632C36.4464 25.5172 36.344 25.5712 36.2426 25.6135C36.2065 25.6253 36.1763 25.6439 36.1471 25.6616C36.0398 25.7039 35.9316 25.7461 35.8243 25.7825C35.7405 25.8129 35.6507 25.8424 35.561 25.8669C35.3992 25.921 35.2315 25.9632 35.0647 25.9996C35.0345 25.9996 34.9984 26.0055 34.9692 26.0114C34.8795 26.029 34.8015 26.0477 34.7117 26.0595C34.5684 26.0782 34.4182 26.0958 34.2632 26.1017C34.1433 26.1076 34.0302 26.1135 33.9102 26.1135C33.7903 26.1135 33.6772 26.1076 33.5631 26.1017C33.5095 26.1017 33.4617 26.0958 33.4139 26.0899C33.3184 26.0841 33.2286 26.0713 33.1389 26.0595C33.0795 26.0477 33.0132 26.0418 32.9595 26.029C32.8874 26.0231 32.822 26.0114 32.7499 25.9927C32.7382 25.9927 32.7255 25.9927 32.7138 25.9868C32.7021 25.9868 32.6894 25.9809 32.6777 25.9809C32.6602 25.975 32.6416 25.975 32.6241 25.9632C32.6124 25.9632 32.5997 25.9632 32.5822 25.9573C32.5705 25.9573 32.5646 25.9514 32.5519 25.9514C32.5276 25.9455 32.4983 25.9337 32.4681 25.9279C32.4505 25.922 32.432 25.922 32.4145 25.9161C32.1814 25.8561 31.9474 25.7775 31.726 25.6813C31.6724 25.6636 31.6305 25.639 31.5827 25.6155C31.4745 25.5732 31.3731 25.5192 31.2658 25.4651C31.14 25.3983 31.0142 25.3325 30.8943 25.248C30.828 25.2117 30.7627 25.1753 30.7032 25.1272C30.6915 25.1213 30.6788 25.1154 30.6671 25.1026C30.6076 25.0604 30.5472 25.0182 30.4935 24.9759C30.3795 24.8914 30.2722 24.8069 30.164 24.7107C30.0567 24.6203 29.9485 24.5181 29.8529 24.4209C29.6969 24.2637 29.5477 24.1016 29.4161 23.9267C29.38 23.8786 29.3498 23.8363 29.3147 23.7882C29.2903 23.7577 29.2669 23.7214 29.2425 23.6919C29.0806 23.4748 28.9432 23.2459 28.8232 23.0043C28.7637 22.9021 28.716 22.8048 28.674 22.7027C28.6263 22.5936 28.5843 22.4914 28.5424 22.3834C28.4585 22.1663 28.3932 21.9492 28.3386 21.7203C28.3025 21.5513 28.2665 21.3823 28.2372 21.2134C28.2128 21.0385 28.1953 20.8636 28.1836 20.6829C28.1777 20.5679 28.1719 20.4481 28.1719 20.3331C28.1719 17.1374 30.7393 14.5508 33.9112 14.5508C34.5996 14.5508 35.2578 14.6716 35.8682 14.8946C36.8433 15.2502 37.6935 15.8652 38.34 16.6551C38.3878 16.715 38.4297 16.77 38.4775 16.8299V16.8358C38.4892 16.8476 38.4951 16.8604 38.5136 16.8722C39.2254 17.8369 39.6505 19.0364 39.6505 20.3331L39.6486 20.3312Z" fill="#542567"/>
<path d="M108 29.526V48.1571C108 49.2239 107.132 50.0983 106.073 50.0983H103.41V31.9732H102.315V70.9849C102.315 72.1421 101.369 73.0951 100.221 73.0951H95.5821V50.279H94.4871V73.0951H89.8486C88.6932 73.0951 87.7542 72.1421 87.7542 70.9849V57.2678C88.7234 56.5929 89.3582 55.4592 89.3582 54.1801V34.7042C89.3582 33.8721 89.2509 33.0646 89.053 32.2983C88.8375 31.4662 88.5206 30.6823 88.1013 29.9534C86.9946 28.0063 85.2287 26.4924 83.1099 25.7085C83.1216 25.6839 83.1401 25.6603 83.1518 25.6358C83.2356 25.4972 83.3254 25.3646 83.4151 25.232C83.4326 25.2015 83.4511 25.178 83.4745 25.1475C83.5584 25.0267 83.6481 24.9058 83.7495 24.7919C83.7554 24.7801 83.7612 24.7673 83.7739 24.7555C83.8217 24.7015 83.8636 24.6475 83.9114 24.5925C83.9952 24.4962 84.0791 24.3999 84.1747 24.3027C84.3307 24.1396 84.4915 23.9834 84.6651 23.8321C84.7373 23.7722 84.8143 23.7054 84.8923 23.6454C84.8923 23.6454 84.8982 23.6395 84.904 23.6336C84.9157 23.6219 84.9284 23.616 84.9401 23.6032C85.0298 23.5364 85.1195 23.4706 85.2092 23.4038C85.2872 23.3497 85.3652 23.2957 85.4481 23.2407C85.6938 23.0776 85.9512 22.9273 86.2204 22.7947C86.3101 22.7465 86.3939 22.7043 86.4895 22.6621C86.5139 22.6503 86.5431 22.6375 86.5675 22.6257C86.6991 22.5717 86.8308 22.5176 86.9624 22.4695C87.0823 22.4273 87.2023 22.385 87.3212 22.3487C87.4773 22.2946 87.644 22.2524 87.8059 22.2102C87.9014 22.1856 88.0038 22.1679 88.0994 22.1502C88.2554 22.1198 88.4104 22.0962 88.5723 22.0716C88.7341 22.054 88.8892 22.0353 89.051 22.0294C89.207 22.0176 89.3621 22.0117 89.5181 22.0117H91.1816C91.3015 22.0903 91.4215 22.162 91.5463 22.2288C91.7735 22.3556 92.0133 22.4705 92.2581 22.5668C92.2824 22.5786 92.3059 22.5903 92.3302 22.5972C92.3965 22.6277 92.4677 22.6513 92.534 22.6758C92.69 22.7357 92.8509 22.7908 93.0128 22.8389C93.1688 22.8811 93.3238 22.9234 93.4799 22.9538C93.4857 22.9597 93.4916 22.9597 93.5042 22.9597C93.6242 22.9902 93.7499 23.0138 93.8757 23.0324C93.9352 23.0442 94.0015 23.056 94.0669 23.0629C94.1868 23.0806 94.3067 23.0933 94.4315 23.1051C94.4735 23.111 94.5212 23.111 94.5632 23.111C94.7192 23.1228 94.8742 23.1287 95.0302 23.1287C96.4422 23.1287 97.7595 22.719 98.8789 22.0127H100.542C104.642 22.0127 108 25.3951 108 29.526Z" fill="#542567"/>
<path d="M100.525 15.7789C100.525 15.8939 100.519 16.0019 100.513 16.11C100.513 16.1945 100.501 16.279 100.496 16.3634C100.478 16.5206 100.454 16.6768 100.423 16.834C100.406 16.9244 100.387 17.0089 100.364 17.0993C100.34 17.1955 100.316 17.2987 100.286 17.395C100.232 17.5639 100.179 17.727 100.107 17.8891C100.089 17.9431 100.065 17.9913 100.04 18.0394C99.9983 18.1416 99.9505 18.2388 99.8969 18.3351C99.8608 18.4078 99.8247 18.4854 99.7828 18.5522C99.4532 19.1249 99.029 19.625 98.5259 20.0415C98.4537 20.1014 98.3884 20.1565 98.3163 20.2046C98.1729 20.3195 98.0169 20.4217 97.8619 20.518C97.8199 20.5425 97.7839 20.5602 97.7419 20.5848C97.6883 20.6211 97.6347 20.6516 97.5742 20.6752C97.4426 20.7479 97.3051 20.8137 97.1676 20.8746C97.1198 20.8923 97.0721 20.9168 97.0184 20.9345C96.9043 20.9826 96.7854 21.019 96.6654 21.0612C96.5514 21.0976 96.4256 21.1271 96.3008 21.1575C96.2764 21.1634 96.253 21.1693 96.2228 21.1752C96.1984 21.1811 96.1691 21.187 96.1448 21.1929C96.0492 21.2106 95.9536 21.2292 95.8571 21.241C95.7908 21.2528 95.7255 21.2656 95.666 21.2715C95.5646 21.2833 95.468 21.2892 95.3666 21.296C95.2594 21.3019 95.1453 21.3078 95.0312 21.3078C94.9171 21.3078 94.8099 21.3019 94.6958 21.296C94.6061 21.2901 94.5222 21.2842 94.4325 21.2715C94.217 21.2538 94.0015 21.2174 93.7919 21.1634C93.6778 21.1388 93.5647 21.1094 93.4506 21.073C93.3014 21.0308 93.1571 20.9767 93.0138 20.9227C92.81 20.8382 92.6072 20.7479 92.4151 20.6398C92.2591 20.5553 92.1099 20.4649 91.9665 20.3628H91.9607C91.6672 20.1633 91.3981 19.9344 91.1523 19.6879C91.0383 19.5729 90.931 19.4531 90.8296 19.3322C90.7877 19.29 90.7516 19.2418 90.7155 19.1937C90.6434 19.0974 90.5722 19.0012 90.5 18.898C90.3928 18.7408 90.2904 18.5728 90.2007 18.4039C90.1285 18.2712 90.0632 18.1386 90.0095 18.006C89.9793 17.952 89.9618 17.8979 89.9374 17.8429C89.9198 17.7889 89.8955 17.7349 89.8779 17.6798C89.8477 17.5954 89.8184 17.5109 89.7882 17.4205C89.758 17.3183 89.7287 17.2093 89.7043 17.1012C89.6322 16.8183 89.5844 16.5285 89.561 16.2269C89.5552 16.1729 89.5552 16.1188 89.5493 16.0638C89.5435 15.9734 89.5435 15.8772 89.5435 15.7809C89.5435 15.6424 89.5493 15.498 89.561 15.3585C89.5669 15.2858 89.5727 15.2199 89.5854 15.1472C89.5971 14.9842 89.6215 14.8221 89.6575 14.6649C89.6751 14.5745 89.6936 14.4841 89.717 14.3996C89.7414 14.3093 89.7648 14.2248 89.7892 14.1344C89.8428 13.9595 89.9091 13.7906 89.9744 13.6275C89.9861 13.6098 89.992 13.5911 89.9988 13.5735V13.5676C90.029 13.5076 90.0583 13.4408 90.0885 13.3809C90.2377 13.0616 90.424 12.7541 90.6394 12.4702C90.6697 12.428 90.6989 12.3857 90.7292 12.3494C90.7535 12.313 90.7828 12.2826 90.813 12.2472C90.9203 12.1146 91.0344 11.9879 91.1543 11.867C91.2801 11.7403 91.4117 11.6254 91.5433 11.5114C91.6808 11.3965 91.8183 11.2884 91.9685 11.1921C92.1118 11.0959 92.262 10.9996 92.417 10.9151C93.1951 10.4868 94.0864 10.2461 95.0322 10.2461C98.0666 10.2461 100.526 12.7247 100.526 15.7809L100.525 15.7789Z" fill="#542567"/>
<path d="M87.6405 34.7077V54.1836C87.6405 54.2494 87.6346 54.3221 87.6288 54.3889C87.6044 54.6601 87.5215 54.9194 87.3957 55.1483C87.3655 55.2024 87.3362 55.2564 87.3002 55.3114C87.2826 55.3419 87.2582 55.3772 87.228 55.4077C87.2036 55.444 87.1744 55.4745 87.15 55.504C87.1256 55.5344 87.1022 55.558 87.0779 55.5884C87.0242 55.6425 86.9638 55.7034 86.9043 55.7515C86.8565 55.7938 86.8029 55.8301 86.7483 55.8665C86.6469 55.9391 86.5386 55.9991 86.4255 56.0472C86.4197 56.0472 86.4138 56.0531 86.408 56.0531C86.3602 56.0708 86.3124 56.0895 86.2646 56.1071C86.2169 56.1248 86.1749 56.1376 86.1271 56.1494C86.1213 56.1494 86.1154 56.1553 86.1096 56.1553C86.0735 56.1671 86.0374 56.173 85.9955 56.1798C85.9477 56.1916 85.8883 56.1975 85.8336 56.2044C85.7673 56.2103 85.702 56.2162 85.6299 56.2162H82.847V37.2649H81.6983V78.0488C81.6983 79.2611 80.7164 80.2553 79.5141 80.2553H74.6602V56.4019H73.5174V80.2553H68.6703C67.4612 80.2553 66.4734 79.2601 66.4734 78.0488V66.8093H67.5509C69.9622 66.8093 71.9319 64.8259 71.9319 62.3954V39.5254C71.9319 39.0853 71.9075 38.651 71.8539 38.2227C71.7944 37.6863 71.6979 37.1676 71.5663 36.6607C71.3449 35.8109 71.0212 34.9965 70.6204 34.2372C70.2255 33.4954 69.7468 32.8019 69.2017 32.1692C68.4596 31.3067 67.586 30.5591 66.6167 29.9569C66.1624 29.6739 65.6894 29.4264 65.198 29.2093C64.6295 28.9617 64.0425 28.7633 63.4321 28.612C63.5638 28.5039 63.7013 28.3949 63.8456 28.2986C63.983 28.1964 64.1264 28.0992 64.2765 28.0088C64.2824 28.0029 64.2882 28.0029 64.2941 27.997C64.3536 27.9607 64.414 27.9184 64.4794 27.8889C64.4911 27.883 64.4969 27.8772 64.5096 27.8703C64.5817 27.828 64.6529 27.7858 64.7251 27.7494C64.8811 27.665 65.0361 27.5923 65.198 27.5205C65.2819 27.4842 65.3716 27.442 65.4613 27.4056C65.4856 27.3997 65.5091 27.3879 65.5334 27.381C65.5929 27.3565 65.6534 27.3388 65.7187 27.3142C65.8142 27.2779 65.9098 27.2415 66.0122 27.2121C66.2101 27.1522 66.4129 27.0971 66.6167 27.049C66.7484 27.0185 66.88 26.995 67.0175 26.9704C67.1248 26.9527 67.233 26.9341 67.3403 26.9223C67.4066 26.9105 67.4719 26.9046 67.544 26.8977C67.6698 26.88 67.7956 26.8732 67.9273 26.8673C68.0589 26.8614 68.1905 26.8555 68.328 26.8555H70.0637C70.2431 26.9704 70.4283 27.0726 70.6204 27.1689C70.7521 27.2415 70.8837 27.3015 71.0153 27.3614C71.1528 27.4213 71.2903 27.4763 71.4288 27.5304C71.5487 27.5785 71.6686 27.6208 71.7876 27.6512C71.812 27.663 71.8412 27.6758 71.8715 27.6817C71.967 27.7121 72.0626 27.7416 72.1591 27.7602C72.2186 27.7848 72.2849 27.8025 72.3502 27.8143C72.4341 27.832 72.5179 27.8565 72.6018 27.8683C72.7032 27.8929 72.8056 27.9106 72.9128 27.9223C72.9548 27.9341 73.0025 27.94 73.0445 27.9469C73.182 27.9646 73.3194 27.9833 73.4638 27.995C73.4998 27.995 73.5359 28.0009 73.571 28.0009C73.7387 28.0127 73.9123 28.0186 74.0859 28.0186C74.2594 28.0186 74.4154 28.0127 74.5822 28.0009C74.63 28.0009 74.6836 27.995 74.7314 27.9891C74.8455 27.9833 74.9527 27.9715 75.0609 27.9528C75.139 27.9469 75.217 27.9351 75.294 27.9164C75.372 27.9047 75.45 27.8919 75.527 27.8742C75.6226 27.8624 75.7182 27.8379 75.8147 27.8143C76.078 27.7544 76.3412 27.6758 76.5928 27.5913C76.6104 27.5854 76.6289 27.5795 76.6464 27.5736C76.7186 27.5431 76.7898 27.5196 76.8561 27.4891C77.1437 27.3742 77.4187 27.2484 77.6878 27.0971C77.6937 27.0912 77.7054 27.0912 77.7122 27.0853C77.8497 27.0127 77.9813 26.935 78.1071 26.8564H79.8486C79.9861 26.8564 80.1177 26.8623 80.2494 26.8682C80.3576 26.8741 80.459 26.88 80.5604 26.8928C80.6443 26.8987 80.7223 26.9046 80.8003 26.9174C80.8178 26.9174 80.8364 26.9233 80.8539 26.9233C80.9612 26.935 81.0694 26.9537 81.1767 26.9714C81.1942 26.9773 81.2127 26.9773 81.2361 26.9832C81.3619 27.0068 81.4877 27.0313 81.6135 27.0618C81.7451 27.0922 81.8768 27.1276 82.0084 27.1698H82.0201C82.0679 27.1816 82.1098 27.1944 82.1576 27.2121C82.2414 27.2366 82.3253 27.2661 82.4033 27.2966C82.5408 27.3447 82.6724 27.3987 82.8041 27.4469C82.9113 27.495 83.0196 27.5431 83.1268 27.5913C83.1385 27.5972 83.157 27.6031 83.1687 27.609C83.1746 27.6149 83.1863 27.6149 83.1931 27.6208C83.1999 27.6266 83.2048 27.6266 83.2175 27.6325C83.4691 27.7534 83.7138 27.8919 83.9537 28.0422C84.0795 28.1208 84.1936 28.1994 84.3125 28.277C84.3242 28.2888 84.3427 28.2947 84.3544 28.3074C84.3544 28.3133 84.3603 28.3133 84.3603 28.3133C84.3603 28.3133 84.3661 28.3133 84.3661 28.3192C84.4617 28.386 84.5573 28.4577 84.6538 28.5363C84.7679 28.6267 84.8751 28.7171 84.9834 28.8134C85.0906 28.9038 85.193 29 85.2944 29.1032C85.3958 29.2053 85.4982 29.3085 85.5938 29.4107C85.6835 29.5128 85.7732 29.616 85.857 29.7182C85.9165 29.7909 85.977 29.8626 86.0248 29.9353C86.0784 30.008 86.132 30.0797 86.1866 30.1524C86.2403 30.231 86.2939 30.3096 86.3485 30.3872C86.4499 30.5375 86.5396 30.6888 86.6293 30.845C86.6352 30.8509 86.6352 30.8567 86.641 30.8626C86.641 30.8626 86.641 30.8685 86.6469 30.8685C86.6771 30.9285 86.7132 30.9894 86.7424 31.0552C86.7483 31.0611 86.7483 31.067 86.7541 31.0729C86.7961 31.1515 86.8321 31.2301 86.8682 31.3077C86.9218 31.4157 86.9696 31.5248 87.0174 31.6328C87.0535 31.7114 87.0896 31.79 87.113 31.8745C87.1305 31.905 87.1432 31.9413 87.1549 31.9708C87.1607 31.9826 87.1607 31.9953 87.1666 32.0071C87.2085 32.128 87.2504 32.2478 87.2865 32.3745C87.3284 32.4954 87.3587 32.6152 87.3879 32.7361C87.4123 32.8088 87.4299 32.8805 87.4416 32.9591C87.4718 33.0671 87.4952 33.1821 87.5137 33.297C87.5498 33.4955 87.58 33.6949 87.5976 33.9002C87.6093 34.0328 87.6219 34.1654 87.6278 34.2981C87.6336 34.4307 87.6395 34.5633 87.6395 34.7018L87.6405 34.7077Z" fill="#542567"/>
<path d="M79.8239 20.3312C79.8239 20.4333 79.8239 20.5306 79.818 20.6269C79.8122 20.6809 79.8122 20.7349 79.8063 20.7831C79.8005 20.8312 79.8005 20.8793 79.7946 20.9275C79.7888 21.012 79.7771 21.0965 79.7644 21.1809C79.7342 21.3617 79.6981 21.5425 79.6571 21.7173C79.6328 21.8323 79.6035 21.9403 79.5674 22.0484C79.5314 22.1633 79.4953 22.2714 79.4533 22.3804C79.4114 22.4885 79.3695 22.5917 79.3217 22.6997C79.2915 22.7724 79.2554 22.8382 79.2203 22.9109C79.0887 23.1821 78.9395 23.4355 78.7659 23.6762C78.7181 23.7489 78.6645 23.8206 78.6099 23.8874C78.3105 24.2735 77.9634 24.6232 77.5744 24.9189C77.4847 24.9916 77.3891 25.0575 77.2935 25.1243C77.2399 25.1665 77.1795 25.2028 77.12 25.2392C76.9942 25.3178 76.8625 25.3964 76.7309 25.4622C76.6227 25.5162 76.5213 25.5703 76.414 25.6125C76.3838 25.6302 76.3477 25.643 76.3185 25.6606C76.2648 25.6852 76.2044 25.7088 76.1449 25.7274C75.9469 25.806 75.7383 25.8719 75.5286 25.9328C75.4926 25.9387 75.4506 25.9504 75.4146 25.9573C75.4029 25.9632 75.3843 25.9632 75.3785 25.9632C75.3668 25.9691 75.3541 25.975 75.3424 25.975C75.3248 25.9809 75.3063 25.9809 75.2829 25.9868C75.2712 25.9927 75.2585 25.9927 75.2468 25.9927C75.1747 26.0104 75.1094 26.0231 75.0372 26.029C75.0128 26.0349 74.9836 26.0408 74.9592 26.0467C74.8334 26.0644 74.7076 26.0831 74.5818 26.089C74.5341 26.0949 74.4863 26.1008 74.4326 26.1008C74.3186 26.1066 74.2055 26.1125 74.0855 26.1125C73.9656 26.1125 73.8525 26.1066 73.7325 26.1008C73.5892 26.0949 73.4449 26.0772 73.3074 26.0585C73.2118 26.0467 73.1221 26.0281 73.0266 26.0104C72.9964 26.0045 72.9671 25.9986 72.931 25.9986C72.9193 25.9927 72.9135 25.9927 72.9066 25.9927C72.8706 25.9868 72.8345 25.975 72.7926 25.9622C72.7448 25.9504 72.697 25.9387 72.6492 25.9318C72.5771 25.9141 72.5059 25.8895 72.4337 25.866C72.344 25.8414 72.2543 25.8119 72.1705 25.7815C72.0632 25.7451 71.9608 25.7029 71.8536 25.6606C71.8233 25.643 71.7873 25.6302 71.758 25.6125C71.6507 25.5703 71.5484 25.5162 71.4469 25.4622C71.1593 25.3178 70.8843 25.137 70.6211 24.9435C70.6211 24.9396 70.6191 24.9376 70.6152 24.9376C70.4836 24.8354 70.3519 24.7264 70.2262 24.6124C70.2262 24.6065 70.2203 24.6065 70.2145 24.6006C69.9512 24.36 69.7181 24.0947 69.5026 23.8049C69.4968 23.799 69.4909 23.799 69.4909 23.7931C69.3895 23.6546 69.293 23.5161 69.2033 23.3648C69.1974 23.3648 69.2033 23.3589 69.2033 23.3589C69.1497 23.2685 69.096 23.1781 69.0414 23.0878C68.9215 22.8648 68.8142 22.6359 68.7245 22.3942C68.6826 22.2793 68.6407 22.1653 68.6046 22.0504C68.5685 21.9423 68.5383 21.8332 68.5149 21.7193C68.431 21.3872 68.3774 21.0375 68.3589 20.6819C68.353 20.5669 68.3472 20.4471 68.3472 20.3322C68.3472 20.1818 68.353 20.0365 68.3647 19.892V19.8803C68.3764 19.7358 68.3949 19.5973 68.4125 19.4519C68.4427 19.2771 68.472 19.1081 68.5139 18.9391C68.705 18.1611 69.0522 17.4439 69.5251 16.8289V16.8231C69.6928 16.6 69.8839 16.3888 70.0818 16.1963C70.1774 16.1 70.273 16.0155 70.3695 15.931C70.4592 15.8524 70.5548 15.7739 70.6503 15.6962C70.896 15.5155 71.1466 15.3524 71.4167 15.2139C71.524 15.154 71.6381 15.099 71.7521 15.0508C71.8721 14.9968 71.991 14.9486 72.111 14.9005C72.1227 14.9005 72.1285 14.8946 72.1354 14.8946C72.267 14.8465 72.4045 14.8042 72.542 14.762C72.578 14.7502 72.6141 14.7443 72.6492 14.7315C72.7926 14.6952 72.9369 14.6647 73.0861 14.6412C73.2479 14.6107 73.4088 14.5871 73.5765 14.5753C73.7442 14.5577 73.912 14.5508 74.0855 14.5508C77.2575 14.5508 79.8249 17.1374 79.8249 20.3331L79.8239 20.3312Z" fill="#542567"/>
<path d="M69.9136 39.5234V62.3935C69.9136 63.6961 68.8478 64.7689 67.55 64.7689H64.2825V42.5256H62.9359V90.4005C62.9359 91.8299 61.7804 92.9989 60.3626 92.9989H54.6711V64.9978H53.3245V92.9989H47.633C46.221 92.9989 45.0656 91.8289 45.0656 90.4005V42.5266H43.719V64.7699H40.4515C39.1527 64.7699 38.0879 63.6961 38.0879 62.3945V39.5244C38.0879 39.4222 38.0879 39.325 38.0937 39.2228C38.0937 39.1442 38.0996 39.0725 38.1054 38.9998C38.1113 38.8367 38.123 38.6746 38.1415 38.5175C38.1659 38.3003 38.1952 38.0832 38.2429 37.8661C38.2605 37.7335 38.2907 37.6009 38.3209 37.4683V37.4565C38.3268 37.4388 38.3268 37.4201 38.3326 37.4024C38.3385 37.3848 38.3385 37.3661 38.3443 37.3484C38.3746 37.2462 38.398 37.1372 38.4282 37.0409C38.434 37.0232 38.434 37.0105 38.4399 36.9928C38.4457 36.981 38.4457 36.9751 38.4516 36.9623C38.4691 36.8837 38.4935 36.8051 38.5238 36.7275C38.5481 36.6489 38.5774 36.5704 38.6018 36.4927C38.632 36.3906 38.6739 36.2815 38.7158 36.1794C38.7217 36.1676 38.7217 36.1607 38.7275 36.1489C38.7519 36.0762 38.7812 36.0104 38.8114 35.9436C38.865 35.8051 38.9313 35.6724 38.9908 35.5339C39.1225 35.2628 39.2658 35.0034 39.416 34.75C39.5593 34.5152 39.7153 34.2853 39.8772 34.0692C39.9552 33.9601 40.039 33.8521 40.1287 33.744C40.2126 33.635 40.3023 33.5328 40.392 33.4306C40.4759 33.3285 40.5656 33.2312 40.6611 33.1349C40.7508 33.0387 40.8405 32.9483 40.9361 32.8638C41.0083 32.7911 41.0794 32.7194 41.1574 32.6526C41.2296 32.5858 41.3066 32.5259 41.3788 32.46C41.3963 32.4482 41.409 32.4355 41.4266 32.4178C41.5758 32.2911 41.7318 32.1702 41.8936 32.0563C42.0672 31.9295 42.2408 31.8087 42.426 31.6947C42.5518 31.6162 42.6776 31.5444 42.8034 31.4717C43.055 31.3332 43.3124 31.2006 43.5757 31.0857C43.7131 31.0257 43.8506 30.9648 43.9949 30.9108C44.0729 30.8803 44.1568 30.8509 44.2338 30.8204C44.2455 30.8145 44.2582 30.8145 44.2699 30.8086C44.2816 30.8027 44.2943 30.8027 44.306 30.7968C44.3177 30.7909 44.3235 30.7909 44.3362 30.7909C44.4201 30.7605 44.5039 30.731 44.5878 30.7065C44.6716 30.6819 44.7555 30.6583 44.8394 30.6338C44.9768 30.5974 45.1143 30.5611 45.2528 30.5316C45.2586 30.5316 45.2645 30.5257 45.2772 30.5257C45.403 30.4953 45.5287 30.4717 45.6545 30.453C45.8222 30.4226 45.99 30.3931 46.1577 30.3744C46.1694 30.3744 46.1879 30.3685 46.1996 30.3685C46.3673 30.3508 46.5467 30.3322 46.7261 30.3263C46.7378 30.3204 46.7564 30.3204 46.7681 30.3204C46.9241 30.3145 47.0791 30.3086 47.241 30.3086H49.2818C50.6528 31.177 52.2685 31.6771 54.0041 31.6771C55.7398 31.6771 57.3497 31.177 58.7265 30.3086H60.7673C60.9292 30.3086 61.0842 30.3145 61.2402 30.3204C61.2519 30.3204 61.2646 30.3204 61.2763 30.3263C61.3836 30.3322 61.4859 30.3381 61.5874 30.3508C61.6712 30.3567 61.7492 30.3626 61.8331 30.3754H61.8506C61.8809 30.3813 61.9101 30.3813 61.9403 30.3872C61.9647 30.3931 61.9881 30.3931 62.0066 30.399C62.1022 30.4108 62.1978 30.4294 62.2875 30.4412C62.4366 30.4658 62.5868 30.4894 62.7301 30.5257C62.8793 30.5562 63.0236 30.5925 63.167 30.6338C63.3045 30.6701 63.442 30.7124 63.5804 30.7546C63.5921 30.7605 63.6048 30.7664 63.6165 30.7723C63.6828 30.79 63.7481 30.8145 63.8144 30.8391C63.8807 30.8636 63.9461 30.8872 64.0124 30.9118C64.1499 30.9658 64.2932 31.0208 64.4317 31.0866C64.6949 31.2016 64.9524 31.3342 65.2039 31.4727C65.437 31.6054 65.6583 31.7439 65.8806 31.8883C66.1381 32.0631 66.3896 32.2498 66.6227 32.4551C66.7007 32.5219 66.7787 32.5877 66.8499 32.6545C66.9279 32.7204 66.9991 32.7931 67.0771 32.8658C67.1668 32.9502 67.2565 33.0406 67.3403 33.131C67.4359 33.2273 67.5314 33.3304 67.6212 33.4385C67.7528 33.5888 67.8786 33.7401 67.9985 33.8963C68.0404 33.9503 68.0882 34.0044 68.1243 34.0653C68.1662 34.1193 68.2082 34.1802 68.2501 34.2342C68.2618 34.2519 68.2745 34.2706 68.292 34.2942V34.3C68.3398 34.36 68.3817 34.4268 68.4236 34.4926C68.4656 34.5525 68.5075 34.6252 68.5494 34.691C68.6089 34.7873 68.6694 34.8777 68.7171 34.975C68.723 34.975 68.723 34.9808 68.723 34.9808C68.7288 34.9985 68.7405 35.0113 68.7474 35.029C68.8069 35.1312 68.8615 35.2343 68.9151 35.3424C68.9746 35.4504 69.0292 35.5654 69.077 35.6803C69.1306 35.7952 69.1784 35.9092 69.2261 36.0241C69.2924 36.1745 69.3519 36.3316 69.4056 36.4947C69.4533 36.6332 69.5011 36.7717 69.543 36.9162C69.5547 36.9584 69.5674 37.0006 69.5791 37.0429C69.6093 37.1509 69.6386 37.26 69.663 37.3681C69.6747 37.3985 69.6805 37.4221 69.6874 37.4525V37.4771C69.7117 37.5793 69.7351 37.6765 69.7537 37.7728C69.7595 37.7905 69.7595 37.815 69.7654 37.8327C69.7829 37.9172 69.7956 38.0076 69.8073 38.0921C69.8551 38.3937 69.8911 38.6953 69.9028 38.9969C69.9145 39.1717 69.9204 39.3525 69.9204 39.5274L69.9136 39.5234Z" fill="#542567"/>
<path d="M60.7329 22.6545C60.7329 22.7695 60.7329 22.8893 60.7271 23.0043C60.7154 23.2332 60.691 23.4621 60.6549 23.692C60.6374 23.8 60.6189 23.915 60.5955 24.024C60.5711 24.1389 60.5477 24.247 60.5233 24.3619C60.4638 24.5732 60.3975 24.7844 60.3254 24.9887C60.3137 25.0251 60.2951 25.0614 60.2834 25.0968C60.2415 25.2117 60.1937 25.3198 60.146 25.4288C60.1157 25.5015 60.0796 25.5791 60.0387 25.6518C60.0026 25.7304 59.9665 25.809 59.9246 25.8807C59.871 25.977 59.8174 26.0801 59.7569 26.1764C59.6974 26.2786 59.6311 26.3817 59.559 26.478C59.5346 26.5203 59.5112 26.5566 59.4809 26.593C59.3795 26.7374 59.2713 26.8828 59.1582 27.0154C59.0324 27.1726 58.8949 27.317 58.7574 27.4555C58.6082 27.6127 58.4464 27.7571 58.2787 27.8956C58.1295 28.0223 57.9676 28.1432 57.8058 28.2571C57.68 28.3416 57.5483 28.4261 57.4167 28.5047C57.3748 28.5283 57.3328 28.5469 57.2909 28.5705C57.2665 28.5882 57.2373 28.6069 57.2071 28.6245C57.2071 28.6245 57.2012 28.6304 57.1954 28.6304C57.1651 28.6422 57.1291 28.6609 57.0998 28.6727C56.9799 28.7395 56.8609 28.7994 56.7351 28.8534C56.6513 28.8957 56.5674 28.932 56.4835 28.9615C56.4055 28.992 56.3275 29.0214 56.2505 29.0519C56.1491 29.0882 56.0409 29.1177 55.9394 29.1482C55.8731 29.1727 55.802 29.1904 55.7298 29.215C55.6635 29.2326 55.5923 29.2513 55.5202 29.2631C55.4305 29.2877 55.3349 29.3053 55.2452 29.3171C55.1916 29.3289 55.1311 29.3417 55.0833 29.3535C54.9458 29.377 54.8084 29.3957 54.664 29.4075C54.5802 29.4134 54.4963 29.4193 54.4125 29.4252C54.275 29.4311 54.1375 29.437 53.999 29.437C53.8606 29.437 53.7241 29.4311 53.5924 29.4252C53.5564 29.4252 53.5144 29.4252 53.4783 29.4134C53.4247 29.4134 53.3711 29.4134 53.3165 29.4075C53.2502 29.4016 53.1907 29.3957 53.1254 29.3829C53.0415 29.3712 52.9577 29.3525 52.8796 29.3407C52.7958 29.3289 52.7178 29.3161 52.6339 29.2985C52.6095 29.2926 52.592 29.2926 52.5676 29.2867C52.5432 29.2808 52.514 29.2749 52.4838 29.2621C52.4662 29.2621 52.4477 29.2621 52.4243 29.2503C52.3648 29.2385 52.2985 29.2258 52.239 29.2022C52.1015 29.1658 51.9699 29.1236 51.8324 29.0814C51.731 29.045 51.6228 29.0087 51.5214 28.9664C51.4677 28.9487 51.4073 28.9242 51.3478 28.8937C51.3234 28.8819 51.2942 28.8633 51.2639 28.8515C51.1381 28.7974 51.0182 28.7365 50.8924 28.6707C50.8388 28.6461 50.7852 28.6167 50.7364 28.5921C50.5872 28.5076 50.4371 28.4173 50.2879 28.321C50.1865 28.2483 50.0841 28.1825 49.9827 28.098C49.851 28.0017 49.7194 27.8995 49.5995 27.7905C49.4737 27.6824 49.3479 27.5675 49.2348 27.4525C49.0915 27.314 48.9598 27.1696 48.8399 27.0124C48.798 26.9643 48.756 26.9162 48.7199 26.868C48.6722 26.8199 48.6361 26.7659 48.6 26.7108C48.5405 26.6264 48.4859 26.5605 48.4382 26.476C48.2821 26.2648 48.1505 26.0359 48.0247 25.7943C47.9652 25.6734 47.9048 25.5536 47.8511 25.4269C47.7975 25.3178 47.7556 25.2039 47.7078 25.0889C47.7078 25.0889 47.702 25.0889 47.7078 25.083C47.702 25.0771 47.6961 25.0653 47.6961 25.0526C47.6717 24.9926 47.6542 24.9376 47.6298 24.8777C47.582 24.7392 47.5342 24.5948 47.4982 24.4494C47.4806 24.3895 47.4679 24.3344 47.4562 24.2745C47.4387 24.19 47.4143 24.1055 47.3968 24.0211C47.3305 23.7077 47.2895 23.3815 47.271 23.0563C47.2651 22.9964 47.2651 22.9237 47.2651 22.8579C47.2593 22.7911 47.2593 22.7194 47.2593 22.6526C47.2593 21.7959 47.4153 20.9707 47.7078 20.2163V20.2104C48.0491 19.3174 48.5756 18.5157 49.2338 17.8526C50.4488 16.6227 52.1366 15.8633 53.9981 15.8633C56.7868 15.8633 59.1806 17.5697 60.2045 20.006C60.2288 20.0787 60.2581 20.1445 60.2825 20.2113C60.5701 20.9707 60.731 21.791 60.731 22.6536L60.7329 22.6545Z" fill="#542567"/>
</g>
<defs>
<clipPath id="clip0_3780_17872">
<rect width="108" height="93" fill="white"/>
</clipPath>
</defs>
</svg>
