<svg width="1200" height="1151" viewBox="0 0 1200 1151" fill="none" xmlns="http://www.w3.org/2000/svg">
<g clip-path="url(#clip0_3530_7485)">
<path d="M172.945 297.632C172.945 297.632 112.801 452.931 197.321 609.351C281.82 765.793 455.93 848.372 595.265 919.021C734.6 989.67 879.285 955.263 948.036 839.549C1016.79 723.835 922.473 641.235 922.365 476.229C922.257 311.223 947.065 267.539 857.734 128.139C768.404 -11.2609 549.122 -42.1092 383.361 61.2866C217.599 164.682 172.945 297.632 172.945 297.632Z" fill="white"/>
<path d="M533.784 561.461C533.784 561.461 587.758 627.645 588.685 636.834C589.613 646.024 583.724 708.217 583.724 708.217L501.857 708.584L477.631 612.976L460.007 579.064L447.15 563.403L443.849 549.402L519.848 532.317C519.848 532.317 546.296 547.223 540.04 554.342L533.805 561.461H533.784Z" fill="#1A2E35"/>
<path d="M637.288 708.217L596.689 558.419H583.702L624.129 707.548C628.529 707.786 632.908 708.023 637.309 708.217H637.288Z" fill="#E1E3E5"/>
<path d="M657.997 798.476C655.149 799.339 652.28 800.137 649.433 800.957L649.756 802.122C652.733 801.28 656.055 800.461 659.485 799.576C659.744 799.188 660.025 798.778 660.283 798.39C659.528 798.411 658.752 798.433 657.997 798.476V798.476Z" fill="#757575" stroke="#263238" stroke-linecap="round" stroke-linejoin="round"/>
<path d="M660.284 798.368C659.529 798.389 658.752 798.411 657.997 798.454C654.524 799.49 651.029 800.482 647.535 801.474H652.043C654.395 800.849 656.875 800.223 659.464 799.554C659.745 799.144 660.025 798.756 660.284 798.346V798.368Z" fill="#999999" stroke="#263238" stroke-linecap="round" stroke-linejoin="round"/>
<path d="M745.904 447.625C723.706 447.625 701.012 464.99 695.209 486.411L635.109 708.11C639.402 708.325 643.695 708.476 647.966 708.584L708.196 486.411C712.122 471.937 727.524 460.158 742.496 460.158H804.796C806.867 456.038 808.83 451.853 810.685 447.603H745.904V447.625Z" fill="#E1E3E5"/>
<path opacity="0.2" d="M682.201 691.65C681.705 682.05 682.136 672.602 683.474 663.304H612.522C605.296 663.304 599.45 669.15 599.45 676.377V694.152H681.662C681.834 693.311 682.028 692.491 682.201 691.65Z" fill="black"/>
<path d="M682.158 691.779C682.093 690.744 682.05 689.73 682.007 688.694H594.51C592.482 688.694 590.821 690.334 590.821 692.383V701.702C590.821 703.73 592.46 705.391 594.51 705.391H679.267C680.216 700.861 681.165 696.331 682.136 691.801L682.158 691.779Z" fill="#E1E3E5"/>
<path opacity="0.3" d="M592.611 704.657C591.554 696.525 591.554 690.916 593.129 689.319C605.62 676.592 647.448 667.143 683.776 661.103C686.019 646.908 690.183 633.059 695.748 619.663L692.383 614.615C692.383 614.615 666.518 623.244 666.216 632.822C666.216 632.822 592.439 649.885 577.532 668.653C574.232 672.795 574.21 685.134 576.195 701.745C581.674 702.586 587.132 703.622 592.611 704.657V704.657Z" fill="black"/>
<path d="M593.129 689.298C583.831 698.768 601.068 710.547 601.068 710.547C596.149 714.818 583.033 700.818 576.173 701.724C566.25 703.04 550.89 710.547 550.89 710.547C550.89 710.547 526.277 698.402 544.052 659.528C561.828 620.655 672.127 602.858 672.127 602.858L676.829 591.209L695.748 619.641" fill="#263238"/>
<path d="M561.223 548.388C551.753 546.749 619.166 487.662 619.166 487.662L651.676 509.536C651.676 509.536 596.365 548.496 587.671 549.553C578.977 550.61 561.245 548.388 561.245 548.388H561.223Z" fill="#FFC2E3"/>
<path d="M573.11 523.515C573.11 523.515 587.24 527.031 591.554 530.052C595.869 533.072 594.661 543.707 594.661 543.707C594.661 543.707 575.785 538.314 573.11 523.537V523.515Z" fill="#FFC2E3"/>
<path d="M564.05 496.464L590.303 546.835H593.41L568.472 493.983L564.05 496.464Z" fill="#263238"/>
<path d="M587.714 532.878C587.714 532.878 571.147 521.099 567.091 521.099C563.036 521.099 550.891 535.445 550.891 542.628C550.891 549.812 577.36 553.803 582.559 547.698C585.126 544.656 580.013 537.321 580.013 537.321C580.013 537.321 587.714 545.303 589.915 546.49C592.115 547.676 596.171 546.123 596.171 546.123C596.171 546.123 590.648 537.321 587.693 532.878H587.714Z" fill="#FFC2E3"/>
<path d="M580.013 549.402C580.013 549.402 573.714 541.226 566.186 537.322" stroke="#263238" stroke-linecap="round" stroke-linejoin="round"/>
<path d="M580.013 537.343C580.013 537.343 574.275 532.338 570.414 531.238" stroke="#263238" stroke-linecap="round" stroke-linejoin="round"/>
<path d="M561.957 543.707C561.957 543.707 571.233 548.582 573.541 550.653" stroke="#263238" stroke-linecap="round" stroke-linejoin="round"/>
<path d="M640.286 461.797C631.786 467.73 593.733 506.862 593.733 506.862C593.733 506.862 611.573 527.161 627.213 530.095L669.602 509.515L640.307 461.797H640.286Z" fill="#9A68AB"/>
<path d="M729.703 598.824C730.027 597.055 728.711 609.179 729.811 607.798C717.515 607.992 709.253 596.861 704.075 604.217L695.727 627.3C697.69 634.375 690.14 630.514 690.14 630.514C690.14 630.514 639.725 668.632 629.953 710.159C629.155 713.546 628.206 717.428 627.127 721.7C641.019 722.369 654.934 723.404 668.74 723.49C671.242 723.49 673.27 724.224 674.866 725.367C677.865 725.302 680.863 725.259 683.862 725.195L689.902 713.222C692.275 710.741 692.146 713.891 696.59 712.186C697 710.267 697.409 708.347 697.819 706.427C695.791 667.963 709.706 631.7 729.681 598.803L729.703 598.824Z" fill="#263238" stroke="#263238" stroke-linecap="round" stroke-linejoin="round"/>
<path d="M717.083 578.18C717.493 577.77 717.924 577.425 718.356 577.101C722.476 570.672 726.791 564.373 731.256 558.225C746.939 536.61 764.24 516.267 781.347 495.774C779.146 485.095 776.45 475.949 773.149 470.059C763.42 452.715 739.151 440.225 699.48 440.096C666.216 439.988 640.264 461.797 640.264 461.797C640.264 464.58 640.674 467.557 641.364 470.599L644.406 480.263C646.995 486.886 650.403 493.401 653.596 498.837C658.428 507.078 662.721 512.859 662.721 512.859C665.072 535.553 676.225 564.783 676.225 564.783C676.225 564.783 674.327 587.952 676.808 591.209C680.82 596.494 691.563 599.083 704.938 600.076C707.807 594.618 710.849 589.246 714.063 583.961C714.451 581.804 715.616 579.625 717.083 578.158V578.18Z" fill="#773294"/>
<path d="M679.526 493.983C679.526 493.983 694.734 552.983 692.383 565.948C691.218 572.376 694.605 579.042 694.605 579.042C694.605 579.042 687.659 585.881 692.383 594.963" fill="#E5C0DF"/>
<path d="M719.887 542.78C716.91 542.521 714.192 541.83 712.251 540.364L707.742 520.603C707.742 520.603 721.656 522.135 734.449 518.727L739.281 540.364C739.281 540.364 735.7 541.421 730.997 542.154" fill="#DABFDD"/>
<path d="M668.74 501.641C668.74 501.641 655.882 446.502 688.457 440.096C721.031 433.689 727.826 448.94 725.906 459.295C723.339 473.08 696.287 506.883 696.287 506.883L679.569 493.983L668.761 501.641H668.74Z" fill="#9A68AB"/>
<path d="M768.749 510.874L751.685 509.537L752.764 530.332C758.027 523.796 763.377 517.324 768.749 510.896V510.874Z" fill="white" stroke="#263238" stroke-linecap="round" stroke-linejoin="round"/>
<path d="M731.278 558.225C732.874 556.025 734.514 553.846 736.132 551.667C705.521 542.672 663.994 532.252 661.19 532.338C657.781 532.425 635.605 532.662 628.055 535.208C620.483 537.775 612.242 550.545 612.242 550.545C612.242 550.545 656.099 551.473 659.205 550.545C661.643 549.834 682.568 560.123 718.809 576.389C722.8 570.219 726.963 564.157 731.256 558.225H731.278Z" fill="#E5C0DF"/>
<path d="M748.342 535.855C759.84 521.401 771.769 507.293 783.612 493.098C785.295 491.071 786.891 489.021 788.423 486.972C788.337 486.778 788.229 486.562 788.142 486.368C776.127 462.336 763.658 459.618 763.658 459.618C755.784 457.677 748.644 465.011 744.566 474.438L742.107 481.816C741.093 485.98 740.727 490.208 741.158 493.94C742.323 504.187 746.12 524.27 748.363 535.876L748.342 535.855Z" fill="#9A68AB"/>
<path d="M636.791 500.239C636.791 500.239 643.824 506.603 655.127 509.536Z" fill="#E5C0DF"/>
<path d="M750.089 500.239C752.915 505.416 756.28 510.335 760.012 514.886Z" fill="#E5C0DF"/>
<path d="M679.526 491.589C679.526 491.589 676.851 485.225 677.325 475.561C677.412 473.813 677.584 471.98 677.908 470.06L674.262 464.278L669.581 456.836L674.996 435.156C674.996 435.156 709.468 441.8 712.1 451.421C714.71 461.086 679.526 491.589 679.526 491.589V491.589Z" fill="#E5C0DF"/>
<path opacity="0.2" d="M677.325 475.561C677.412 473.813 677.584 471.98 677.908 470.06L674.262 464.278C680.238 463.092 686.774 460.438 691.11 454.83C691.11 454.83 692.253 469.779 677.325 475.561Z" fill="black"/>
<path d="M664.361 408.471C662.441 411.016 659.917 413.713 656.724 415.913C653.014 418.459 648.462 414.576 650.123 410.412C650.123 410.369 650.166 410.304 650.188 410.261C650.188 410.261 634.915 425.383 619.641 417.704C604.368 410.024 611.789 374.343 635.281 360.192C657.803 346.623 680.669 349.578 689.665 361.724C690.398 362.716 691.542 363.277 692.75 363.406C697.345 363.881 708.692 367.009 714.365 385.949C720.815 407.478 710.504 440.204 700.365 440.592C687.098 441.088 682.805 428.986 681.791 425.232C681.597 424.52 681.23 423.895 680.734 423.356C679.03 421.587 675.017 416.927 672.04 409.549C670.746 406.335 666.453 405.753 664.361 408.514V408.471Z" fill="#263238" stroke="#263238" stroke-linecap="round" stroke-linejoin="round"/>
<path d="M686.451 437.205C686.451 437.205 685.976 417.402 697.194 419.796C708.411 422.191 700.3 445.079 691.822 444.841" fill="#FFC2E3"/>
<path d="M651.612 548.388H477.674C475.732 548.388 474.158 549.962 474.158 551.904V557.966C474.158 559.908 475.732 561.483 477.674 561.483H651.612C653.554 561.483 655.128 559.908 655.128 557.966V551.904C655.128 549.962 653.554 548.388 651.612 548.388Z" fill="#773294"/>
<path d="M534.28 561.936C534.28 561.936 589.138 629.241 590.087 638.56C591.015 647.901 585.039 711.129 585.039 711.129L494.867 722.325L470.836 620.461L459.273 579.819L446.2 563.899L442.835 549.661L520.107 532.295C520.107 532.295 546.986 547.461 540.644 554.687L534.301 561.914L534.28 561.936Z" fill="#1A2E35"/>
<path d="M639.531 711.13L598.242 558.83H585.04L626.135 710.439C630.6 710.698 635.066 710.936 639.531 711.13V711.13Z" fill="#E1E3E5"/>
<path d="M747.651 441.39C725.087 441.39 702.026 459.036 696.115 480.824L635.022 706.211C639.38 706.427 643.759 706.599 648.095 706.686L709.317 480.824C713.308 466.112 728.97 454.139 744.178 454.139H807.514C809.628 449.954 811.613 445.683 813.511 441.39H747.651V441.39Z" fill="#E1E3E5"/>
<path opacity="0.2" d="M685.178 694.282C684.66 684.531 685.113 674.91 686.472 665.461H614.334C606.978 665.461 601.046 671.415 601.046 678.75V696.827H684.638C684.811 695.986 685.005 695.145 685.178 694.282Z" fill="black"/>
<path d="M685.135 694.411C685.07 693.354 685.027 692.319 684.984 691.283H596.042C593.971 691.283 592.31 692.966 592.31 695.015V704.485C592.31 706.556 593.992 708.217 596.042 708.217H682.201C683.172 703.601 684.143 699.006 685.135 694.39V694.411Z" fill="#E1E3E5"/>
<path opacity="0.3" d="M594.1 707.505C593.043 699.222 593.043 693.526 594.618 691.909C607.324 678.987 649.821 669.366 686.774 663.217C689.039 648.786 693.289 634.721 698.941 621.087L695.511 615.953C695.511 615.953 669.215 624.733 668.912 634.462C668.912 634.462 593.906 651.806 578.762 670.897C575.397 675.125 575.397 687.637 577.403 704.55C582.969 705.413 588.534 706.448 594.1 707.527V707.505Z" fill="black"/>
<path d="M594.639 691.909C585.19 701.53 602.707 713.503 602.707 713.503C597.702 717.839 583.4 717.709 576.411 718.637C566.315 719.974 551.689 713.503 551.689 713.503C551.689 713.503 526.665 701.163 544.721 661.643C562.777 622.122 674.931 604.023 674.931 604.023L679.72 592.18L698.963 621.087" fill="#263238"/>
<path d="M594.639 691.909C585.19 701.53 602.707 713.503 602.707 713.503C597.702 717.839 583.4 717.709 576.411 718.637C566.315 719.974 551.689 713.503 551.689 713.503C551.689 713.503 526.665 701.163 544.721 661.643C562.777 622.122 674.931 604.023 674.931 604.023L679.72 592.18L698.963 621.087" stroke="#263238" stroke-linecap="round" stroke-linejoin="round"/>
<path d="M562.173 548.626C552.53 546.965 621.087 486.886 621.087 486.886L654.135 509.127C654.135 509.127 597.896 548.733 589.073 549.812C580.25 550.891 562.194 548.626 562.194 548.626H562.173Z" fill="#FFC2E3"/>
<path d="M574.253 523.365C574.253 523.365 588.62 526.946 592.999 530.009C597.379 533.072 596.149 543.88 596.149 543.88C596.149 543.88 576.95 538.401 574.231 523.365H574.253Z" fill="#FFC2E3"/>
<path d="M565.042 495.838L591.748 547.073H594.919L569.55 493.314L565.042 495.838Z" fill="#263238"/>
<path d="M589.116 532.878C589.116 532.878 572.268 520.905 568.148 520.905C564.028 520.905 551.688 535.488 551.688 542.801C551.688 550.114 578.611 554.17 583.874 547.957C586.485 544.872 581.286 537.408 581.286 537.408C581.286 537.408 589.116 545.519 591.36 546.727C593.603 547.935 597.724 546.361 597.724 546.361C597.724 546.361 592.115 537.408 589.116 532.878Z" fill="#FFC2E3"/>
<path d="M581.286 549.661C581.286 549.661 574.9 541.356 567.221 537.387" stroke="#263238" stroke-linecap="round" stroke-linejoin="round"/>
<path d="M581.285 537.387C581.285 537.387 575.461 532.296 571.513 531.174" stroke="#263238" stroke-linecap="round" stroke-linejoin="round"/>
<path d="M562.928 543.858C562.928 543.858 572.355 548.82 574.706 550.934" stroke="#263238" stroke-linecap="round" stroke-linejoin="round"/>
<path d="M642.551 460.611C633.922 466.629 595.222 506.43 595.222 506.43C595.222 506.43 613.364 527.053 629.263 530.052L672.364 509.127L642.573 460.611H642.551Z" fill="#9A68AB"/>
<path d="M717.579 584.845C717.903 583.033 718.744 581.221 719.866 579.819C707.376 580.013 696.784 582.839 691.52 590.325L683.021 613.795C685.027 621 690.42 627.127 690.42 627.127C690.42 627.127 626.091 655.796 616.147 698.035C615.348 701.465 613.364 712.1 612.264 716.436C626.394 717.105 641.559 711.496 655.581 711.604C658.126 711.604 660.197 712.337 661.815 713.524C664.857 713.459 667.899 713.416 670.962 713.351L673.313 706.405C675.729 703.881 679.397 701.875 683.905 700.127C684.315 698.186 684.746 696.223 685.156 694.281C683.107 655.171 697.258 618.304 717.558 584.867L717.579 584.845Z" fill="#263238" stroke="#263238" stroke-linecap="round" stroke-linejoin="round"/>
<path d="M691.499 595.718H681.899V602.75H691.499V595.718Z" fill="#263238" stroke="#263238" stroke-linecap="round" stroke-linejoin="round"/>
<path d="M729.811 581.07C730.242 580.639 731.58 578.417 732.011 578.093C736.196 571.557 730.523 564.87 735.053 558.614C750.995 536.632 768.598 515.944 785.985 495.127C783.763 484.254 781.023 474.978 777.658 468.981C767.778 451.356 743.099 438.65 702.759 438.521C668.956 438.413 642.573 460.589 642.573 460.589C642.573 463.437 642.983 466.435 643.695 469.52L646.801 479.336C649.433 486.066 652.906 492.689 656.142 498.211C661.06 506.581 665.418 512.471 665.418 512.471C667.812 535.531 679.138 565.28 679.138 565.28C679.138 565.28 677.218 588.836 679.72 592.137C683.797 597.508 706.923 604.929 720.513 605.943C723.426 600.399 722.131 610.107 725.41 604.735C725.82 602.535 728.344 582.537 729.811 581.049V581.07Z" fill="#773294"/>
<path d="M682.46 493.314C682.46 493.314 697.927 553.307 695.533 566.488C694.346 573.024 697.776 579.798 697.776 579.798C697.776 579.798 690.722 586.744 695.533 595.998" fill="#E5C0DF"/>
<path d="M723.49 542.931C720.47 542.672 717.709 541.96 715.724 540.493L711.129 520.409C711.129 520.409 725.259 521.962 738.289 518.511L743.207 540.493C743.207 540.493 739.562 541.55 734.794 542.305" fill="#DABFDD"/>
<path d="M671.479 501.124C671.479 501.124 658.407 445.057 691.52 438.542C724.633 432.028 731.537 447.538 729.595 458.065C726.985 472.066 699.48 506.43 699.48 506.43L682.481 493.314L671.501 501.102L671.479 501.124Z" fill="#9A68AB"/>
<path d="M773.171 510.507L755.805 509.148L756.905 530.289C762.255 523.645 767.692 517.065 773.149 510.529L773.171 510.507Z" fill="white" stroke="#263238" stroke-linecap="round" stroke-linejoin="round"/>
<path d="M735.053 558.635C736.671 556.392 738.332 554.17 739.993 551.969C708.864 542.823 666.669 532.231 663.821 532.317C660.348 532.403 637.827 532.641 630.126 535.229C622.446 537.839 614.054 550.826 614.054 550.826C614.054 550.826 658.644 551.775 661.815 550.826C664.274 550.092 685.566 560.555 722.412 577.101C726.467 570.823 730.695 564.654 735.053 558.635Z" fill="#E5C0DF"/>
<path d="M752.419 535.876C764.089 521.164 776.234 506.84 788.272 492.43C789.976 490.38 791.594 488.288 793.169 486.195C793.082 486.001 792.974 485.785 792.888 485.591C780.678 461.15 767.994 458.389 767.994 458.389C759.991 456.404 752.742 463.868 748.579 473.446L746.076 480.932C745.063 485.16 744.674 489.453 745.106 493.249C746.292 503.669 750.132 524.098 752.44 535.898L752.419 535.876Z" fill="#9A68AB"/>
<path d="M639.013 499.678C639.013 499.678 646.175 506.128 657.673 509.127Z" fill="#E5C0DF"/>
<path d="M754.188 499.678C757.078 504.942 760.487 509.925 764.283 514.563Z" fill="#E5C0DF"/>
<path d="M682.46 490.898C682.46 490.898 679.742 484.427 680.217 474.611C680.303 472.842 680.476 470.965 680.799 469.024L677.089 463.156L672.321 455.584L677.822 433.538C677.822 433.538 712.877 440.29 715.552 450.084C718.206 459.899 682.439 490.92 682.439 490.92L682.46 490.898Z" fill="#E5C0DF"/>
<path opacity="0.2" d="M680.217 474.611C680.303 472.842 680.476 470.965 680.799 469.024L677.089 463.156C683.172 461.948 689.817 459.252 694.217 453.557C694.217 453.557 695.382 468.765 680.195 474.633L680.217 474.611Z" fill="black"/>
<path d="M704.485 435.479C715.336 406.874 708.174 358.423 655.516 367.742C624.517 373.222 620.914 410.542 631.269 427.109C641.624 443.677 630.622 444.216 646.154 456.512C652.432 461.474 657.523 469.952 665.008 470.469C673.917 471.095 685.372 462.639 693.893 453.535" fill="#F2C1E1"/>
<path d="M643.198 437.291C643.198 437.291 642.098 442.986 640.631 448.724C639.208 454.312 649.843 451.335 649.347 450.45" fill="#FFC2E3"/>
<path d="M667.036 406.378C665.073 408.967 662.506 411.706 659.27 413.95C655.495 416.539 650.857 412.591 652.561 408.341C652.561 408.298 652.604 408.233 652.626 408.19C652.626 408.19 637.094 423.571 621.583 415.762C606.051 407.953 613.601 371.668 637.482 357.28C660.37 343.495 683.625 346.494 692.772 358.833C693.505 359.825 694.67 360.408 695.921 360.537C700.602 361.012 712.122 364.204 717.903 383.447C724.461 405.321 713.977 438.607 703.666 438.995C690.183 439.492 685.804 427.195 684.79 423.377C684.596 422.644 684.229 421.996 683.711 421.457C681.985 419.667 677.887 414.921 674.867 407.414C673.551 404.156 669.193 403.552 667.057 406.357L667.036 406.378Z" fill="#263238" stroke="#263238" stroke-linecap="round" stroke-linejoin="round"/>
<path d="M689.493 435.587C689.493 435.587 689.018 415.46 700.408 417.876C711.798 420.292 703.558 443.59 694.95 443.353" fill="#FFC2E3"/>
<path d="M654.092 548.625H477.265C475.287 548.625 473.684 550.229 473.684 552.206V558.355C473.684 560.332 475.287 561.936 477.265 561.936H654.092C656.07 561.936 657.673 560.332 657.673 558.355V552.206C657.673 550.229 656.07 548.625 654.092 548.625Z" fill="#773294"/>
<path d="M562.195 446.222L572.83 463.911C572.83 463.911 584.177 482.766 585.967 487.835C587.758 492.905 595.222 536.761 595.222 540.105C595.243 547.633 587.218 554.407 582.429 554.407C577.64 554.407 568.041 550.265 559.671 545.778C551.301 541.291 535.747 523.192 535.747 523.192L532.943 484.319L529.297 448.638L562.173 446.222H562.195Z" fill="#773294"/>
<path d="M559.433 528.52C559.433 528.52 559.412 528.456 559.369 528.326C559.326 528.175 559.282 527.981 559.239 527.744C559.131 527.204 558.959 526.449 558.765 525.5C558.355 523.516 557.772 520.69 557.061 517.195C556.349 513.679 555.507 509.515 554.558 504.877C554.084 502.547 553.609 500.131 553.091 497.607C552.595 495.083 552.142 492.451 551.926 489.712C551.818 488.353 551.754 486.994 551.775 485.656C551.797 484.319 551.883 483.003 551.948 481.73C552.013 480.436 552.077 479.185 552.056 477.955C552.034 477.653 552.013 477.351 551.969 477.049C551.948 476.747 551.926 476.445 551.862 476.164C551.732 475.582 551.646 474.999 551.452 474.439C550.783 472.195 549.791 470.167 548.798 468.312C547.806 466.457 546.771 464.796 545.843 463.264C543.966 460.222 542.413 457.763 541.464 455.994C541.011 455.11 540.644 454.42 540.45 453.923C540.342 453.686 540.277 453.514 540.213 453.384C540.169 453.255 540.126 453.19 540.148 453.19C540.148 453.19 540.191 453.255 540.256 453.363C540.32 453.492 540.407 453.686 540.536 453.902C540.752 454.376 541.14 455.067 541.615 455.93C542.586 457.677 544.16 460.093 546.08 463.135C547.029 464.645 548.065 466.306 549.079 468.161C550.093 470.016 551.107 472.044 551.797 474.331C551.991 474.892 552.099 475.496 552.228 476.1C552.315 476.402 552.315 476.704 552.358 477.006C552.379 477.308 552.422 477.631 552.444 477.933C552.466 479.185 552.422 480.457 552.358 481.73C552.293 483.024 552.207 484.319 552.185 485.656C552.185 486.972 552.207 488.331 552.336 489.669C552.573 492.387 553.026 494.997 553.501 497.521C553.997 500.045 554.472 502.483 554.946 504.791C555.852 509.429 556.672 513.614 557.362 517.13C558.031 520.625 558.592 523.472 558.959 525.457C559.131 526.428 559.282 527.183 559.369 527.722C559.412 527.959 559.433 528.154 559.477 528.305C559.477 528.434 559.498 528.499 559.498 528.499L559.433 528.52Z" fill="#263238"/>
<path d="M571.967 467.018C571.967 467.018 571.794 467.277 571.428 467.708C571.255 467.924 571.018 468.183 570.737 468.463C570.457 468.744 570.155 469.067 569.767 469.391C569.033 470.081 568.106 470.815 567.027 471.57C565.927 472.303 564.676 473.037 563.295 473.684C561.914 474.309 560.534 474.806 559.261 475.151C557.988 475.496 556.823 475.712 555.831 475.841C555.335 475.927 554.882 475.949 554.493 475.971C554.105 476.014 553.76 476.014 553.48 476.014C552.919 476.014 552.617 476.014 552.617 475.992C552.617 475.927 553.846 475.906 555.809 475.604C556.78 475.453 557.945 475.215 559.196 474.849C560.447 474.482 561.806 473.986 563.165 473.36C564.525 472.713 565.776 472.001 566.876 471.289C567.955 470.556 568.904 469.844 569.637 469.197C571.126 467.902 571.945 466.975 571.989 467.018H571.967Z" fill="#263238"/>
<g opacity="0.3">
<path d="M541.334 455.239C544.484 462.509 547.288 470.038 549.186 477.739C551.085 485.44 551.667 493.616 549.618 501.274C548.28 506.258 546.512 512.449 548.992 516.979C548.777 512.406 549.898 501.598 552.293 499.592C554.45 506.948 556.586 517.82 558.743 525.177C557.125 513.635 554.04 503.626 552.573 491.977C552.185 488.806 552.703 481.687 552.25 478.559C550.912 469.045 549.747 469.887 541.291 455.261" fill="black"/>
</g>
<path d="M553.221 497.823C553.221 497.823 552.703 498.901 551.948 500.67C551.193 502.439 550.308 504.963 549.769 507.832C549.23 510.723 549.122 513.376 549.165 515.296C549.23 517.216 549.381 518.403 549.316 518.403C549.294 518.403 549.23 518.122 549.143 517.583C549.057 517.044 548.971 516.267 548.906 515.296C548.777 513.355 548.863 510.658 549.402 507.746C549.963 504.834 550.869 502.288 551.689 500.541C552.099 499.656 552.466 498.966 552.746 498.513C553.026 498.039 553.177 497.801 553.199 497.801L553.221 497.823Z" fill="#263238"/>
<path d="M443.828 491.157C443.828 491.157 439.405 498.405 433.775 507.207C428.144 516.03 423.506 523.127 423.42 523.063C423.334 523.019 427.842 515.836 433.473 507.013C439.103 498.211 443.741 491.092 443.828 491.157Z" fill="#263238"/>
<path d="M430.863 446.913L467.988 440.053L508.026 440.872H517.907L539.112 454.894C539.112 454.894 543.103 511.716 534.69 529.836C531.907 535.812 520.927 554.386 520.927 554.386L437.96 554.688L416.668 536.308L424.607 502.289L430.841 446.913H430.863Z" fill="#773294"/>
<g opacity="0.3">
<path d="M490.769 533.137L490.337 533.072C486.303 536.2 483.305 540.644 481.946 545.563C487.447 545.326 492.322 541.529 495.256 536.848C498.168 532.166 499.462 526.687 500.563 521.272C497.672 525.522 494.717 529.815 490.79 533.116L490.769 533.137Z" fill="black"/>
</g>
<path d="M373.437 554.407C368.54 552.682 370.849 524.896 383.21 511.673C384.827 509.947 412.31 458.368 424.089 449.976C432.61 443.893 440.398 446.287 442.404 458.368C444.41 470.448 443.849 491.136 443.849 491.136L423.442 523.041L429.762 526.493L451.335 527.938L447.301 554.386H373.437V554.407Z" fill="#773294"/>
<path d="M447.279 554.407C447.279 554.407 447.279 554.364 447.279 554.278C447.279 554.192 447.301 554.062 447.322 553.933C447.365 553.609 447.43 553.135 447.516 552.552C447.689 551.323 447.948 549.575 448.25 547.375C448.919 542.909 449.846 536.653 450.946 529.254L451.076 529.427C446.028 528.78 440.419 528.046 434.552 527.291C432.89 527.075 431.251 526.86 429.719 526.666H429.676H429.655C428.511 526.018 427.39 525.393 426.268 524.767C425.146 524.163 424.132 523.408 423.054 522.869C420.918 521.704 418.739 520.776 416.625 520.086C414.511 519.417 412.44 518.943 410.498 518.641C408.557 518.36 406.723 518.209 405.062 518.209C401.74 518.166 399.065 518.554 397.253 518.921C396.347 519.072 395.657 519.266 395.182 519.374C394.966 519.417 394.794 519.46 394.643 519.504C394.513 519.525 394.449 519.547 394.449 519.525C394.449 519.504 394.513 519.504 394.621 519.46C394.751 519.417 394.923 519.374 395.161 519.309C395.635 519.18 396.304 518.964 397.232 518.792C399.044 518.403 401.719 517.95 405.062 517.972C406.745 517.972 408.579 518.101 410.542 518.36C412.505 518.662 414.576 519.115 416.711 519.784C418.847 520.474 421.026 521.38 423.205 522.567C424.305 523.106 425.319 523.861 426.44 524.465C427.541 525.091 428.662 525.716 429.806 526.364H429.741C431.294 526.536 432.934 526.752 434.573 526.968C440.441 527.744 446.028 528.456 451.097 529.125H451.27L451.248 529.297C450.105 536.675 449.134 542.931 448.422 547.396C448.077 549.597 447.797 551.344 447.581 552.552C447.473 553.135 447.409 553.588 447.344 553.911C447.322 554.062 447.301 554.17 447.279 554.256C447.279 554.343 447.258 554.364 447.258 554.364L447.279 554.407Z" fill="#263238"/>
<path d="M430.367 526.773C430.367 526.773 428.986 527.097 426.98 528.089C424.974 529.06 422.385 530.937 420.508 533.828C418.653 536.718 418.006 539.846 417.941 542.068C417.855 544.312 418.221 545.692 418.135 545.692C418.135 545.692 418.092 545.606 418.049 545.455C418.006 545.282 417.941 545.045 417.898 544.743C417.79 544.118 417.682 543.211 417.682 542.068C417.682 539.803 418.308 536.589 420.206 533.633C422.104 530.678 424.801 528.801 426.85 527.874C427.886 527.399 428.77 527.119 429.374 526.968C429.676 526.881 429.935 526.838 430.086 526.817C430.259 526.795 430.345 526.773 430.345 526.795L430.367 526.773Z" fill="#263238"/>
<g opacity="0.3">
<path d="M423.55 522.847C416.841 515.62 406.184 512.6 396.886 515.879C396.023 516.181 394.988 516.807 395.117 517.713C395.29 518.856 396.908 518.921 398.051 518.705C406.68 517.13 415.805 518.446 423.399 522.847" fill="black"/>
</g>
<path d="M444.885 477.308C444.885 477.308 444.949 476.855 445.057 476.035C445.165 475.216 445.295 474.051 445.273 472.584C445.273 469.693 444.54 465.573 442.274 461.733C439.988 457.893 436.73 455.304 434.185 453.924C432.912 453.212 431.812 452.759 431.057 452.478C430.28 452.198 429.849 452.047 429.87 452.025C429.87 452.025 429.978 452.025 430.194 452.09C430.41 452.155 430.712 452.22 431.1 452.349C431.877 452.586 432.998 453.018 434.314 453.708C436.925 455.067 440.268 457.656 442.598 461.56C444.928 465.465 445.618 469.65 445.553 472.584C445.553 474.051 445.381 475.237 445.23 476.057C445.165 476.467 445.079 476.769 445.014 476.985C444.971 477.2 444.928 477.308 444.906 477.308H444.885Z" fill="#263238"/>
<path d="M536.006 466.241C536.006 466.241 536.027 466.306 536.049 466.435C536.071 466.586 536.114 466.781 536.157 467.018C536.243 467.557 536.373 468.312 536.545 469.261C536.869 471.224 537.322 474.05 537.84 477.567C538.336 481.083 538.897 485.268 539.285 489.949C539.673 494.63 539.91 499.786 539.695 505.222C539.457 510.637 538.789 515.793 537.732 520.366C536.675 524.939 535.294 528.973 533.849 532.209C532.403 535.467 530.958 537.969 529.858 539.608C529.34 540.45 528.865 541.054 528.563 541.485C528.412 541.679 528.305 541.852 528.218 541.96C528.132 542.068 528.089 542.111 528.089 542.111C528.089 542.111 528.11 542.046 528.197 541.938C528.283 541.809 528.391 541.636 528.52 541.442C528.801 540.989 529.254 540.385 529.75 539.522C530.807 537.84 532.209 535.337 533.611 532.101C535.035 528.865 536.373 524.853 537.408 520.28C538.444 515.706 539.112 510.594 539.328 505.201C539.738 494.393 538.487 484.621 537.559 477.61C537.063 474.115 536.653 471.289 536.373 469.283C536.243 468.312 536.135 467.557 536.049 467.018C536.027 466.781 535.984 466.586 535.984 466.435C535.984 466.306 535.984 466.241 535.984 466.241H536.006Z" fill="#263238"/>
<path d="M451.766 507.919C459.942 515.771 488.784 543.384 488.784 543.384L494.608 545.52L492.818 539.501L455.929 503.626C454.743 502.461 452.845 502.504 451.701 503.712C450.58 504.899 450.623 506.776 451.788 507.897L451.766 507.919Z" fill="black"/>
<path d="M492.214 535.769L483.563 524.767L466.737 520.28L451.076 530.376L447.861 551.063C447.861 551.063 451.313 551.063 452.996 550.934C454.096 550.848 462.552 549.747 462.552 549.747C462.552 549.747 469.563 549.661 472.734 548.971C475.905 548.281 477.07 546.878 479.292 546.878C481.514 546.878 482.118 544.29 482.118 544.29C482.118 544.29 484.556 543.513 486.195 542.435C487.835 541.356 487.856 538.832 487.856 538.832C487.856 538.832 488.741 539.22 490.963 538.832C493.206 538.444 492.235 535.726 492.235 535.726L492.214 535.769Z" fill="#F2C1E1"/>
<path d="M488.05 538.314C488.05 538.314 487.856 538.12 487.533 537.753C487.166 537.322 486.713 536.783 486.195 536.157C485.052 534.841 483.391 533.008 481.018 531.799C478.645 530.57 476.229 530.095 474.525 529.729C473.726 529.578 473.036 529.448 472.475 529.34C472.001 529.254 471.72 529.189 471.72 529.168C471.72 529.146 472.001 529.168 472.497 529.211C472.993 529.276 473.705 529.362 474.568 529.491C476.294 529.793 478.753 530.246 481.169 531.497C483.628 532.749 485.289 534.647 486.389 536.006C486.95 536.696 487.36 537.279 487.641 537.667C487.921 538.077 488.072 538.293 488.05 538.314V538.314Z" fill="#CB8DBB"/>
<path d="M483.197 542.931C483.197 542.931 483.002 542.089 482.01 541.248C481.039 540.385 479.249 539.867 477.394 539.112C475.517 538.379 473.834 537.689 472.605 537.171C471.397 536.653 470.641 536.33 470.663 536.286C470.663 536.243 471.461 536.502 472.691 536.955C473.942 537.408 475.646 538.055 477.523 538.789C478.472 539.155 479.357 539.501 480.155 539.846C480.975 540.191 481.665 540.601 482.161 541.054C482.657 541.507 482.938 542.003 483.067 542.348C483.197 542.693 483.197 542.909 483.175 542.909L483.197 542.931Z" fill="#CB8DBB"/>
<path d="M478.343 546.318C478.343 546.318 477.76 546.275 476.854 546.102C475.948 545.908 474.697 545.606 473.338 545.196C471.979 544.786 470.749 544.355 469.887 544.01C469.024 543.664 468.506 543.427 468.506 543.384C468.506 543.341 469.067 543.513 469.951 543.794C470.836 544.074 472.065 544.463 473.424 544.873C474.783 545.282 476.013 545.628 476.919 545.865C477.804 546.124 478.364 546.275 478.364 546.339L478.343 546.318Z" fill="#CB8DBB"/>
<path d="M529.664 372.208C529.664 372.208 532.684 402.258 533.051 422.665L534.366 446.761C534.366 446.761 520.237 442.274 505.934 442.943L494.393 413.346L529.642 372.208H529.664Z" fill="#263238"/>
<path d="M449.781 377.45C452.521 364.808 455.304 351.649 465.594 343.819C474.762 336.829 485.117 334.996 496.615 335.643C502.288 335.966 508.652 338.663 513.549 341.532C520.258 345.458 523.019 353.267 526.19 360.386C532.533 374.624 531.432 393.758 526.924 399.022L467.384 429.396C457.008 423.809 450.04 421.155 447.43 409.657C445.661 401.826 448.099 385.302 449.781 377.45V377.45Z" fill="#1A2E35"/>
<path d="M466.694 355.511L504.036 345.07C516.051 343.495 524.421 358.121 525.478 370.18C526.665 383.576 527.571 399.993 526.233 410.045C523.537 430.259 508.177 433.214 508.177 433.214C508.177 433.149 508.134 433.516 508.177 439.491L508.523 452.953C503.863 469.391 487.274 467.708 465.313 441.282L460.805 367.613C460.503 361.81 463.027 355.964 466.672 355.489L466.694 355.511Z" fill="#F2C1E1"/>
<path d="M508.199 433.214C508.199 433.214 494.673 434.422 481.04 426.699C481.04 426.699 488.051 440.613 508.177 438.24V433.214H508.199Z" fill="#CB8EBA"/>
<path d="M503.561 342.891C503.583 343.042 503.626 343.193 503.647 343.323H503.583C503.583 343.193 503.583 343.042 503.583 342.891H503.561Z" fill="#263238"/>
<path d="M490.834 374.322C493.056 374.818 495.428 373.89 497.133 372.38C498.837 370.849 499.959 368.799 500.886 366.707C503.151 361.659 504.424 356.179 504.683 350.657C505.309 358.574 504.316 366.62 501.706 374.128C503.13 373.718 504.618 374.128 506.085 374.365C507.552 374.602 509.213 374.581 510.27 373.545C510.96 372.855 511.241 371.841 511.457 370.87C512.945 364.161 513.269 357.215 512.427 350.398C514.175 354.108 515.901 357.84 516.893 361.81C517.885 365.779 518.079 370.029 516.807 373.933C517.367 374.667 518.619 374.581 519.309 373.933C519.999 373.308 520.28 372.337 520.431 371.431C521.013 368.066 520.452 364.614 519.913 361.227C521.876 364.83 522.48 368.972 523.537 372.941C524.594 376.889 526.298 380.966 529.707 383.253C530.376 377.363 530.225 373.329 529.426 367.807C528.801 363.579 526.859 359.372 525.069 355.489C523.063 351.153 520.237 346.882 517.065 344.013C511.198 338.727 508.695 340.928 504.877 342.869L504.424 343.042C504.424 343.042 504.424 342.848 504.403 342.761L504.252 341.963C494.415 339.612 483.974 339.935 474.309 342.934C467.126 345.156 458.238 352.383 454.527 358.897C454.463 359.027 454.376 359.135 454.312 359.264C446.308 375.163 436.579 414.166 437.205 445.769L446.805 444L464.3 440.786C464.645 440.958 465.378 461.581 468.053 470.448C469.002 473.597 479.034 473.554 479.034 473.554C480.22 473.554 477.869 433.947 477.329 425.081C476.984 419.472 470.599 411.297 469.175 405.839C466.91 397.102 470.275 391.709 471.591 382.735C476.639 382.196 484.038 378.787 487.447 374.926C491.545 370.288 494.069 364.485 496.529 358.79" fill="#1A2E35"/>
<path d="M465.357 377.256C465.357 377.256 463.329 376.285 460.632 375.746C457.957 375.185 455.714 375.358 455.714 375.25C455.714 375.207 456.275 375.099 457.181 375.077C458.087 375.055 459.36 375.12 460.719 375.401C462.078 375.681 463.264 376.134 464.084 376.522C464.904 376.911 465.378 377.234 465.357 377.256V377.256Z" fill="#263238"/>
<path d="M508.566 339.073C508.566 339.073 508.221 338.081 506.84 336.872C506.15 336.29 505.201 335.686 503.993 335.276C502.785 334.866 501.318 334.672 499.7 334.715C498.082 334.737 496.313 335.017 494.458 335.384C492.581 335.751 490.618 336.29 488.612 337.023C484.599 338.469 480.371 340.734 476.553 343.862C472.713 346.968 469.671 350.657 467.471 354.346C465.292 358.035 463.868 361.659 463.027 364.787C462.186 367.915 461.841 370.525 461.69 372.337C461.603 373.243 461.582 373.955 461.56 374.43C461.56 374.646 461.539 374.84 461.539 374.969C461.539 375.099 461.539 375.163 461.517 375.163C461.517 375.163 461.517 375.099 461.517 374.969C461.517 374.818 461.517 374.646 461.517 374.43C461.517 373.955 461.517 373.243 461.582 372.337C461.69 370.525 461.992 367.893 462.811 364.722C463.631 361.573 465.033 357.905 467.212 354.173C469.413 350.463 472.476 346.731 476.337 343.603C480.199 340.453 484.448 338.188 488.504 336.743C490.532 336.01 492.516 335.47 494.415 335.125C496.292 334.78 498.082 334.521 499.722 334.5C501.361 334.478 502.85 334.694 504.079 335.125C505.309 335.557 506.28 336.182 506.948 336.808C507.639 337.433 508.048 338.016 508.264 338.447C508.501 338.857 508.566 339.116 508.566 339.116V339.073Z" fill="#263238"/>
<path d="M527.14 432.524L504.467 433.732L498.341 444.971C497.888 445.791 498.47 446.826 499.419 446.826C500.498 446.826 501.771 446.675 502.461 446.05C503.863 444.799 506.495 441.045 506.495 441.045L505.093 449.393L511.5 456.361L512.902 457.763C513.506 458.367 514.498 458.303 515.016 457.634C515.706 456.728 516.504 455.542 516.504 454.83C516.504 454.83 519.568 453.988 519.719 452.047C519.848 450.105 519.438 446.891 519.438 446.891C519.438 446.891 521.531 445.64 521.811 444.389L525.155 447.862L540.104 453.212L548.971 450.515L561.094 446.071C561.094 446.071 553.717 439.643 552.185 438.521C550.653 437.399 527.118 432.524 527.118 432.524H527.14Z" fill="#F2C1E1"/>
<path d="M527.14 432.524C527.14 432.524 527.377 432.567 527.808 432.632C528.261 432.718 528.908 432.848 529.771 433.02C531.476 433.365 534 433.883 537.192 434.573C540.385 435.285 544.268 436.105 548.712 437.248C549.812 437.55 550.955 437.809 552.12 438.305C552.66 438.607 553.113 439.039 553.609 439.427C554.083 439.837 554.579 440.225 555.076 440.657C557.039 442.318 559.088 444.087 561.245 445.942L561.439 446.093L561.202 446.179C558.053 447.344 554.709 448.574 551.236 449.846C550.351 450.148 549.488 450.515 548.582 450.796C547.676 451.076 546.77 451.357 545.843 451.637C543.987 452.198 542.111 452.78 540.191 453.363H540.148H540.104C535.315 451.659 530.311 449.868 525.155 448.013H525.112L525.09 447.97C524.033 446.869 522.89 445.683 521.746 444.497L522.048 444.41C521.919 444.928 521.595 445.359 521.229 445.748C520.862 446.136 520.452 446.46 520.021 446.762C519.891 446.848 519.74 446.956 519.611 447.042L519.697 446.869C519.891 448.509 520.042 450.127 519.999 451.745C519.999 452.133 519.913 452.608 519.676 452.974C519.46 453.341 519.158 453.643 518.834 453.902C518.165 454.398 517.432 454.743 516.655 454.981L516.785 454.808C516.785 455.24 516.591 455.585 516.44 455.93C516.267 456.275 516.073 456.577 515.857 456.901C515.642 457.203 515.447 457.505 515.189 457.807C514.93 458.109 514.52 458.303 514.131 458.346C513.722 458.367 513.312 458.238 513.01 457.979C512.729 457.72 512.492 457.461 512.233 457.203C511.715 456.706 511.219 456.189 510.745 455.649C508.825 453.557 506.926 451.508 505.093 449.501L505.028 449.437V449.35C505.524 446.481 505.999 443.698 506.452 441.002L506.732 441.11C506.042 442.08 505.33 443.03 504.618 443.936C504.251 444.389 503.885 444.842 503.518 445.273C503.13 445.683 502.784 446.158 502.245 446.46C501.727 446.74 501.145 446.848 500.584 446.913C500.304 446.934 500.023 446.956 499.743 446.956C499.484 446.956 499.139 446.956 498.88 446.805C498.341 446.524 498.039 445.877 498.168 445.295C498.233 444.993 498.405 444.755 498.513 444.54L498.901 443.849C500.908 440.182 502.763 436.774 504.467 433.689V433.624H504.575C511.629 433.279 517.303 432.977 521.207 432.783C523.149 432.696 524.659 432.632 525.694 432.567C526.19 432.567 526.579 432.524 526.859 432.524C527.118 432.524 527.247 432.524 527.247 432.524C527.247 432.524 527.118 432.524 526.859 432.567C526.579 432.567 526.19 432.61 525.694 432.653C524.659 432.718 523.149 432.804 521.207 432.934C517.303 433.15 511.629 433.473 504.597 433.883L504.704 433.818C503.022 436.903 501.188 440.312 499.182 444L498.815 444.691C498.686 444.928 498.535 445.144 498.492 445.381C498.384 445.834 498.621 446.373 499.052 446.589C499.268 446.697 499.484 446.718 499.786 446.718C500.045 446.718 500.325 446.697 500.584 446.675C501.123 446.611 501.663 446.503 502.116 446.244C502.569 445.985 502.935 445.532 503.302 445.122C503.669 444.691 504.036 444.259 504.402 443.806C505.114 442.9 505.805 441.951 506.495 440.98L506.883 440.419L506.775 441.088C506.322 443.785 505.869 446.589 505.395 449.437L505.352 449.307C507.185 451.313 509.084 453.363 511.004 455.455C511.478 455.995 511.974 456.512 512.492 457.008C512.751 457.246 513.01 457.526 513.247 457.763C513.484 457.958 513.808 458.065 514.131 458.044C514.455 458.044 514.757 457.871 514.973 457.634C515.189 457.375 515.404 457.052 515.598 456.771C515.793 456.469 515.987 456.167 516.159 455.844C516.31 455.52 516.461 455.196 516.483 454.873V454.743L516.612 454.7C517.346 454.484 518.058 454.139 518.683 453.686C519.287 453.212 519.74 452.565 519.697 451.788C519.74 450.192 519.589 448.574 519.395 446.956V446.848L519.481 446.783C519.611 446.697 519.74 446.611 519.87 446.524C520.28 446.222 520.689 445.92 521.035 445.554C521.38 445.208 521.66 444.799 521.768 444.389L521.854 444.087L522.07 444.302C523.213 445.489 524.357 446.675 525.414 447.776L525.349 447.732C530.505 449.588 535.488 451.378 540.277 453.082H540.169C542.089 452.5 543.966 451.939 545.8 451.378C546.727 451.098 547.633 450.817 548.539 450.558C549.445 450.278 550.308 449.933 551.193 449.631C554.666 448.358 558.009 447.15 561.159 445.985L561.116 446.222C558.98 444.367 556.931 442.598 554.968 440.916C554.472 440.506 553.997 440.096 553.501 439.686C553.005 439.298 552.552 438.866 552.056 438.586C550.977 438.111 549.812 437.831 548.712 437.529C544.289 436.364 540.406 435.522 537.214 434.789C534.021 434.077 531.54 433.538 529.815 433.15C528.973 432.955 528.326 432.826 527.873 432.718C527.442 432.61 527.204 432.567 527.204 432.567L527.14 432.524Z" fill="#CB8DBB"/>
<path d="M522.307 435.113C522.307 435.113 522.199 435.178 522.005 435.242C521.768 435.329 521.466 435.436 521.121 435.566C520.301 435.846 519.179 436.235 517.82 436.688C516.418 437.162 514.757 437.701 512.923 438.327C512.492 438.5 512.06 438.715 511.758 439.082C511.456 439.449 511.262 439.923 511.133 440.42C510.852 441.433 510.637 442.491 510.464 443.591C510.119 445.791 510.054 447.927 510.292 449.847C510.55 451.745 511.154 453.406 511.715 454.744C512.298 456.081 512.88 457.117 513.333 457.807C513.786 458.497 514.067 458.842 514.045 458.864C514.045 458.864 513.959 458.799 513.808 458.627C513.657 458.476 513.463 458.217 513.204 457.893C512.729 457.224 512.082 456.21 511.478 454.851C510.874 453.514 510.248 451.853 509.968 449.89C509.709 447.948 509.752 445.769 510.119 443.548C510.292 442.426 510.529 441.369 510.809 440.333C510.96 439.816 511.154 439.298 511.5 438.888C511.845 438.456 512.341 438.219 512.816 438.047C514.671 437.443 516.332 436.925 517.734 436.472C519.093 436.062 520.215 435.717 521.056 435.458C521.423 435.35 521.725 435.264 521.962 435.199C522.178 435.134 522.286 435.113 522.286 435.134L522.307 435.113Z" fill="#CB8DBB"/>
<path d="M528.24 437.205C528.24 437.205 527.916 437.356 527.29 437.593C526.6 437.831 525.716 438.154 524.637 438.521C523.494 438.909 522.178 439.362 520.711 439.858C519.977 440.117 519.158 440.333 518.446 440.7C517.712 441.066 517.195 441.778 516.806 442.576C516.051 444.194 515.447 445.812 515.102 447.322C514.757 448.832 514.714 450.235 514.886 451.399C515.232 453.751 516.31 454.894 516.224 454.916C516.224 454.916 516.159 454.851 516.03 454.722C515.922 454.592 515.771 454.376 515.598 454.096C515.253 453.535 514.843 452.629 514.649 451.443C514.433 450.256 514.455 448.811 514.8 447.258C515.145 445.704 515.728 444.086 516.504 442.425C516.893 441.606 517.497 440.829 518.295 440.419C519.093 440.009 519.891 439.815 520.625 439.556C522.092 439.082 523.429 438.65 524.594 438.284C525.673 437.938 526.579 437.679 527.269 437.464C527.894 437.27 528.261 437.183 528.261 437.205H528.24Z" fill="#CB8DBB"/>
<path d="M527.442 442.059C527.442 442.059 526.557 443.245 524.896 443.871C523.235 444.518 521.768 444.303 521.79 444.216C521.79 444.108 523.192 444.152 524.767 443.547C526.342 442.965 527.377 441.973 527.442 442.059Z" fill="#CB8DBB"/>
<path d="M541.787 450.774C541.787 450.774 541.162 450.99 540.126 451.011C539.091 451.033 537.624 450.86 536.135 450.256C534.647 449.652 533.482 448.768 532.748 448.013C532.015 447.258 531.691 446.697 531.713 446.675C531.756 446.632 532.144 447.15 532.899 447.819C533.654 448.509 534.819 449.329 536.243 449.911C537.688 450.494 539.091 450.709 540.105 450.731C541.118 450.774 541.766 450.688 541.766 450.731L541.787 450.774Z" fill="#CB8DBB"/>
<path d="M516.138 433.926C516.138 433.926 515.383 434.034 514.153 434.271C513.549 434.379 512.815 434.53 512.017 434.703C511.219 434.875 510.335 435.048 509.515 435.479C508.695 435.889 508.026 436.515 507.638 437.205C507.228 437.895 507.013 438.607 506.883 439.211C506.624 440.419 506.538 441.196 506.473 441.196C506.452 441.196 506.452 441.002 506.473 440.657C506.495 440.311 506.538 439.794 506.646 439.168C506.754 438.542 506.948 437.809 507.358 437.054C507.768 436.299 508.479 435.609 509.364 435.177C510.227 434.703 511.176 434.552 511.974 434.379C512.794 434.228 513.527 434.099 514.153 434.012C515.404 433.84 516.181 433.861 516.181 433.904L516.138 433.926Z" fill="#CB8DBB"/>
<path d="M441.347 494.997C441.347 494.997 437.183 501.361 431.876 509.084C426.57 516.807 422.212 523.02 422.126 522.976C422.04 522.912 426.289 516.613 431.596 508.89C436.903 501.167 441.26 494.954 441.347 494.997Z" fill="#263238"/>
<path d="M682.999 686.71H656.185V707.355H682.999V686.71Z" fill="#263238" stroke="#263238" stroke-linecap="round" stroke-linejoin="round"/>
<path d="M487.36 742.905C478.235 742.905 470.814 748.471 470.814 755.374V763.658C470.814 770.539 478.235 776.127 487.36 776.127H708.088C717.213 776.127 724.634 770.561 724.634 763.658V755.353C724.634 748.471 717.213 742.884 708.088 742.884" fill="#542567"/>
<path d="M703.795 791.745H483.067C473.942 791.745 466.521 797.332 466.521 804.214V812.498C466.521 819.379 473.942 824.945 483.067 824.945H703.816C712.941 824.945 720.362 819.379 720.362 812.498V804.214C720.362 797.332 712.941 791.745 703.816 791.745H703.795Z" fill="#542567"/>
<path d="M703.795 837.91H483.067C473.942 837.91 466.521 843.475 466.521 850.357V858.662C466.521 865.544 473.942 871.109 483.067 871.109H703.795C712.92 871.109 720.341 865.544 720.341 858.662V850.357C720.341 843.454 712.92 837.91 703.795 837.91Z" fill="#542567"/>
<path d="M559.045 884.98H627.796C650.662 884.98 655.883 914.297 634.117 920.682C621.324 924.436 607.022 926.485 593.431 926.485C579.819 926.485 565.538 924.436 552.724 920.682C530.958 914.297 536.179 884.98 559.045 884.98Z" fill="#542567"/>
<path d="M428.9 208.625C428.9 208.625 496.011 148.029 586.679 141.6C586.679 141.6 739.583 126.931 819.983 273.709C819.983 273.709 835.688 376.522 819.983 427.088C819.983 427.088 752.656 548.54 753.541 560.685L711.798 671.178C711.798 671.178 706.362 722.304 682.784 722.304H514.132C514.132 722.304 483.305 722.714 483.305 681.079C483.305 681.079 449.674 571.838 428.9 542.542C428.9 542.542 363.601 415.547 363.601 375.961C363.601 375.961 336.398 301.839 428.878 208.604L428.9 208.625Z" stroke="white" stroke-miterlimit="10"/>
<path d="M593.41 133.597C457.461 133.597 347.227 233.822 347.227 357.496C347.227 398.202 359.804 436.04 380.038 469.283C440.505 568.343 456.512 623.956 466.371 677.801C474.633 722.93 486.109 733.414 523.58 733.414C539.522 733.414 565.625 733.414 593.41 733.414C621.195 733.414 647.297 733.414 663.239 733.414C700.753 733.414 712.187 722.908 720.449 677.801C730.307 623.956 746.314 568.321 806.781 469.283C827.037 436.062 839.614 398.202 839.614 357.496C839.614 233.843 729.358 133.597 593.41 133.597V133.597ZM787.387 459.489C728.56 555.853 709.792 613.192 698.574 674.478C697.323 681.295 693.505 702.091 686.688 708.67C684.337 710.935 679.72 713.244 663.239 713.244H593.41H523.58C507.099 713.244 502.483 710.935 500.131 708.692C493.293 702.112 489.496 681.338 488.245 674.5C477.027 613.235 458.259 555.896 399.432 459.511C379.499 426.786 369.382 392.443 369.403 357.496C369.403 245.169 469.887 153.789 593.41 153.789C716.932 153.789 817.438 245.169 817.438 357.496C817.438 392.507 807.32 426.829 787.409 459.489H787.387Z" fill="#542567"/>
<path d="M93.4726 1098.16C97.6145 1103.55 99.6854 1109.72 99.6854 1116.64C99.6854 1126.87 96.1691 1134.87 89.115 1140.68C82.0609 1146.48 72.1808 1149.37 59.4531 1149.37H0V1029.21H57.5979C69.8725 1029.21 79.4938 1031.93 86.4832 1037.39C93.4726 1042.85 96.9673 1050.5 96.9673 1060.41C96.9673 1067.46 95.1121 1073.33 91.4232 1078.05C87.7344 1082.78 82.8159 1085.97 76.6894 1087.67C83.7219 1089.27 89.3307 1092.76 93.4726 1098.16V1098.16ZM33.3939 1076.93H50.2634C58.6765 1076.93 62.8831 1073.46 62.8831 1066.53C62.8831 1059.61 58.6765 1055.79 50.2634 1055.79H33.3939V1076.93ZM65.4287 1111.88C65.4287 1108.25 64.3285 1105.47 62.1065 1103.53C59.8846 1101.61 56.735 1100.64 52.6579 1100.64H33.3939V1122.45H52.8305C61.2436 1122.45 65.4502 1118.93 65.4502 1111.88H65.4287Z" fill="white"/>
<path d="M323.562 1055.96V1075.55H361.896V1100.94H323.562V1122.58H367.03V1149.33H290.168V1029.17H367.03V1055.92H323.562V1055.96Z" fill="white"/>
<path d="M571.794 1140.59C562.82 1133.95 557.988 1124.43 557.319 1112.05H592.935C593.28 1116.26 594.531 1119.32 596.689 1121.26C598.846 1123.2 601.629 1124.15 605.037 1124.15C608.1 1124.15 610.624 1123.38 612.631 1121.84C614.615 1120.31 615.608 1118.18 615.608 1115.46C615.608 1111.94 613.968 1109.2 610.667 1107.28C607.367 1105.34 602.039 1103.18 594.639 1100.81C586.809 1098.2 580.466 1095.68 575.634 1093.22C570.802 1090.78 566.595 1087.2 563.014 1082.47C559.433 1077.77 557.643 1071.6 557.643 1063.99C557.643 1056.37 559.584 1049.64 563.446 1044.14C567.307 1038.64 572.657 1034.45 579.474 1031.61C586.291 1028.76 594.014 1027.34 602.643 1027.34C616.621 1027.34 627.774 1030.59 636.123 1037.13C644.471 1043.67 648.937 1052.83 649.498 1064.66H613.191C613.084 1061.01 611.962 1058.29 609.869 1056.48C607.755 1054.67 605.059 1053.76 601.78 1053.76C599.277 1053.76 597.228 1054.49 595.653 1055.98C594.057 1057.47 593.259 1059.56 593.259 1062.28C593.259 1064.55 594.143 1066.51 595.891 1068.17C597.659 1069.81 599.838 1071.23 602.448 1072.42C605.059 1073.61 608.92 1075.12 614.033 1076.93C621.648 1079.54 627.925 1082.13 632.865 1084.67C637.805 1087.22 642.077 1090.8 645.658 1095.42C649.239 1100.01 651.029 1105.84 651.029 1112.89C651.029 1119.95 649.239 1126.46 645.658 1132.16C642.077 1137.85 636.899 1142.32 630.147 1145.62C623.395 1148.92 615.413 1150.56 606.202 1150.56C592.223 1150.56 580.747 1147.23 571.773 1140.59H571.794Z" fill="white"/>
<path d="M847.186 1140.59C838.212 1133.95 833.38 1124.43 832.711 1112.05H868.327C868.672 1116.26 869.923 1119.32 872.08 1121.26C874.238 1123.2 877.02 1124.15 880.429 1124.15C883.492 1124.15 886.016 1123.38 888.022 1121.84C890.007 1120.31 890.999 1118.18 890.999 1115.46C890.999 1111.94 889.36 1109.2 886.059 1107.28C882.759 1105.34 877.43 1103.18 870.031 1100.81C862.2 1098.2 855.858 1095.68 851.026 1093.22C846.194 1090.78 841.987 1087.2 838.406 1082.47C834.825 1077.77 833.035 1071.6 833.035 1063.99C833.035 1056.37 834.976 1049.64 838.837 1044.14C842.699 1038.64 848.049 1034.45 854.866 1031.61C861.682 1028.76 869.405 1027.34 878.034 1027.34C892.013 1027.34 903.166 1030.59 911.514 1037.13C919.863 1043.67 924.328 1052.83 924.889 1064.66H888.583C888.475 1061.01 887.353 1058.29 885.261 1056.48C883.147 1054.67 880.45 1053.76 877.171 1053.76C874.669 1053.76 872.62 1054.49 871.045 1055.98C869.448 1057.47 868.65 1059.56 868.65 1062.28C868.65 1064.55 869.535 1066.51 871.282 1068.17C873.051 1069.81 875.23 1071.23 877.84 1072.42C880.45 1073.61 884.312 1075.12 889.424 1076.93C897.039 1079.54 903.317 1082.13 908.257 1084.67C913.197 1087.22 917.468 1090.8 921.049 1095.42C924.63 1100.01 926.421 1105.84 926.421 1112.89C926.421 1119.95 924.63 1126.46 921.049 1132.16C917.468 1137.85 912.291 1142.32 905.539 1145.62C898.787 1148.92 890.805 1150.56 881.594 1150.56C867.615 1150.56 856.138 1147.23 847.164 1140.59H847.186Z" fill="white"/>
<path d="M1200 1029.21V1055.79H1167.97V1149.35H1134.57V1055.79H1102.88V1029.21H1200.02H1200Z" fill="white"/>
</g>
<defs>
<clipPath id="clip0_3530_7485">
<rect width="1200" height="1150.56" fill="white"/>
</clipPath>
</defs>
</svg>
