<svg width="54" height="62" viewBox="0 0 54 62" fill="none" xmlns="http://www.w3.org/2000/svg">
<g id="Frame" clip-path="url(#clip0_528_1978)">
<g id="Vector">
<mask id="path-1-inside-1_528_1978" fill="white">
<path d="M13.055 20.0241V37.9759C13.055 39.8829 14.5817 41.4406 16.4625 41.4406H17.296V50.263C17.296 51.2146 16.5323 51.9949 15.5926 51.9949H11.8226V33.2713H10.9292V51.9949H7.15847C6.22261 51.9949 5.45511 51.2138 5.45511 50.263V18.2498H4.56627V33.1255H2.40181C2.34569 33.1255 2.29488 33.1209 2.2433 33.1163C2.19704 33.1116 2.15002 33.107 2.10831 33.097C2.08025 33.0924 2.05219 33.0877 2.02489 33.0777C2.01578 33.0777 2.01123 33.0731 2.00138 33.0685C1.95511 33.0592 1.91264 33.0446 1.86638 33.0261C1.81481 33.0068 1.76855 32.9883 1.71773 32.9597C1.67602 32.9405 1.63886 32.9173 1.59639 32.8934C1.54482 32.8603 1.49401 32.8271 1.44775 32.7893C1.42424 32.77 1.39617 32.7515 1.37342 32.7323C1.33171 32.6945 1.29455 32.6567 1.25739 32.6143C1.22933 32.5811 1.20127 32.548 1.17396 32.5148C1.13225 32.4624 1.09509 32.4107 1.06703 32.3536C1.01091 32.2734 0.969198 32.1832 0.936587 32.093C0.917627 32.046 0.903976 31.9981 0.890325 31.9511C0.885774 31.9318 0.881223 31.9133 0.876673 31.894V31.8802C0.872123 31.8663 0.867573 31.8516 0.867573 31.8331C0.853921 31.7861 0.848613 31.7383 0.844062 31.6912C0.839512 31.6388 0.834961 31.5825 0.834961 31.5301V16.2425C0.834961 16.1338 0.839512 16.0297 0.844062 15.9256C0.848613 15.8215 0.857713 15.7174 0.867573 15.6133C0.876673 15.5092 0.891083 15.4097 0.904734 15.3056C0.918386 15.2254 0.932795 15.1398 0.950997 15.0596C0.960097 14.9887 0.974506 14.9224 0.992708 14.8561C1.01167 14.7759 1.02987 14.6995 1.04883 14.6193C1.05338 14.5954 1.06248 14.5769 1.07234 14.553C1.1095 14.4111 1.15576 14.2646 1.20733 14.1273C1.21188 14.1181 1.21189 14.1081 1.21644 14.0988C1.22554 14.0749 1.2354 14.0564 1.2445 14.0325C1.27711 13.9423 1.31427 13.8528 1.35143 13.7672C1.39314 13.6678 1.44016 13.5683 1.48642 13.4742C1.49097 13.465 1.49552 13.4549 1.50008 13.4457C1.53724 13.3701 1.5744 13.2992 1.61611 13.2282C1.64872 13.1665 1.68133 13.1102 1.71849 13.0532C1.77006 12.9683 1.82088 12.8828 1.877 12.8026C1.92857 12.7224 1.98393 12.6414 2.0446 12.5612C2.51026 11.9273 3.0965 11.3875 3.76237 10.9758C3.92998 10.8717 4.10213 10.7768 4.27884 10.692C4.28794 10.6874 4.29249 10.6874 4.2978 10.6827C4.30311 10.6781 4.31145 10.6781 4.31676 10.6735C4.32586 10.6689 4.34027 10.6642 4.34937 10.6596C4.39563 10.6357 4.4381 10.6172 4.48437 10.5933C4.52153 10.5794 4.55869 10.5601 4.6004 10.5462C4.65197 10.527 4.70278 10.5038 4.75436 10.4846C4.80593 10.4607 4.86129 10.4421 4.91286 10.4275C4.97353 10.4036 5.03875 10.3805 5.10397 10.3612C5.13659 10.3473 5.17375 10.3373 5.21091 10.328C5.21546 10.328 5.22001 10.3234 5.22456 10.328C5.30799 10.2949 5.40127 10.271 5.49 10.2524C5.50896 10.2478 5.53171 10.2386 5.55522 10.2386C5.59693 10.2247 5.6341 10.2147 5.67126 10.21C5.71297 10.2008 5.75544 10.1962 5.7926 10.1861C5.89953 10.1669 6.00192 10.1483 6.10885 10.1391C6.1225 10.1345 6.14146 10.1298 6.15511 10.1298C6.21579 10.1206 6.27646 10.116 6.33637 10.1106C6.41979 10.1013 6.50398 10.0967 6.5874 10.0913C6.68978 10.0867 6.79217 10.082 6.8991 10.082H8.24905C8.34688 10.1437 8.44926 10.2054 8.5562 10.2617C8.56075 10.2663 8.56985 10.2663 8.57516 10.271C8.78448 10.3889 8.9991 10.4884 9.22207 10.5786C9.29184 10.6072 9.36162 10.6357 9.43594 10.6588C9.6316 10.7298 9.82727 10.7868 10.0267 10.8339H10.0358C10.1102 10.8578 10.1799 10.8717 10.2542 10.8809C10.3149 10.8948 10.3756 10.9048 10.4355 10.9141C10.4962 10.928 10.5568 10.938 10.6168 10.9426C10.7009 10.9565 10.7798 10.9619 10.8587 10.9711H10.8723C10.9095 10.9758 10.9512 10.9804 10.9884 10.9804C11.1188 10.9896 11.2447 10.9943 11.3744 10.9943C11.5139 10.9943 11.6489 10.9896 11.7839 10.9804C11.8029 10.9804 11.8256 10.9758 11.8446 10.9758C11.9606 10.9665 12.0729 10.9519 12.1844 10.938C12.217 10.9334 12.2541 10.9287 12.2868 10.9187C12.3004 10.9187 12.3103 10.9141 12.3239 10.9141C12.38 10.9094 12.4354 10.8948 12.487 10.8855C12.5059 10.8809 12.5196 10.8763 12.5385 10.8717C12.5947 10.867 12.65 10.8524 12.7016 10.8385C12.7805 10.8246 12.8601 10.8007 12.9344 10.7768C13.0178 10.7575 13.102 10.7344 13.1809 10.7012C13.2135 10.692 13.2507 10.682 13.2833 10.6681C13.3531 10.6442 13.4183 10.621 13.4881 10.5971C13.5207 10.5833 13.5533 10.5686 13.5859 10.5547C13.7209 10.5031 13.8559 10.4414 13.9818 10.3704C14.0144 10.3612 14.0424 10.3419 14.075 10.328C14.1031 10.3141 14.1312 10.2995 14.1585 10.281C14.2745 10.2193 14.3913 10.153 14.5028 10.082H15.8573C15.9597 10.082 16.0666 10.0867 16.169 10.0913C16.3366 10.0959 16.5042 10.1152 16.6672 10.1383H16.6764C16.7416 10.1476 16.8159 10.1576 16.8811 10.1715H16.8902C16.9926 10.1908 17.0859 10.2093 17.1837 10.2332C17.258 10.2471 17.3324 10.2663 17.4074 10.2902C17.4909 10.3095 17.5705 10.3326 17.6539 10.3612C17.7427 10.3897 17.8306 10.4182 17.9148 10.4514C18.0453 10.4984 18.1658 10.5462 18.2917 10.6025C18.4131 10.6596 18.5382 10.7159 18.655 10.7822C18.771 10.8439 18.8833 10.9048 18.9902 10.9765C18.9948 10.9812 18.9993 10.9812 19.0039 10.9858C19.1199 11.0567 19.2321 11.1323 19.3391 11.2133C19.4506 11.2888 19.5575 11.3744 19.6606 11.4593C19.1904 11.5772 18.7293 11.7338 18.2925 11.9281C17.911 12.0985 17.5386 12.2928 17.1845 12.5196C16.4306 12.9884 15.7557 13.5752 15.1785 14.2515C14.7546 14.7481 14.3822 15.2925 14.075 15.8747C13.7633 16.4708 13.5116 17.1101 13.3394 17.7771C13.237 18.175 13.1627 18.5821 13.1157 19.0032C13.074 19.3394 13.055 19.6802 13.055 20.0257V20.0241Z"/>
</mask>
<path d="M13.055 20.0241V37.9759C13.055 39.8829 14.5817 41.4406 16.4625 41.4406H17.296V50.263C17.296 51.2146 16.5323 51.9949 15.5926 51.9949H11.8226V33.2713H10.9292V51.9949H7.15847C6.22261 51.9949 5.45511 51.2138 5.45511 50.263V18.2498H4.56627V33.1255H2.40181C2.34569 33.1255 2.29488 33.1209 2.2433 33.1163C2.19704 33.1116 2.15002 33.107 2.10831 33.097C2.08025 33.0924 2.05219 33.0877 2.02489 33.0777C2.01578 33.0777 2.01123 33.0731 2.00138 33.0685C1.95511 33.0592 1.91264 33.0446 1.86638 33.0261C1.81481 33.0068 1.76855 32.9883 1.71773 32.9597C1.67602 32.9405 1.63886 32.9173 1.59639 32.8934C1.54482 32.8603 1.49401 32.8271 1.44775 32.7893C1.42424 32.77 1.39617 32.7515 1.37342 32.7323C1.33171 32.6945 1.29455 32.6567 1.25739 32.6143C1.22933 32.5811 1.20127 32.548 1.17396 32.5148C1.13225 32.4624 1.09509 32.4107 1.06703 32.3536C1.01091 32.2734 0.969198 32.1832 0.936587 32.093C0.917627 32.046 0.903976 31.9981 0.890325 31.9511C0.885774 31.9318 0.881223 31.9133 0.876673 31.894V31.8802C0.872123 31.8663 0.867573 31.8516 0.867573 31.8331C0.853921 31.7861 0.848613 31.7383 0.844062 31.6912C0.839512 31.6388 0.834961 31.5825 0.834961 31.5301V16.2425C0.834961 16.1338 0.839512 16.0297 0.844062 15.9256C0.848613 15.8215 0.857713 15.7174 0.867573 15.6133C0.876673 15.5092 0.891083 15.4097 0.904734 15.3056C0.918386 15.2254 0.932795 15.1398 0.950997 15.0596C0.960097 14.9887 0.974506 14.9224 0.992708 14.8561C1.01167 14.7759 1.02987 14.6995 1.04883 14.6193C1.05338 14.5954 1.06248 14.5769 1.07234 14.553C1.1095 14.4111 1.15576 14.2646 1.20733 14.1273C1.21188 14.1181 1.21189 14.1081 1.21644 14.0988C1.22554 14.0749 1.2354 14.0564 1.2445 14.0325C1.27711 13.9423 1.31427 13.8528 1.35143 13.7672C1.39314 13.6678 1.44016 13.5683 1.48642 13.4742C1.49097 13.465 1.49552 13.4549 1.50008 13.4457C1.53724 13.3701 1.5744 13.2992 1.61611 13.2282C1.64872 13.1665 1.68133 13.1102 1.71849 13.0532C1.77006 12.9683 1.82088 12.8828 1.877 12.8026C1.92857 12.7224 1.98393 12.6414 2.0446 12.5612C2.51026 11.9273 3.0965 11.3875 3.76237 10.9758C3.92998 10.8717 4.10213 10.7768 4.27884 10.692C4.28794 10.6874 4.29249 10.6874 4.2978 10.6827C4.30311 10.6781 4.31145 10.6781 4.31676 10.6735C4.32586 10.6689 4.34027 10.6642 4.34937 10.6596C4.39563 10.6357 4.4381 10.6172 4.48437 10.5933C4.52153 10.5794 4.55869 10.5601 4.6004 10.5462C4.65197 10.527 4.70278 10.5038 4.75436 10.4846C4.80593 10.4607 4.86129 10.4421 4.91286 10.4275C4.97353 10.4036 5.03875 10.3805 5.10397 10.3612C5.13659 10.3473 5.17375 10.3373 5.21091 10.328C5.21546 10.328 5.22001 10.3234 5.22456 10.328C5.30799 10.2949 5.40127 10.271 5.49 10.2524C5.50896 10.2478 5.53171 10.2386 5.55522 10.2386C5.59693 10.2247 5.6341 10.2147 5.67126 10.21C5.71297 10.2008 5.75544 10.1962 5.7926 10.1861C5.89953 10.1669 6.00192 10.1483 6.10885 10.1391C6.1225 10.1345 6.14146 10.1298 6.15511 10.1298C6.21579 10.1206 6.27646 10.116 6.33637 10.1106C6.41979 10.1013 6.50398 10.0967 6.5874 10.0913C6.68978 10.0867 6.79217 10.082 6.8991 10.082H8.24905C8.34688 10.1437 8.44926 10.2054 8.5562 10.2617C8.56075 10.2663 8.56985 10.2663 8.57516 10.271C8.78448 10.3889 8.9991 10.4884 9.22207 10.5786C9.29184 10.6072 9.36162 10.6357 9.43594 10.6588C9.6316 10.7298 9.82727 10.7868 10.0267 10.8339H10.0358C10.1102 10.8578 10.1799 10.8717 10.2542 10.8809C10.3149 10.8948 10.3756 10.9048 10.4355 10.9141C10.4962 10.928 10.5568 10.938 10.6168 10.9426C10.7009 10.9565 10.7798 10.9619 10.8587 10.9711H10.8723C10.9095 10.9758 10.9512 10.9804 10.9884 10.9804C11.1188 10.9896 11.2447 10.9943 11.3744 10.9943C11.5139 10.9943 11.6489 10.9896 11.7839 10.9804C11.8029 10.9804 11.8256 10.9758 11.8446 10.9758C11.9606 10.9665 12.0729 10.9519 12.1844 10.938C12.217 10.9334 12.2541 10.9287 12.2868 10.9187C12.3004 10.9187 12.3103 10.9141 12.3239 10.9141C12.38 10.9094 12.4354 10.8948 12.487 10.8855C12.5059 10.8809 12.5196 10.8763 12.5385 10.8717C12.5947 10.867 12.65 10.8524 12.7016 10.8385C12.7805 10.8246 12.8601 10.8007 12.9344 10.7768C13.0178 10.7575 13.102 10.7344 13.1809 10.7012C13.2135 10.692 13.2507 10.682 13.2833 10.6681C13.3531 10.6442 13.4183 10.621 13.4881 10.5971C13.5207 10.5833 13.5533 10.5686 13.5859 10.5547C13.7209 10.5031 13.8559 10.4414 13.9818 10.3704C14.0144 10.3612 14.0424 10.3419 14.075 10.328C14.1031 10.3141 14.1312 10.2995 14.1585 10.281C14.2745 10.2193 14.3913 10.153 14.5028 10.082H15.8573C15.9597 10.082 16.0666 10.0867 16.169 10.0913C16.3366 10.0959 16.5042 10.1152 16.6672 10.1383H16.6764C16.7416 10.1476 16.8159 10.1576 16.8811 10.1715H16.8902C16.9926 10.1908 17.0859 10.2093 17.1837 10.2332C17.258 10.2471 17.3324 10.2663 17.4074 10.2902C17.4909 10.3095 17.5705 10.3326 17.6539 10.3612C17.7427 10.3897 17.8306 10.4182 17.9148 10.4514C18.0453 10.4984 18.1658 10.5462 18.2917 10.6025C18.4131 10.6596 18.5382 10.7159 18.655 10.7822C18.771 10.8439 18.8833 10.9048 18.9902 10.9765C18.9948 10.9812 18.9993 10.9812 19.0039 10.9858C19.1199 11.0567 19.2321 11.1323 19.3391 11.2133C19.4506 11.2888 19.5575 11.3744 19.6606 11.4593C19.1904 11.5772 18.7293 11.7338 18.2925 11.9281C17.911 12.0985 17.5386 12.2928 17.1845 12.5196C16.4306 12.9884 15.7557 13.5752 15.1785 14.2515C14.7546 14.7481 14.3822 15.2925 14.075 15.8747C13.7633 16.4708 13.5116 17.1101 13.3394 17.7771C13.237 18.175 13.1627 18.5821 13.1157 19.0032C13.074 19.3394 13.055 19.6802 13.055 20.0257V20.0241Z" stroke="white" stroke-width="2" stroke-linejoin="round" mask="url(#path-1-inside-1_528_1978)"/>
</g>
<path id="Vector_2" d="M15.3388 4.92245C15.3308 4.04526 15.0479 3.23441 14.5776 2.57592C14.5693 2.56702 14.5623 2.5591 14.5569 2.55269C14.5544 2.5497 14.5521 2.54694 14.5502 2.54462C14.5324 2.52427 14.5164 2.50262 14.5022 2.47991C14.4939 2.4692 14.4859 2.45885 14.4783 2.44894L14.4776 2.44812C14.4607 2.4262 14.4453 2.40638 14.4293 2.38608C13.9817 1.835 13.3948 1.40772 12.7244 1.16099L12.7242 1.1609C12.3043 1.00608 11.8509 0.921875 11.3751 0.921875C9.19195 0.921875 7.41113 2.72051 7.41113 4.96071C7.41113 5.03554 7.41488 5.11642 7.41942 5.20657C7.4276 5.33293 7.43965 5.45435 7.45613 5.57514C7.47643 5.69226 7.50144 5.8111 7.52874 5.94012C7.56651 6.09901 7.61068 6.24598 7.66617 6.39101C7.6964 6.46962 7.72629 6.54311 7.76035 6.62154L7.765 6.63227L7.76488 6.63232C7.7888 6.69114 7.81588 6.74695 7.85085 6.80756C7.85636 6.81712 7.86156 6.82686 7.86643 6.83676C7.94658 6.99975 8.0366 7.15096 8.14055 7.29267C8.15689 7.31338 8.17051 7.33248 8.17778 7.34266L8.17884 7.34414C8.18963 7.35926 8.19152 7.36179 8.19171 7.36203L8.19172 7.36205C8.19636 7.3679 8.20087 7.37386 8.20525 7.37992C8.21428 7.39242 8.22232 7.4036 8.22983 7.41404C8.24757 7.43872 8.26235 7.45927 8.28026 7.48338L7.87885 7.78148L8.27963 7.48253C8.36298 7.59427 8.46164 7.7034 8.57509 7.81876L8.57687 7.82057L8.57687 7.82057C8.64248 7.88797 8.71518 7.95704 8.78445 8.01595L8.79467 8.02463L8.79455 8.02477C8.86435 8.08743 8.93536 8.14412 9.0162 8.20454L9.02801 8.21365C9.05389 8.23422 9.08326 8.25524 9.1254 8.28541C9.13108 8.28948 9.13699 8.29371 9.14315 8.29813C9.14507 8.2995 9.14697 8.30088 9.14886 8.30228C9.16529 8.31276 9.18111 8.3242 9.19622 8.33655C9.19779 8.33783 9.203 8.34186 9.2153 8.34947C9.22863 8.35772 9.2444 8.36663 9.27063 8.38114C9.28706 8.39023 9.30298 8.40025 9.31829 8.41113C9.38003 8.45503 9.44712 8.49123 9.54901 8.54585C9.56463 8.55379 9.57899 8.56114 9.59234 8.56797C9.66001 8.60259 9.70154 8.62383 9.74724 8.64183C9.76071 8.64714 9.77394 8.65303 9.7869 8.65948C9.79939 8.6657 9.81123 8.67183 9.81925 8.67599L9.82115 8.67697L9.83889 8.68604L15.3388 4.92245ZM15.3388 4.92245C15.3379 4.9346 15.3375 4.94685 15.3375 4.95917C15.3375 5.03944 15.3373 5.09923 15.3341 5.15551C15.3328 5.17164 15.3319 5.18632 15.3311 5.19809L15.329 5.23123C15.3284 5.23986 15.328 5.24429 15.3278 5.24585C15.3235 5.269 15.3208 5.29243 15.3197 5.31596C15.3158 5.40706 15.3082 5.48493 15.2955 5.55185C15.2925 5.56738 15.2903 5.58304 15.2888 5.59876C15.2729 5.70524 15.2502 5.81484 15.2222 5.92862L15.2185 5.94517C15.2032 6.01776 15.1853 6.08445 15.1633 6.15083L15.1632 6.1508L15.1606 6.15937C15.1342 6.24415 15.1097 6.31791 15.0823 6.38979C15.0517 6.46944 15.0221 6.54278 14.9889 6.61848L14.9887 6.61841L14.9837 6.63077C14.9598 6.6896 14.9327 6.74541 14.8977 6.80602C14.892 6.81604 14.8865 6.82626 14.8815 6.83666C14.8422 6.91721 14.7988 6.99621 14.7523 7.07091L14.7523 7.07086L14.7472 7.07928C14.6542 7.23554 14.5472 7.38627 14.4298 7.53138C14.4117 7.55364 14.3929 7.57562 14.3689 7.60358L14.3673 7.60547C14.3477 7.62826 14.3245 7.65536 14.3005 7.68453C14.1327 7.86674 13.9567 8.0324 13.7665 8.18025L13.7664 8.18013L13.7569 8.18793C13.7066 8.22904 13.6487 8.26982 13.5747 8.31854L13.5744 8.31874C13.5646 8.32521 13.5566 8.33056 13.5497 8.33512C13.5304 8.34794 13.5203 8.35463 13.5065 8.36278C13.4991 8.36718 13.4918 8.37177 13.4846 8.37655C13.3911 8.43856 13.2988 8.49304 13.2063 8.53828C13.2004 8.54112 13.1947 8.54408 13.189 8.54715C13.1128 8.58813 13.0558 8.61803 13.005 8.64015C12.9591 8.65747 12.9196 8.67787 12.8922 8.69338C12.8233 8.72063 12.7611 8.74458 12.7012 8.76504L12.7012 8.76493L12.691 8.76868C12.6355 8.78899 12.579 8.80762 12.5251 8.82251C12.5162 8.82497 12.5074 8.82767 12.4986 8.83062C12.4065 8.86165 12.3073 8.88795 12.2011 8.91211C12.1563 8.91641 12.1193 8.92357 12.0994 8.9276C12.0679 8.93388 12.0441 8.93888 12.0244 8.943C11.9862 8.95101 11.9639 8.9557 11.932 8.95993C11.8234 8.9742 11.7258 8.98543 11.6297 8.98912L11.6297 8.98909L11.6241 8.98937L11.6141 8.98986C11.5224 8.99441 11.4501 8.99801 11.3743 8.99801C11.2961 8.99801 11.2209 8.99415 11.1303 8.98943C11.1217 8.98898 11.113 8.98875 11.1043 8.98875C11.1034 8.98875 11.1022 8.98874 11.1004 8.98866C11.098 8.98856 11.0945 8.98834 11.0897 8.9879C11.0802 8.98704 11.0699 8.9858 11.05 8.98333C11.0398 8.98206 11.0296 8.9811 11.0193 8.98046C10.9722 8.97753 10.9279 8.97163 10.8637 8.96307C10.8605 8.96264 10.8573 8.96221 10.854 8.96177C10.8263 8.95672 10.7999 8.95282 10.7837 8.95043C10.7811 8.95005 10.7788 8.94971 10.7767 8.94941C10.7566 8.94641 10.7506 8.94524 10.7506 8.94527C10.7506 8.94528 10.751 8.94537 10.7517 8.94553C10.7268 8.93955 10.7015 8.93548 10.6759 8.93338C10.6525 8.93145 10.6303 8.92779 10.5981 8.91937C10.5787 8.9143 10.559 8.9104 10.5391 8.9077C10.5383 8.90755 10.5375 8.9074 10.5367 8.90725C10.5035 8.89582 10.4691 8.88789 10.4341 8.88365C10.4227 8.88007 10.4016 8.87358 10.3755 8.8674C10.3632 8.86414 10.3524 8.86172 10.3438 8.85994C10.338 8.85874 10.3328 8.85774 10.3285 8.85695C10.1734 8.81629 10.0197 8.76375 9.87646 8.70088C9.86444 8.69561 9.85222 8.69081 9.83983 8.68649L15.3388 4.92245ZM10.5084 8.90179C10.5083 8.90176 10.5083 8.90177 10.5085 8.90181L10.5084 8.90179ZM10.3129 8.85427L10.3131 8.8543L10.3129 8.85427ZM9.1065 8.27808C9.09855 8.27404 9.10317 8.27568 9.11524 8.28263C9.11235 8.28109 9.10943 8.27957 9.1065 8.27808ZM14.5438 2.53664L14.5442 2.53722L14.5438 2.53664Z" stroke="white" stroke-linejoin="round"/>
<g id="Vector_3">
<mask id="path-3-inside-2_528_1978" fill="white">
<path d="M53.1646 16.2417V31.5293C53.1646 31.5809 53.1601 31.638 53.1555 31.6904C53.1366 31.9032 53.0721 32.1068 52.9743 32.2865C52.9508 32.3289 52.928 32.3713 52.9 32.4145C52.8863 32.4384 52.8674 32.4662 52.8438 32.4901C52.8249 32.5186 52.8021 32.5425 52.7832 32.5656C52.7642 32.5895 52.746 32.6081 52.7271 32.632C52.6853 32.6744 52.6383 32.7222 52.5921 32.76C52.5549 32.7931 52.5132 32.8217 52.4707 32.8502C52.3918 32.9072 52.3077 32.9543 52.2197 32.9921C52.2151 32.9921 52.2106 32.9967 52.206 32.9967C52.1689 33.0106 52.1317 33.0252 52.0946 33.0391C52.0574 33.053 52.0248 33.063 51.9876 33.0723C51.9831 33.0723 51.9785 33.0769 51.974 33.0769C51.9459 33.0862 51.9178 33.0908 51.8852 33.0962C51.8481 33.1054 51.8018 33.1101 51.7593 33.1155C51.7078 33.1201 51.657 33.1247 51.6008 33.1247H49.4364V18.249H48.543V50.2622C48.543 51.2137 47.7793 51.9941 46.8442 51.9941H43.0689V33.2705H42.18V51.9941H38.41C37.4696 51.9941 36.7014 51.213 36.7014 50.2622V41.4397H37.5394C39.4149 41.4397 40.9469 39.8828 40.9469 37.9751V20.0233C40.9469 19.6778 40.9279 19.337 40.8862 19.0008C40.8399 18.5798 40.7649 18.1726 40.6625 17.7747C40.4903 17.1077 40.2385 16.4684 39.9268 15.8724C39.6197 15.2902 39.2473 14.7457 38.8234 14.2491C38.2462 13.5721 37.5667 12.9853 36.8129 12.5126C36.4594 12.2905 36.0916 12.0962 35.7094 11.9257C35.2672 11.7314 34.8107 11.5756 34.3359 11.4569C34.4383 11.3721 34.5453 11.2865 34.6575 11.2109C34.7644 11.1307 34.8759 11.0544 34.9927 10.9834C34.9973 10.9788 35.0018 10.9788 35.0064 10.9742C35.0526 10.9456 35.0996 10.9125 35.1505 10.8893C35.1596 10.8847 35.1641 10.8801 35.174 10.8747C35.2301 10.8415 35.2854 10.8084 35.3416 10.7798C35.4629 10.7135 35.5835 10.6565 35.7094 10.6002C35.7746 10.5716 35.8444 10.5385 35.9142 10.51C35.9331 10.5053 35.9513 10.4961 35.9703 10.4907C36.0165 10.4714 36.0636 10.4575 36.1144 10.4382C36.1887 10.4097 36.263 10.3812 36.3427 10.358C36.4966 10.311 36.6544 10.2678 36.8129 10.23C36.9152 10.2061 37.0176 10.1876 37.1246 10.1683C37.208 10.1545 37.2922 10.1398 37.3756 10.1306C37.4272 10.1213 37.478 10.1167 37.5341 10.1113C37.6319 10.0974 37.7298 10.092 37.8321 10.0874C37.9345 10.0828 38.0369 10.0781 38.1438 10.0781H39.4938C39.6333 10.1683 39.7774 10.2485 39.9268 10.3241C40.0292 10.3812 40.1316 10.4282 40.234 10.4753C40.3409 10.5223 40.4479 10.5655 40.5555 10.6079C40.6488 10.6457 40.7421 10.6788 40.8346 10.7027C40.8536 10.712 40.8763 10.722 40.8999 10.7266C40.9742 10.7505 41.0485 10.7737 41.1236 10.7883C41.1698 10.8076 41.2214 10.8215 41.2722 10.8307C41.3375 10.8446 41.4027 10.8639 41.4679 10.8732C41.5468 10.8924 41.6264 10.9063 41.7098 10.9156C41.7424 10.9248 41.7796 10.9294 41.8122 10.9348C41.9191 10.9487 42.0261 10.9634 42.1383 10.9726C42.1664 10.9726 42.1944 10.9773 42.2217 10.9773C42.3522 10.9865 42.4872 10.9911 42.6222 10.9911C42.7572 10.9911 42.8785 10.9865 43.0082 10.9773C43.0454 10.9773 43.0871 10.9726 43.1242 10.968C43.213 10.9634 43.2964 10.9541 43.3806 10.9395C43.4412 10.9348 43.5019 10.9256 43.5618 10.9109C43.6225 10.9017 43.6832 10.8917 43.7431 10.8778C43.8174 10.8685 43.8917 10.8492 43.9668 10.8307C44.1716 10.7837 44.3763 10.722 44.572 10.6557C44.5857 10.6511 44.6001 10.6464 44.6137 10.6418C44.6698 10.6179 44.7252 10.5994 44.7768 10.5755C45.0005 10.4853 45.2144 10.3866 45.4237 10.2678C45.4282 10.2632 45.4373 10.2632 45.4427 10.2586C45.5496 10.2015 45.652 10.1406 45.7498 10.0789H47.1043C47.2112 10.0789 47.3136 10.0835 47.416 10.0881C47.5002 10.0928 47.5791 10.0974 47.6579 10.1074C47.7232 10.1121 47.7838 10.1167 47.8445 10.1267C47.8581 10.1267 47.8726 10.1313 47.8862 10.1313C47.9696 10.1406 48.0538 10.1552 48.1372 10.1691C48.1509 10.1737 48.1653 10.1737 48.1835 10.1784C48.2813 10.1969 48.3792 10.2162 48.477 10.2401C48.5794 10.264 48.6818 10.2917 48.7841 10.3249H48.7932C48.8304 10.3341 48.863 10.3442 48.9002 10.358C48.9654 10.3773 49.0306 10.4005 49.0913 10.4244C49.1982 10.4621 49.3006 10.5046 49.403 10.5423C49.4864 10.5801 49.5706 10.6179 49.654 10.6557C49.6631 10.6603 49.6775 10.6649 49.6866 10.6696C49.6912 10.6742 49.7003 10.6742 49.7056 10.6788C49.7109 10.6835 49.7147 10.6835 49.7246 10.6881C49.9202 10.7829 50.1106 10.8917 50.2971 11.0096C50.395 11.0713 50.4837 11.133 50.5762 11.1939C50.5853 11.2032 50.5997 11.2078 50.6088 11.2178C50.6088 11.2225 50.6134 11.2225 50.6134 11.2225C50.6134 11.2225 50.618 11.2225 50.618 11.2271C50.6923 11.2795 50.7666 11.3358 50.8417 11.3975C50.9304 11.4685 51.0138 11.5394 51.098 11.615C51.1814 11.6859 51.2611 11.7615 51.3399 11.8425C51.4188 11.9227 51.4985 12.0036 51.5728 12.0838C51.6425 12.164 51.7123 12.245 51.7775 12.3252C51.8238 12.3822 51.8708 12.4385 51.908 12.4956C51.9497 12.5527 51.9914 12.609 52.0339 12.666C52.0756 12.7277 52.1173 12.7894 52.1598 12.8503C52.2386 12.9683 52.3084 13.087 52.3782 13.2097C52.3827 13.2143 52.3827 13.2189 52.3873 13.2235C52.3873 13.2235 52.3873 13.2282 52.3918 13.2282C52.4154 13.2752 52.4434 13.323 52.4662 13.3747C52.4707 13.3793 52.4707 13.3839 52.4753 13.3886C52.5079 13.4502 52.5359 13.5119 52.564 13.5729C52.6057 13.6577 52.6429 13.7433 52.68 13.8281C52.7081 13.8898 52.7362 13.9515 52.7544 14.0178C52.768 14.0417 52.7779 14.0702 52.787 14.0934C52.7915 14.1026 52.7915 14.1126 52.7961 14.1219C52.8287 14.2167 52.8613 14.3108 52.8893 14.4103C52.922 14.5051 52.9455 14.5992 52.9682 14.6941C52.9872 14.7511 53.0008 14.8074 53.0099 14.8691C53.0334 14.9539 53.0516 15.0442 53.0661 15.1344C53.0941 15.2902 53.1176 15.4467 53.1313 15.6079C53.1404 15.712 53.1502 15.8161 53.1548 15.9202C53.1593 16.0243 53.1639 16.1284 53.1639 16.2371L53.1646 16.2417Z"/>
</mask>
<path d="M53.1646 16.2417V31.5293C53.1646 31.5809 53.1601 31.638 53.1555 31.6904C53.1366 31.9032 53.0721 32.1068 52.9743 32.2865C52.9508 32.3289 52.928 32.3713 52.9 32.4145C52.8863 32.4384 52.8674 32.4662 52.8438 32.4901C52.8249 32.5186 52.8021 32.5425 52.7832 32.5656C52.7642 32.5895 52.746 32.6081 52.7271 32.632C52.6853 32.6744 52.6383 32.7222 52.5921 32.76C52.5549 32.7931 52.5132 32.8217 52.4707 32.8502C52.3918 32.9072 52.3077 32.9543 52.2197 32.9921C52.2151 32.9921 52.2106 32.9967 52.206 32.9967C52.1689 33.0106 52.1317 33.0252 52.0946 33.0391C52.0574 33.053 52.0248 33.063 51.9876 33.0723C51.9831 33.0723 51.9785 33.0769 51.974 33.0769C51.9459 33.0862 51.9178 33.0908 51.8852 33.0962C51.8481 33.1054 51.8018 33.1101 51.7593 33.1155C51.7078 33.1201 51.657 33.1247 51.6008 33.1247H49.4364V18.249H48.543V50.2622C48.543 51.2137 47.7793 51.9941 46.8442 51.9941H43.0689V33.2705H42.18V51.9941H38.41C37.4696 51.9941 36.7014 51.213 36.7014 50.2622V41.4397H37.5394C39.4149 41.4397 40.9469 39.8828 40.9469 37.9751V20.0233C40.9469 19.6778 40.9279 19.337 40.8862 19.0008C40.8399 18.5798 40.7649 18.1726 40.6625 17.7747C40.4903 17.1077 40.2385 16.4684 39.9268 15.8724C39.6197 15.2902 39.2473 14.7457 38.8234 14.2491C38.2462 13.5721 37.5667 12.9853 36.8129 12.5126C36.4594 12.2905 36.0916 12.0962 35.7094 11.9257C35.2672 11.7314 34.8107 11.5756 34.3359 11.4569C34.4383 11.3721 34.5453 11.2865 34.6575 11.2109C34.7644 11.1307 34.8759 11.0544 34.9927 10.9834C34.9973 10.9788 35.0018 10.9788 35.0064 10.9742C35.0526 10.9456 35.0996 10.9125 35.1505 10.8893C35.1596 10.8847 35.1641 10.8801 35.174 10.8747C35.2301 10.8415 35.2854 10.8084 35.3416 10.7798C35.4629 10.7135 35.5835 10.6565 35.7094 10.6002C35.7746 10.5716 35.8444 10.5385 35.9142 10.51C35.9331 10.5053 35.9513 10.4961 35.9703 10.4907C36.0165 10.4714 36.0636 10.4575 36.1144 10.4382C36.1887 10.4097 36.263 10.3812 36.3427 10.358C36.4966 10.311 36.6544 10.2678 36.8129 10.23C36.9152 10.2061 37.0176 10.1876 37.1246 10.1683C37.208 10.1545 37.2922 10.1398 37.3756 10.1306C37.4272 10.1213 37.478 10.1167 37.5341 10.1113C37.6319 10.0974 37.7298 10.092 37.8321 10.0874C37.9345 10.0828 38.0369 10.0781 38.1438 10.0781H39.4938C39.6333 10.1683 39.7774 10.2485 39.9268 10.3241C40.0292 10.3812 40.1316 10.4282 40.234 10.4753C40.3409 10.5223 40.4479 10.5655 40.5555 10.6079C40.6488 10.6457 40.7421 10.6788 40.8346 10.7027C40.8536 10.712 40.8763 10.722 40.8999 10.7266C40.9742 10.7505 41.0485 10.7737 41.1236 10.7883C41.1698 10.8076 41.2214 10.8215 41.2722 10.8307C41.3375 10.8446 41.4027 10.8639 41.4679 10.8732C41.5468 10.8924 41.6264 10.9063 41.7098 10.9156C41.7424 10.9248 41.7796 10.9294 41.8122 10.9348C41.9191 10.9487 42.0261 10.9634 42.1383 10.9726C42.1664 10.9726 42.1944 10.9773 42.2217 10.9773C42.3522 10.9865 42.4872 10.9911 42.6222 10.9911C42.7572 10.9911 42.8785 10.9865 43.0082 10.9773C43.0454 10.9773 43.0871 10.9726 43.1242 10.968C43.213 10.9634 43.2964 10.9541 43.3806 10.9395C43.4412 10.9348 43.5019 10.9256 43.5618 10.9109C43.6225 10.9017 43.6832 10.8917 43.7431 10.8778C43.8174 10.8685 43.8917 10.8492 43.9668 10.8307C44.1716 10.7837 44.3763 10.722 44.572 10.6557C44.5857 10.6511 44.6001 10.6464 44.6137 10.6418C44.6698 10.6179 44.7252 10.5994 44.7768 10.5755C45.0005 10.4853 45.2144 10.3866 45.4237 10.2678C45.4282 10.2632 45.4373 10.2632 45.4427 10.2586C45.5496 10.2015 45.652 10.1406 45.7498 10.0789H47.1043C47.2112 10.0789 47.3136 10.0835 47.416 10.0881C47.5002 10.0928 47.5791 10.0974 47.6579 10.1074C47.7232 10.1121 47.7838 10.1167 47.8445 10.1267C47.8581 10.1267 47.8726 10.1313 47.8862 10.1313C47.9696 10.1406 48.0538 10.1552 48.1372 10.1691C48.1509 10.1737 48.1653 10.1737 48.1835 10.1784C48.2813 10.1969 48.3792 10.2162 48.477 10.2401C48.5794 10.264 48.6818 10.2917 48.7841 10.3249H48.7932C48.8304 10.3341 48.863 10.3442 48.9002 10.358C48.9654 10.3773 49.0306 10.4005 49.0913 10.4244C49.1982 10.4621 49.3006 10.5046 49.403 10.5423C49.4864 10.5801 49.5706 10.6179 49.654 10.6557C49.6631 10.6603 49.6775 10.6649 49.6866 10.6696C49.6912 10.6742 49.7003 10.6742 49.7056 10.6788C49.7109 10.6835 49.7147 10.6835 49.7246 10.6881C49.9202 10.7829 50.1106 10.8917 50.2971 11.0096C50.395 11.0713 50.4837 11.133 50.5762 11.1939C50.5853 11.2032 50.5997 11.2078 50.6088 11.2178C50.6088 11.2225 50.6134 11.2225 50.6134 11.2225C50.6134 11.2225 50.618 11.2225 50.618 11.2271C50.6923 11.2795 50.7666 11.3358 50.8417 11.3975C50.9304 11.4685 51.0138 11.5394 51.098 11.615C51.1814 11.6859 51.2611 11.7615 51.3399 11.8425C51.4188 11.9227 51.4985 12.0036 51.5728 12.0838C51.6425 12.164 51.7123 12.245 51.7775 12.3252C51.8238 12.3822 51.8708 12.4385 51.908 12.4956C51.9497 12.5527 51.9914 12.609 52.0339 12.666C52.0756 12.7277 52.1173 12.7894 52.1598 12.8503C52.2386 12.9683 52.3084 13.087 52.3782 13.2097C52.3827 13.2143 52.3827 13.2189 52.3873 13.2235C52.3873 13.2235 52.3873 13.2282 52.3918 13.2282C52.4154 13.2752 52.4434 13.323 52.4662 13.3747C52.4707 13.3793 52.4707 13.3839 52.4753 13.3886C52.5079 13.4502 52.5359 13.5119 52.564 13.5729C52.6057 13.6577 52.6429 13.7433 52.68 13.8281C52.7081 13.8898 52.7362 13.9515 52.7544 14.0178C52.768 14.0417 52.7779 14.0702 52.787 14.0934C52.7915 14.1026 52.7915 14.1126 52.7961 14.1219C52.8287 14.2167 52.8613 14.3108 52.8893 14.4103C52.922 14.5051 52.9455 14.5992 52.9682 14.6941C52.9872 14.7511 53.0008 14.8074 53.0099 14.8691C53.0334 14.9539 53.0516 15.0442 53.0661 15.1344C53.0941 15.2902 53.1176 15.4467 53.1313 15.6079C53.1404 15.712 53.1502 15.8161 53.1548 15.9202C53.1593 16.0243 53.1639 16.1284 53.1639 16.2371L53.1646 16.2417Z" stroke="white" stroke-width="2" stroke-linejoin="round" mask="url(#path-3-inside-2_528_1978)"/>
</g>
<g id="Vector_4">
<mask id="path-4-inside-3_528_1978" fill="white">
<path d="M47.0855 4.95917C47.0855 5.03937 47.0855 5.11571 47.081 5.19128C47.0764 5.23369 47.0764 5.2761 47.0719 5.31389C47.0673 5.35167 47.0673 5.38946 47.0628 5.42724C47.0582 5.49356 47.0491 5.55988 47.0392 5.62619C47.0157 5.76808 46.9877 5.90997 46.9558 6.04723C46.9369 6.13745 46.9141 6.22227 46.886 6.3071C46.858 6.39732 46.8299 6.48214 46.7973 6.56774C46.7647 6.65256 46.7321 6.73353 46.6949 6.81835C46.6714 6.87541 46.6434 6.92708 46.6161 6.98414C46.5137 7.19697 46.3976 7.39592 46.2626 7.58485C46.2255 7.64191 46.1838 7.6982 46.1413 7.75064C45.9085 8.05369 45.6385 8.32821 45.3359 8.56032C45.2661 8.61738 45.1918 8.66905 45.1175 8.72148C45.0758 8.75464 45.0287 8.78318 44.9825 8.81171C44.8846 8.8734 44.7823 8.93509 44.6799 8.98675C44.5957 9.02916 44.5168 9.07158 44.4334 9.10473C44.4099 9.11861 44.3818 9.12864 44.3591 9.14252C44.3174 9.1618 44.2703 9.1803 44.2241 9.19496C44.0701 9.25665 43.9078 9.30831 43.7448 9.35612C43.7167 9.36075 43.6841 9.37 43.656 9.3754C43.6469 9.38002 43.6325 9.38002 43.628 9.38002C43.6189 9.38465 43.609 9.38928 43.5999 9.38928C43.5863 9.3939 43.5719 9.3939 43.5537 9.39853C43.5446 9.40316 43.5347 9.40316 43.5256 9.40316C43.4695 9.41704 43.4187 9.42706 43.3625 9.43169C43.3436 9.43632 43.3208 9.44094 43.3019 9.44557C43.204 9.45945 43.1062 9.4741 43.0084 9.47873C42.9712 9.48336 42.934 9.48798 42.8923 9.48798C42.8036 9.49261 42.7156 9.49724 42.6223 9.49724C42.5291 9.49724 42.4411 9.49261 42.3478 9.48798C42.2363 9.48336 42.1241 9.46948 42.0171 9.45482C41.9428 9.44557 41.873 9.43092 41.7987 9.41704C41.7752 9.41241 41.7525 9.40778 41.7244 9.40778C41.7153 9.40316 41.7108 9.40316 41.7054 9.40316C41.6774 9.39853 41.6493 9.38928 41.6167 9.37925C41.5795 9.37 41.5424 9.36075 41.5052 9.35535C41.4491 9.34147 41.3937 9.32219 41.3376 9.30368C41.2678 9.2844 41.1981 9.26127 41.1329 9.23737C41.0494 9.20884 40.9698 9.17568 40.8864 9.14252C40.8629 9.12864 40.8348 9.11861 40.812 9.10473C40.7286 9.07158 40.649 9.02916 40.5701 8.98675C40.3464 8.8734 40.1325 8.73151 39.9278 8.5796C39.9278 8.57651 39.9262 8.57497 39.9232 8.57497C39.8208 8.49477 39.7184 8.40918 39.6206 8.31973C39.6206 8.3151 39.6161 8.3151 39.6115 8.31048C39.4067 8.12155 39.2255 7.91335 39.0579 7.68587C39.0533 7.68124 39.0488 7.68124 39.0488 7.67661C38.9699 7.56788 38.8948 7.45915 38.825 7.3404C38.8205 7.3404 38.825 7.33577 38.825 7.33577C38.7833 7.26483 38.7416 7.19389 38.6992 7.12294C38.6059 6.9479 38.5225 6.76823 38.4527 6.57853C38.4201 6.48831 38.3875 6.39886 38.3594 6.30864C38.3313 6.22381 38.3078 6.13822 38.2896 6.04877C38.2244 5.78813 38.1827 5.51361 38.1683 5.23446C38.1637 5.14424 38.1592 5.05016 38.1592 4.95994C38.1592 4.84196 38.1637 4.72783 38.1728 4.61448V4.60522C38.1819 4.49187 38.1963 4.38314 38.21 4.26901C38.2335 4.13175 38.2563 3.99912 38.2889 3.86649C38.4375 3.25576 38.7075 2.69284 39.0753 2.21011V2.20549C39.2058 2.03044 39.3544 1.86465 39.5084 1.71351C39.5827 1.63794 39.657 1.57162 39.7321 1.5053C39.8019 1.44361 39.8762 1.38192 39.9505 1.32101C40.1416 1.17912 40.3365 1.05111 40.5466 0.942384C40.63 0.895345 40.7188 0.852163 40.8075 0.814378C40.9008 0.771966 40.9933 0.73418 41.0866 0.696395C41.0957 0.696395 41.1002 0.691768 41.1055 0.691768C41.2079 0.653983 41.3149 0.620826 41.4218 0.587667C41.4499 0.578414 41.4779 0.573787 41.5052 0.563763C41.6167 0.535231 41.729 0.511325 41.845 0.492818C41.9709 0.468913 42.096 0.450407 42.2265 0.441153C42.3569 0.427273 42.4873 0.421875 42.6223 0.421875C45.0894 0.421875 47.0863 2.45224 47.0863 4.96071L47.0855 4.95917Z"/>
</mask>
<path d="M47.0855 4.95917L47.9826 4.51735C47.7772 4.10028 47.3115 3.87978 46.8587 3.98523C46.4059 4.09068 46.0855 4.49427 46.0855 4.95917H47.0855ZM47.081 5.19128L48.0753 5.29796C48.0769 5.28246 48.0782 5.26694 48.0791 5.25138L47.081 5.19128ZM47.0628 5.42724L46.0699 5.30768C46.0679 5.32467 46.0663 5.34171 46.0651 5.35879L47.0628 5.42724ZM47.0392 5.62619L48.0258 5.78966C48.0267 5.7842 48.0276 5.77872 48.0284 5.77324L47.0392 5.62619ZM46.9558 6.04723L45.9817 5.82117C45.9801 5.82796 45.9786 5.83476 45.9772 5.84157L46.9558 6.04723ZM46.886 6.3071L45.9366 5.99302C45.9348 5.9987 45.9329 6.0044 45.9312 6.01011L46.886 6.3071ZM46.7973 6.56774L47.7307 6.92659L47.7318 6.92376L46.7973 6.56774ZM46.6949 6.81835L45.779 6.41707C45.776 6.42382 45.7731 6.4306 45.7703 6.43741L46.6949 6.81835ZM46.6161 6.98414L47.5172 7.41765L47.5181 7.41574L46.6161 6.98414ZM46.2626 7.58485L45.449 7.00347C45.4406 7.01518 45.4325 7.02707 45.4247 7.03913L46.2626 7.58485ZM46.1413 7.75064L45.3642 7.12125C45.3588 7.1279 45.3535 7.13462 45.3483 7.1414L46.1413 7.75064ZM45.3359 8.56032L44.7273 7.76686C44.719 7.77319 44.7109 7.77965 44.7028 7.78624L45.3359 8.56032ZM45.1175 8.72148L44.541 7.90438C44.5254 7.91538 44.5101 7.92682 44.4952 7.93869L45.1175 8.72148ZM44.9825 8.81171L44.4575 7.96052L44.4491 7.96583L44.9825 8.81171ZM44.6799 8.98675L45.1298 9.87981L45.1304 9.87952L44.6799 8.98675ZM44.4334 9.10473L44.064 8.17545C44.016 8.19454 43.9695 8.21733 43.925 8.24361L44.4334 9.10473ZM44.3591 9.14252L44.7786 10.0503C44.8134 10.0342 44.8472 10.0161 44.8799 9.99619L44.3591 9.14252ZM44.2241 9.19496L43.9222 8.24162C43.8985 8.24911 43.8751 8.25748 43.8521 8.2667L44.2241 9.19496ZM43.7448 9.35612L43.9075 10.3428C43.9475 10.3362 43.9872 10.3271 44.0261 10.3157L43.7448 9.35612ZM43.656 9.3754L43.4671 8.3934C43.3752 8.41108 43.2863 8.44157 43.2028 8.48398L43.656 9.3754ZM43.628 9.38002V8.38003C43.4705 8.38003 43.3152 8.41723 43.1748 8.48861L43.628 9.38002ZM43.5999 9.38928V8.38928C43.4907 8.38928 43.3823 8.40715 43.2789 8.4422L43.5999 9.38928ZM43.5537 9.39853L43.3073 8.42935C43.2357 8.44755 43.1663 8.47363 43.1005 8.50712L43.5537 9.39853ZM43.5256 9.40316V8.40316C43.4447 8.40316 43.3641 8.41298 43.2855 8.43241L43.5256 9.40316ZM43.3625 9.43169L43.2804 8.43507C43.2282 8.43937 43.1764 8.44778 43.1255 8.4602L43.3625 9.43169ZM43.3019 9.44557L43.4423 10.4357C43.4748 10.431 43.5071 10.4248 43.5389 10.4171L43.3019 9.44557ZM43.0084 9.47873L42.9611 8.47985C42.9356 8.48105 42.9102 8.48324 42.8848 8.48639L43.0084 9.47873ZM42.8923 9.48798V8.48798C42.875 8.48798 42.8576 8.48843 42.8403 8.48934L42.8923 9.48798ZM42.3478 9.48798L42.3973 8.48918L42.3893 8.48884L42.3478 9.48798ZM42.0171 9.45482L42.1529 8.46401L42.1407 8.46249L42.0171 9.45482ZM41.7987 9.41704L41.6056 10.3983L41.6151 10.4L41.7987 9.41704ZM41.7244 9.40778L41.2712 10.2992C41.4116 10.3706 41.5669 10.4078 41.7244 10.4078V9.40778ZM41.7054 9.40316L41.5428 10.3898C41.5965 10.3987 41.6509 10.4032 41.7054 10.4032V9.40316ZM41.6167 9.37925L41.9105 8.4234C41.8933 8.41809 41.8759 8.41325 41.8583 8.40888L41.6167 9.37925ZM41.5052 9.35535L41.2651 10.3261C41.2969 10.334 41.3291 10.3403 41.3615 10.345L41.5052 9.35535ZM41.3376 9.30368L41.6508 8.35399C41.6353 8.34888 41.6197 8.34414 41.6039 8.3398L41.3376 9.30368ZM41.1329 9.23737L41.477 8.29844C41.4702 8.29595 41.4633 8.29352 41.4565 8.29117L41.1329 9.23737ZM40.8864 9.14252L40.378 10.0036C40.4225 10.0299 40.469 10.0527 40.517 10.0718L40.8864 9.14252ZM40.812 9.10473L41.3329 8.25106C41.2846 8.22162 41.2339 8.19633 41.1814 8.17545L40.812 9.10473ZM40.5701 8.98675L41.0437 8.10601C41.0366 8.10216 41.0293 8.09839 41.0221 8.09472L40.5701 8.98675ZM39.9278 8.5796H38.9278C38.9278 8.89619 39.0777 9.19409 39.3319 9.38272L39.9278 8.5796ZM39.9232 8.57497L39.3066 9.36221C39.4826 9.50006 39.6997 9.57497 39.9232 9.57497V8.57497ZM39.6206 8.31973H38.6206C38.6206 8.60048 38.7386 8.8683 38.9458 9.05775L39.6206 8.31973ZM39.6115 8.31048L40.3245 7.60928C40.3131 7.59774 40.3015 7.58648 40.2896 7.57551L39.6115 8.31048ZM39.0579 7.68587L39.863 7.09269C39.8348 7.05455 39.8041 7.01845 39.7708 6.98467L39.0579 7.68587ZM39.0488 7.67661H40.0488C40.0488 7.46568 39.9821 7.26016 39.8582 7.08942L39.0488 7.67661ZM38.825 7.3404L39.6872 6.83382C39.5076 6.52813 39.1796 6.3404 38.825 6.3404V7.3404ZM38.825 7.33577L39.538 8.03699C39.8553 7.7144 39.9164 7.21897 39.6871 6.82893L38.825 7.33577ZM38.6992 7.12294L37.8166 7.59324C37.8245 7.60789 37.8326 7.62234 37.8412 7.63659L38.6992 7.12294ZM38.4527 6.57853L37.5122 6.91847L37.5142 6.92373L38.4527 6.57853ZM38.3594 6.30864L39.3143 6.01165C39.3125 6.00594 39.3107 6.00024 39.3088 5.99457L38.3594 6.30864ZM38.2896 6.04877L39.2695 5.84937C39.2666 5.83485 39.2633 5.82039 39.2597 5.80601L38.2896 6.04877ZM38.1683 5.23446L37.1695 5.28483L37.1696 5.28601L38.1683 5.23446ZM38.1728 4.61448L39.1696 4.69451C39.1718 4.66788 39.1728 4.64119 39.1728 4.61448H38.1728ZM38.1728 4.60522L37.176 4.5252C37.1739 4.55182 37.1728 4.57852 37.1728 4.60522H38.1728ZM38.21 4.26901L37.2243 4.10019C37.2215 4.11681 37.2191 4.1335 37.2171 4.15025L38.21 4.26901ZM38.2889 3.86649L39.2599 4.10525L39.2605 4.10297L38.2889 3.86649ZM39.0753 2.21011L39.8707 2.81619C40.0034 2.64201 40.0753 2.42909 40.0753 2.21011H39.0753ZM39.0753 2.20549L38.2735 1.60795C38.1448 1.7806 38.0753 1.99017 38.0753 2.20549H39.0753ZM39.5084 1.71351L40.2089 2.42711C40.2131 2.42301 40.2172 2.41888 40.2213 2.41471L39.5084 1.71351ZM39.7321 1.5053L40.3941 2.2548L40.3945 2.25447L39.7321 1.5053ZM39.9505 1.32101L39.3544 0.518091C39.3416 0.527626 39.329 0.537467 39.3166 0.547606L39.9505 1.32101ZM40.5466 0.942384L41.0063 1.83048C41.0169 1.825 41.0274 1.81932 41.0378 1.81346L40.5466 0.942384ZM40.8075 0.814378L41.1993 1.73443C41.2067 1.73128 41.2141 1.72804 41.2214 1.72471L40.8075 0.814378ZM41.0866 0.696395V-0.303605C40.9579 -0.303605 40.8304 -0.278768 40.7112 -0.230456L41.0866 0.696395ZM41.1055 0.691768V1.69177C41.2237 1.69177 41.3409 1.67083 41.4518 1.62992L41.1055 0.691768ZM41.4218 0.587667L41.718 1.5428C41.7237 1.54104 41.7293 1.53923 41.735 1.53736L41.4218 0.587667ZM41.5052 0.563763L41.2573 -0.405014C41.2246 -0.396637 41.1923 -0.386606 41.1606 -0.37496L41.5052 0.563763ZM41.845 0.492818L42.0025 1.48034C42.0122 1.47879 42.0219 1.4771 42.0315 1.47526L41.845 0.492818ZM42.2265 0.441153L42.2972 1.43865C42.3089 1.43782 42.3206 1.43678 42.3323 1.43554L42.2265 0.441153ZM47.0863 4.96071L46.1892 5.40253C46.3946 5.8196 46.8603 6.0401 47.3131 5.93465C47.7659 5.8292 48.0863 5.42561 48.0863 4.96071H47.0863ZM46.0855 4.95917C46.0855 5.04496 46.0852 5.09082 46.0828 5.13117L48.0791 5.25138C48.0858 5.1406 48.0855 5.03378 48.0855 4.95917H46.0855ZM46.0867 5.0846C46.0837 5.11238 46.0818 5.13688 46.0805 5.15565C46.0793 5.17358 46.0784 5.19068 46.0779 5.19926C46.0776 5.20442 46.0775 5.20758 46.0773 5.21025C46.0772 5.21277 46.0771 5.21364 46.0771 5.2135C46.0771 5.21332 46.0772 5.21149 46.0775 5.20843C46.0778 5.20537 46.0783 5.20054 46.079 5.19432L48.0647 5.43345C48.0684 5.40267 48.0706 5.37575 48.072 5.35601C48.0734 5.33683 48.0744 5.31896 48.0749 5.30938C48.0763 5.28318 48.0762 5.28871 48.0753 5.29796L46.0867 5.0846ZM46.079 5.19432C46.0756 5.22304 46.0734 5.24816 46.072 5.26717C46.0706 5.28534 46.0696 5.30226 46.0691 5.31046C46.0688 5.3155 46.0686 5.31835 46.0685 5.32089C46.0683 5.32322 46.0683 5.324 46.0683 5.32385C46.0683 5.32373 46.0687 5.31751 46.0699 5.30768L48.0556 5.54681C48.059 5.51808 48.0612 5.49297 48.0626 5.47395C48.064 5.45579 48.065 5.43887 48.0655 5.43066C48.0658 5.42563 48.066 5.42278 48.0661 5.42024C48.0663 5.41791 48.0663 5.41713 48.0663 5.41728C48.0663 5.4174 48.0659 5.42362 48.0647 5.43345L46.079 5.19432ZM46.0651 5.35879C46.0634 5.38323 46.0594 5.41666 46.0501 5.47914L48.0284 5.77324C48.0388 5.70309 48.053 5.60389 48.0604 5.4957L46.0651 5.35879ZM46.0527 5.46272C46.0325 5.5844 46.0086 5.7054 45.9817 5.82117L47.9299 6.27328C47.9668 6.11454 47.9989 5.95175 48.0258 5.78966L46.0527 5.46272ZM45.9772 5.84157C45.9656 5.89654 45.9525 5.9451 45.9366 5.99302L47.8354 6.62117C47.8757 6.49944 47.9081 6.37835 47.9344 6.25288L45.9772 5.84157ZM45.9312 6.01011C45.9063 6.09 45.8852 6.1531 45.8628 6.21171L47.7318 6.92376C47.7747 6.81118 47.8097 6.70463 47.8409 6.60408L45.9312 6.01011ZM45.8639 6.20889C45.8351 6.28388 45.8083 6.35003 45.779 6.41707L47.6109 7.21963C47.6558 7.11703 47.6943 7.02124 47.7307 6.92659L45.8639 6.20889ZM45.7703 6.43741C45.771 6.43572 45.7694 6.43998 45.7595 6.45998C45.7541 6.47112 45.7496 6.47999 45.7411 6.49719C45.7336 6.51227 45.7241 6.53147 45.714 6.55254L47.5181 7.41574C47.5296 7.39174 47.5319 7.38799 47.5543 7.34252C47.5712 7.30815 47.5953 7.25804 47.6195 7.19929L45.7703 6.43741ZM45.7149 6.55064C45.6353 6.71612 45.5479 6.86501 45.449 7.00347L47.0763 8.16622C47.2473 7.92683 47.392 7.67783 47.5172 7.41765L45.7149 6.55064ZM45.4247 7.03913C45.4093 7.06266 45.3887 7.09099 45.3642 7.12125L46.9184 8.38003C46.9788 8.30541 47.0416 8.22116 47.1006 8.13056L45.4247 7.03913ZM45.3483 7.1414C45.1649 7.3801 44.956 7.59144 44.7273 7.76686L45.9445 9.35378C46.321 9.06498 46.652 8.72728 46.9343 8.35987L45.3483 7.1414ZM44.7028 7.78624C44.6668 7.81567 44.6262 7.84427 44.541 7.90438L45.694 9.53859C45.7574 9.49383 45.8654 9.41909 45.969 9.3344L44.7028 7.78624ZM44.4952 7.93869C44.5072 7.92915 44.5128 7.92589 44.5053 7.93082C44.5018 7.93307 44.4967 7.93635 44.4884 7.94147C44.4794 7.94709 44.4712 7.95214 44.4575 7.96056L45.5074 9.66285C45.5377 9.64419 45.6415 9.58235 45.7397 9.50428L44.4952 7.93869ZM44.4491 7.96583C44.36 8.02203 44.2891 8.06381 44.2294 8.09398L45.1304 9.87952C45.2754 9.80636 45.4093 9.72476 45.5158 9.65758L44.4491 7.96583ZM44.2299 8.09369C44.1127 8.15273 44.0937 8.16364 44.064 8.17545L44.8028 10.034C44.9399 9.97951 45.0786 9.9056 45.1298 9.87981L44.2299 8.09369ZM43.925 8.24361C43.9478 8.23017 43.9653 8.22136 43.9721 8.21798C43.9778 8.21521 43.9823 8.21314 43.9728 8.21755C43.9674 8.22007 43.9491 8.2286 43.9286 8.23885C43.9074 8.2495 43.8752 8.26628 43.8383 8.28884L44.8799 9.99619C44.8543 10.0118 44.8342 10.0221 44.8253 10.0266C44.8173 10.0306 44.8117 10.0332 44.8191 10.0297C44.8224 10.0281 44.8398 10.0201 44.858 10.0111C44.8774 10.0015 44.9073 9.98624 44.9418 9.96586L43.925 8.24361ZM43.9395 8.23478C43.9376 8.23567 43.9342 8.23714 43.9301 8.23875C43.926 8.24036 43.9231 8.24132 43.9222 8.24162L44.526 10.1483C44.6147 10.1202 44.701 10.0861 44.7786 10.0503L43.9395 8.23478ZM43.8521 8.2667C43.7416 8.31097 43.6145 8.35223 43.4634 8.39652L44.0261 10.3157C44.2012 10.2644 44.3986 10.2023 44.596 10.1232L43.8521 8.2667ZM43.5821 8.36944C43.5539 8.37409 43.5297 8.37904 43.5125 8.38273C43.4954 8.38642 43.4802 8.38997 43.4715 8.39201C43.4599 8.39474 43.4585 8.3951 43.4552 8.39584C43.4533 8.39629 43.4583 8.3951 43.4671 8.3934L43.8449 10.3574C43.8678 10.353 43.8874 10.3486 43.9003 10.3457C43.912 10.343 43.9257 10.3398 43.9293 10.3389C43.9357 10.3374 43.9357 10.3374 43.9335 10.3379C43.9312 10.3384 43.9216 10.3405 43.9075 10.3428L43.5821 8.36944ZM43.2028 8.48398C43.2909 8.43923 43.3676 8.41712 43.4143 8.40587C43.4637 8.39397 43.5048 8.38829 43.532 8.38533C43.5603 8.38225 43.5835 8.38106 43.5991 8.38053C43.6073 8.38025 43.6142 8.38013 43.6195 8.38007C43.6245 8.38002 43.6285 8.38003 43.628 8.38003V10.38C43.6341 10.38 43.6853 10.3805 43.7486 10.3736C43.7922 10.3688 43.942 10.3518 44.1092 10.2668L43.2028 8.48398ZM43.1748 8.48861C43.1766 8.48768 43.1871 8.48232 43.2015 8.47568C43.216 8.46897 43.2398 8.45845 43.2702 8.44732C43.3237 8.42775 43.4424 8.38928 43.5999 8.38928V10.3893C43.7666 10.3893 43.8947 10.3485 43.9577 10.3255C44.0226 10.3017 44.0726 10.2758 44.0812 10.2714L43.1748 8.48861ZM43.2789 8.4422C43.326 8.42624 43.3653 8.41715 43.3902 8.41208C43.4027 8.40955 43.4126 8.40781 43.4186 8.40681C43.4243 8.40585 43.4283 8.40525 43.4277 8.40534C43.427 8.40545 43.4276 8.40535 43.4254 8.40569C43.424 8.4059 43.4216 8.40626 43.4188 8.4067C43.4132 8.40757 43.4045 8.40896 43.394 8.4108C43.3725 8.41457 43.3425 8.42039 43.3073 8.42935L43.8 10.3677C43.7526 10.3798 43.7092 10.3855 43.7293 10.3825C43.7339 10.3818 43.7589 10.378 43.7888 10.372C43.8208 10.3655 43.867 10.3546 43.9209 10.3364L43.2789 8.4422ZM43.1005 8.50712C43.2283 8.44214 43.344 8.41903 43.4185 8.40994C43.4839 8.40197 43.5394 8.40316 43.5256 8.40316V10.4032C43.5261 10.4032 43.5311 10.4032 43.5368 10.4031C43.543 10.4031 43.5522 10.403 43.5633 10.4026C43.5852 10.4019 43.6194 10.4003 43.6607 10.3952C43.7447 10.385 43.8699 10.3595 44.0068 10.2899L43.1005 8.50712ZM43.2855 8.43241C43.2709 8.43602 43.2661 8.43686 43.2667 8.43676C43.2681 8.43649 43.2733 8.43565 43.2804 8.43507L43.4447 10.4283C43.5733 10.4177 43.6805 10.395 43.7657 10.3739L43.2855 8.43241ZM43.1255 8.4602C43.1278 8.45962 43.1285 8.45949 43.1263 8.45998C43.124 8.4605 43.1212 8.46112 43.1156 8.46237C43.1108 8.46343 43.1032 8.46513 43.0953 8.46692C43.0872 8.46874 43.0766 8.47119 43.0648 8.47408L43.5389 10.4171C43.5366 10.4176 43.5359 10.4178 43.5381 10.4173C43.5404 10.4168 43.5432 10.4161 43.5488 10.4149C43.5536 10.4138 43.5612 10.4121 43.5691 10.4103C43.5772 10.4085 43.5878 10.4061 43.5996 10.4032L43.1255 8.4602ZM43.1614 8.45549C43.0475 8.47164 43.0019 8.47792 42.9611 8.47985L43.0556 10.4776C43.2105 10.4703 43.3605 10.4473 43.4423 10.4357L43.1614 8.45549ZM42.8848 8.48639C42.8748 8.48763 42.8698 8.48826 42.8654 8.48877C42.8615 8.48922 42.8607 8.48927 42.8618 8.48917C42.8646 8.48892 42.8759 8.48798 42.8923 8.48798V10.488C43.0046 10.488 43.1001 10.475 43.1319 10.4711L42.8848 8.48639ZM42.8403 8.48934C42.7478 8.49416 42.6854 8.49724 42.6223 8.49724V10.4972C42.7458 10.4972 42.8594 10.4911 42.9444 10.4866L42.8403 8.48934ZM42.6223 8.49724C42.5587 8.49724 42.497 8.49415 42.3973 8.48921L42.2983 10.4868C42.3852 10.4911 42.4994 10.4972 42.6223 10.4972V8.49724ZM42.3893 8.48884C42.3279 8.4863 42.255 8.47808 42.1529 8.46408L41.8814 10.4456C41.9931 10.4609 42.1447 10.4804 42.3063 10.4871L42.3893 8.48884ZM42.1407 8.46249C42.1061 8.45818 42.0848 8.45317 41.9823 8.43403L41.6151 10.4C41.6613 10.4087 41.7795 10.433 41.8936 10.4472L42.1407 8.46249ZM41.9918 8.43586C41.9772 8.43299 41.8635 8.40778 41.7244 8.40778V10.4078C41.6414 10.4078 41.5732 10.3918 41.6056 10.3982L41.9918 8.43586ZM42.1776 8.51637C42.1118 8.4829 42.0204 8.44494 41.9066 8.42255C41.8513 8.41167 41.8028 8.40685 41.7642 8.40474C41.746 8.40373 41.731 8.4034 41.7213 8.40326C41.7164 8.4032 41.7124 8.40317 41.7099 8.40316C41.7075 8.40316 41.7055 8.40316 41.7054 8.40316V10.4032C41.7121 10.4032 41.6246 10.4054 41.5204 10.3849C41.4125 10.3637 41.3279 10.328 41.2712 10.2992L42.1776 8.51637ZM41.8681 8.41648C41.9055 8.42265 41.9313 8.42995 41.9359 8.43125C41.9385 8.43198 41.9387 8.4321 41.9338 8.43058C41.9314 8.42985 41.9287 8.42902 41.9246 8.42775C41.9209 8.4266 41.9158 8.42502 41.9105 8.4234L41.3229 10.3351C41.3265 10.3362 41.3612 10.3471 41.3897 10.3552C41.4234 10.3648 41.4773 10.379 41.5428 10.3898L41.8681 8.41648ZM41.8583 8.40888C41.83 8.40183 41.744 8.37954 41.649 8.36573L41.3615 10.345C41.3541 10.3439 41.3487 10.3429 41.3458 10.3424C41.3429 10.3418 41.3419 10.3416 41.3433 10.3419C41.3447 10.3422 41.3477 10.3429 41.3532 10.3442C41.359 10.3456 41.3653 10.3472 41.3751 10.3496L41.8583 8.40888ZM41.7453 8.3846C41.7466 8.38492 41.7415 8.38371 41.7246 8.37832C41.7164 8.37569 41.7068 8.37258 41.6942 8.36839C41.6842 8.36509 41.6651 8.3587 41.6508 8.35399L41.0244 10.2534C41.0571 10.2641 41.1616 10.3005 41.2651 10.3261L41.7453 8.3846ZM41.6039 8.3398C41.5659 8.3293 41.5226 8.31517 41.477 8.29844L40.7887 10.1763C40.8735 10.2074 40.9698 10.2395 41.0713 10.2676L41.6039 8.3398ZM41.4565 8.29117C41.4033 8.27301 41.3593 8.25438 41.2557 8.21323L40.517 10.0718C40.5803 10.097 40.6955 10.1447 40.8092 10.1836L41.4565 8.29117ZM41.3948 8.2814C41.3602 8.26101 41.3304 8.24573 41.3109 8.23614C41.2927 8.22714 41.2754 8.2191 41.272 8.21753C41.2646 8.21408 41.2702 8.21664 41.2783 8.22067C41.2871 8.2251 41.3072 8.23543 41.3329 8.25106L40.2912 9.95841C40.3282 9.98098 40.3604 9.99776 40.3816 10.0084C40.4021 10.0187 40.4204 10.0272 40.4259 10.0297C40.4353 10.0341 40.4308 10.0321 40.4251 10.0293C40.4183 10.0259 40.4008 10.0171 40.378 10.0036L41.3948 8.2814ZM41.1814 8.17545C41.1592 8.16661 41.1277 8.15118 41.0437 8.10601L40.0965 9.86749C40.1703 9.90714 40.2981 9.97654 40.4427 10.034L41.1814 8.17545ZM41.0221 8.09472C40.8666 8.01592 40.7025 7.90924 40.5236 7.77648L39.3319 9.38272C39.5625 9.55378 39.8262 9.73087 40.1182 9.87879L41.0221 8.09472ZM40.9278 8.5796C40.9278 8.42809 40.8904 8.12993 40.6396 7.87493C40.3858 7.61686 40.0831 7.57497 39.9232 7.57497V9.57497C39.7664 9.57497 39.466 9.53386 39.2137 9.27733C38.9644 9.02387 38.9278 8.72802 38.9278 8.5796H40.9278ZM40.5399 7.78773C40.4542 7.72066 40.3717 7.65145 40.2954 7.58171L38.9458 9.05775C39.0652 9.1669 39.1874 9.26889 39.3066 9.36221L40.5399 7.78773ZM40.6206 8.31973C40.6206 8.13688 40.5701 7.93382 40.4435 7.74993C40.3355 7.59307 40.2097 7.50827 40.1789 7.48734C40.161 7.47523 40.144 7.4647 40.1485 7.46757C40.1486 7.46761 40.1495 7.46819 40.1507 7.46896C40.152 7.46977 40.1539 7.47098 40.1563 7.47247C40.1609 7.47545 40.1677 7.4799 40.1759 7.48547C40.2107 7.50904 40.2657 7.54949 40.3245 7.60928L38.8985 9.01167C38.9596 9.07377 39.0168 9.11596 39.0538 9.14098C39.0702 9.15209 39.0839 9.16065 39.0842 9.16086C39.0898 9.16435 39.0737 9.1544 39.0567 9.14286C39.0275 9.12309 38.9031 9.03945 38.7961 8.88403C38.6705 8.70159 38.6206 8.50027 38.6206 8.31973H40.6206ZM40.2896 7.57551C40.1385 7.43607 39.9988 7.27714 39.863 7.09269L38.2528 8.27904C38.4521 8.54956 38.675 8.80703 38.9334 9.04544L40.2896 7.57551ZM39.7708 6.98467C39.7098 6.92259 39.6526 6.88041 39.6157 6.8554C39.5993 6.8443 39.5856 6.83574 39.5852 6.83553C39.5797 6.83205 39.5958 6.84201 39.6128 6.85355C39.642 6.87332 39.7663 6.95697 39.8733 7.11237C39.9988 7.29478 40.0488 7.49607 40.0488 7.67661H38.0488C38.0488 7.85946 38.0993 8.06249 38.2258 8.24635C38.3338 8.40319 38.4596 8.488 38.4904 8.50893C38.5083 8.52105 38.5253 8.53158 38.5208 8.52872C38.5207 8.52868 38.5198 8.5281 38.5186 8.52733C38.5173 8.52652 38.5154 8.52531 38.5131 8.52382C38.5084 8.52084 38.5016 8.51639 38.4934 8.51083C38.4586 8.48727 38.4037 8.44683 38.3449 8.38706L39.7708 6.98467ZM39.8582 7.08942C39.7876 6.99212 39.7336 6.91278 39.6872 6.83382L37.9629 7.84698C38.056 8.00552 38.1522 8.14364 38.2393 8.2638L39.8582 7.08942ZM38.825 6.3404C38.8971 6.3404 39.038 6.34781 39.2005 6.41388C39.3816 6.48753 39.5924 6.63795 39.7205 6.89838C39.8403 7.14205 39.8315 7.36878 39.8099 7.5007C39.7885 7.63127 39.7457 7.72852 39.7207 7.77938C39.6712 7.87997 39.616 7.94827 39.5978 7.9704C39.5845 7.9866 39.5727 8.00006 39.5633 8.01034C39.5584 8.01563 39.5539 8.02048 39.5497 8.02486C39.5476 8.02706 39.5456 8.02917 39.5437 8.03118C39.5427 8.03219 39.5417 8.03318 39.5408 8.03415C39.5403 8.03463 39.5398 8.03511 39.5394 8.03558C39.5391 8.03582 39.5389 8.03605 39.5387 8.03629C39.5386 8.0364 39.5384 8.03658 39.5383 8.03664C39.5382 8.03681 39.538 8.03699 38.825 7.33577C38.1121 6.63456 38.1119 6.63474 38.1118 6.63491C38.1117 6.63497 38.1115 6.63514 38.1114 6.63526C38.1112 6.6355 38.1109 6.63573 38.1107 6.63597C38.1103 6.63644 38.1098 6.63692 38.1093 6.63741C38.1084 6.63838 38.1074 6.63938 38.1064 6.64039C38.1044 6.64242 38.1024 6.64456 38.1003 6.64679C38.096 6.65124 38.0914 6.65619 38.0865 6.66161C38.0768 6.67214 38.0646 6.68596 38.051 6.7026C38.0321 6.72559 37.976 6.79505 37.926 6.89679C37.9125 6.92426 37.7002 7.32228 37.9258 7.78097C38.1957 8.32987 38.7461 8.3404 38.825 8.3404V6.3404ZM39.6871 6.82893C39.6457 6.75856 39.602 6.6842 39.5572 6.6093L37.8412 7.63659C37.8813 7.70357 37.921 7.7711 37.963 7.84262L39.6871 6.82893ZM39.5817 6.65265C39.5056 6.50998 39.4423 6.37236 39.3912 6.23333L37.5142 6.92373C37.6026 7.16409 37.7061 7.38582 37.8166 7.59324L39.5817 6.65265ZM39.3931 6.2386C39.3582 6.14202 39.3342 6.07576 39.3143 6.01165L37.4045 6.60562C37.4407 6.72195 37.4819 6.83459 37.5122 6.91846L39.3931 6.2386ZM39.3088 5.99457C39.2916 5.94257 39.2789 5.89541 39.2695 5.84937L37.3097 6.24816C37.3367 6.38103 37.3711 6.50505 37.41 6.62271L39.3088 5.99457ZM39.2597 5.80601C39.2101 5.6077 39.178 5.39721 39.167 5.18291L37.1696 5.28601C37.1874 5.63001 37.2387 5.96855 37.3195 6.29152L39.2597 5.80601ZM39.167 5.18409C39.1623 5.09121 39.1592 5.0213 39.1592 4.95994H37.1592C37.1592 5.07903 37.1651 5.19727 37.1695 5.28483L39.167 5.18409ZM39.1592 4.95994C39.1592 4.86803 39.1627 4.78061 39.1696 4.69451L37.176 4.53445C37.1647 4.67506 37.1592 4.81589 37.1592 4.95994H39.1592ZM39.1728 4.61448V4.60522H37.1728V4.61448H39.1728ZM39.1696 4.68525C39.1767 4.59732 39.1873 4.51845 39.2029 4.38778L37.2171 4.15025C37.2054 4.24783 37.1872 4.38642 37.176 4.5252L39.1696 4.68525ZM39.1956 4.43784C39.2201 4.29504 39.2373 4.1975 39.2599 4.10525L37.3178 3.62772C37.2752 3.80074 37.2469 3.96847 37.2243 4.10019L39.1956 4.43784ZM39.2605 4.10297C39.3767 3.62542 39.587 3.18849 39.8707 2.81619L38.2799 1.60403C37.828 2.19718 37.4983 2.88609 37.3172 3.63L39.2605 4.10297ZM40.0753 2.21011V2.20549H38.0753V2.21011H40.0753ZM39.8772 2.80302C39.9719 2.67595 40.0851 2.54863 40.2089 2.42711L38.8078 0.999909C38.6237 1.18066 38.4397 1.38493 38.2735 1.60795L39.8772 2.80302ZM40.2213 2.41471C40.2686 2.36665 40.3194 2.3208 40.3941 2.2548L39.0701 0.755806C38.9946 0.822442 38.8968 0.909224 38.7954 1.01231L40.2213 2.41471ZM40.3945 2.25447C40.4496 2.20576 40.5119 2.15384 40.5844 2.09441L39.3166 0.547606C39.2405 0.610008 39.1542 0.681467 39.0697 0.756138L40.3945 2.25447ZM40.5466 2.12392C40.7079 2.00418 40.8566 1.90794 41.0063 1.83048L40.087 0.0542845C39.8165 0.194288 39.5754 0.354055 39.3544 0.518091L40.5466 2.12392ZM41.0378 1.81346C41.086 1.78628 41.1412 1.75917 41.1993 1.73443L40.4157 -0.105677C40.2963 -0.0548444 40.1741 0.00441182 40.0555 0.071312L41.0378 1.81346ZM41.2214 1.72471C41.2935 1.69193 41.3684 1.66117 41.462 1.62325L40.7112 -0.230456C40.6182 -0.192813 40.5081 -0.147995 40.3936 -0.0959495L41.2214 1.72471ZM41.0866 1.6964C41.1304 1.6964 41.1732 1.69359 41.2146 1.68838C41.256 1.68317 41.294 1.67583 41.3282 1.66753C41.3623 1.65927 41.3914 1.65035 41.4146 1.64256C41.4372 1.63493 41.4549 1.62808 41.4637 1.62461C41.468 1.62294 41.4715 1.62152 41.4717 1.62141C41.4731 1.62088 41.4703 1.62201 41.4672 1.62322C41.4637 1.62459 41.4571 1.62717 41.4488 1.63029C41.4403 1.63343 41.4287 1.6376 41.4148 1.64219C41.4008 1.64679 41.3836 1.65212 41.3637 1.6575C41.3438 1.66289 41.3206 1.6685 41.2945 1.67356C41.242 1.68379 41.1782 1.69177 41.1055 1.69177V-0.308232C41.0316 -0.308232 40.9665 -0.300105 40.9126 -0.289629C40.8859 -0.284436 40.8621 -0.278679 40.8415 -0.273109C40.8209 -0.267553 40.8031 -0.262028 40.7885 -0.257207C40.7739 -0.252402 40.7616 -0.247997 40.7525 -0.244604C40.7434 -0.241242 40.7362 -0.2384 40.732 -0.236751C40.7299 -0.235898 40.7281 -0.235196 40.7271 -0.234781C40.7265 -0.234568 40.7261 -0.234392 40.7258 -0.234287C40.7257 -0.234233 40.7256 -0.234187 40.7255 -0.23416C40.7254 -0.234108 40.7255 -0.234138 40.7254 -0.234112C40.725 -0.233934 40.7278 -0.235061 40.7313 -0.236442C40.7386 -0.239334 40.7548 -0.245612 40.7758 -0.252693C40.7973 -0.25995 40.8248 -0.268358 40.8571 -0.276183C40.8895 -0.284054 40.9256 -0.291036 40.965 -0.295986C41.0044 -0.300941 41.045 -0.303605 41.0866 -0.303605V1.6964ZM41.4518 1.62992C41.5251 1.60287 41.6063 1.57742 41.718 1.5428L41.1256 -0.367468C41.0234 -0.335771 40.8908 -0.294906 40.7593 -0.246382L41.4518 1.62992ZM41.735 1.53736C41.7189 1.54266 41.7072 1.54587 41.7036 1.54684C41.7022 1.54721 41.6994 1.54793 41.7117 1.54478C41.7201 1.54264 41.7391 1.53777 41.7612 1.53143C41.7841 1.52484 41.8147 1.5154 41.8499 1.50249L41.1606 -0.37496C41.1821 -0.382862 41.199 -0.38796 41.2081 -0.390574C41.2163 -0.392941 41.2214 -0.394202 41.2159 -0.392771C41.2155 -0.392669 41.208 -0.390767 41.2041 -0.38977C41.1987 -0.388364 41.1909 -0.386356 41.1821 -0.383963C41.1645 -0.379213 41.1387 -0.371951 41.1086 -0.362027L41.735 1.53736ZM41.7532 1.53254C41.8381 1.5108 41.9201 1.49348 42.0025 1.48034L41.6875 -0.4947C41.5378 -0.470833 41.3953 -0.440336 41.2573 -0.405014L41.7532 1.53254ZM42.0315 1.47526C42.131 1.45638 42.216 1.44441 42.2972 1.43865L42.1557 -0.55634C41.976 -0.543593 41.8108 -0.518555 41.6584 -0.489628L42.0315 1.47526ZM42.3323 1.43554C42.4199 1.42622 42.514 1.42188 42.6223 1.42188V-0.578125C42.4607 -0.578125 42.2939 -0.571672 42.1207 -0.553233L42.3323 1.43554ZM42.6223 1.42188C44.5215 1.42188 46.0863 2.98878 46.0863 4.96071H48.0863C48.0863 1.91571 45.6573 -0.578125 42.6223 -0.578125V1.42188ZM47.9834 4.51889L47.9826 4.51735L46.1884 5.40099L46.1892 5.40253L47.9834 4.51889Z" fill="white" mask="url(#path-4-inside-3_528_1978)"/>
</g>
<g id="Vector_5">
<mask id="path-6-inside-4_528_1978" fill="white">
<path d="M39.3773 20.0242V37.9759C39.3773 38.9984 38.5484 39.8405 37.539 39.8405H34.9976V22.3807H33.9502V59.9599C33.9502 61.0819 33.0515 61.9995 31.9488 61.9995H27.5221V40.0202H26.4747V61.9995H22.048C20.9498 61.9995 20.0511 61.0811 20.0511 59.9599V22.3815H19.0038V39.8413H16.4624C15.4522 39.8413 14.624 38.9984 14.624 37.9767V20.0249C14.624 19.9447 14.624 19.8684 14.6286 19.7882C14.6286 19.7265 14.6331 19.6702 14.6377 19.6132C14.6422 19.4851 14.6513 19.3579 14.6657 19.2345C14.6847 19.0641 14.7074 18.8937 14.7446 18.7233C14.7583 18.6192 14.7818 18.5151 14.8053 18.411V18.4017C14.8098 18.3878 14.8098 18.3732 14.8144 18.3593C14.8189 18.3454 14.8189 18.3308 14.8235 18.3169C14.847 18.2367 14.8652 18.1511 14.8887 18.0755C14.8933 18.0616 14.8933 18.0516 14.8978 18.0377C14.9024 18.0285 14.9024 18.0239 14.9069 18.0138C14.9206 17.9522 14.9395 17.8905 14.963 17.8295C14.982 17.7679 15.0047 17.7062 15.0237 17.6452C15.0472 17.565 15.0798 17.4795 15.1124 17.3993C15.117 17.39 15.117 17.3846 15.1215 17.3753C15.1405 17.3183 15.1632 17.2666 15.1868 17.2142C15.2285 17.1055 15.28 17.0014 15.3263 16.8926C15.4287 16.6798 15.5402 16.4762 15.657 16.2773C15.7684 16.093 15.8898 15.9125 16.0157 15.7429C16.0764 15.6573 16.1416 15.5725 16.2113 15.4876C16.2766 15.402 16.3463 15.3218 16.4161 15.2416C16.4813 15.1615 16.5511 15.0851 16.6254 15.0095C16.6952 14.934 16.765 14.863 16.8393 14.7967C16.8954 14.7396 16.9508 14.6834 17.0115 14.6309C17.0676 14.5785 17.1275 14.5314 17.1836 14.4798C17.1973 14.4705 17.2071 14.4605 17.2208 14.4466C17.3368 14.3471 17.4582 14.2523 17.584 14.1628C17.719 14.0634 17.854 13.9685 17.9981 13.8791C18.096 13.8174 18.1938 13.7611 18.2916 13.704C18.4873 13.5953 18.6875 13.4912 18.8923 13.401C18.9992 13.3539 19.1061 13.3061 19.2184 13.2637C19.2791 13.2398 19.3443 13.2167 19.4042 13.1928C19.4133 13.1881 19.4232 13.1881 19.4323 13.1835C19.4414 13.1789 19.4512 13.1789 19.4603 13.1743C19.4694 13.1696 19.474 13.1696 19.4838 13.1696C19.5491 13.1457 19.6143 13.1226 19.6795 13.1033C19.7447 13.084 19.8099 13.0655 19.8752 13.0463C19.9821 13.0177 20.089 12.9892 20.1967 12.9661C20.2013 12.9661 20.2058 12.9614 20.2157 12.9614C20.3135 12.9375 20.4113 12.919 20.5092 12.9044C20.6396 12.8805 20.7701 12.8573 20.9005 12.8427C20.9096 12.8427 20.924 12.8381 20.9331 12.8381C21.0636 12.8242 21.2031 12.8095 21.3427 12.8049C21.3518 12.8003 21.3662 12.8003 21.3753 12.8003C21.4966 12.7956 21.6172 12.791 21.7431 12.791H23.3304C24.3967 13.4727 25.6534 13.8652 27.0033 13.8652C28.3533 13.8652 29.6054 13.4727 30.6762 12.791H32.2636C32.3895 12.791 32.51 12.7956 32.6314 12.8003C32.6405 12.8003 32.6504 12.8003 32.6595 12.8049C32.7429 12.8095 32.8225 12.8142 32.9014 12.8242C32.9666 12.8288 33.0273 12.8334 33.0925 12.8435H33.1061C33.1297 12.8481 33.1524 12.8481 33.1759 12.8527C33.1949 12.8573 33.2131 12.8573 33.2275 12.862C33.3018 12.8712 33.3761 12.8859 33.4459 12.8951C33.5619 12.9144 33.6787 12.9329 33.7902 12.9614C33.9063 12.9853 34.0185 13.0139 34.13 13.0463C34.2369 13.0748 34.3439 13.1079 34.4515 13.1411C34.4606 13.1457 34.4705 13.1504 34.4796 13.155C34.5312 13.1689 34.582 13.1881 34.6336 13.2074C34.6851 13.2267 34.7359 13.2452 34.7875 13.2645C34.8944 13.3069 35.0059 13.3501 35.1136 13.4017C35.3184 13.492 35.5186 13.5961 35.7143 13.7048C35.8955 13.8089 36.0677 13.9176 36.2406 14.031C36.4408 14.1682 36.6365 14.3148 36.8177 14.4759C36.8784 14.5284 36.9391 14.58 36.9944 14.6325C37.0551 14.6841 37.1105 14.7412 37.1712 14.7983C37.2409 14.8646 37.3107 14.9355 37.3759 15.0065C37.4502 15.082 37.5246 15.163 37.5943 15.2478C37.6967 15.3658 37.7946 15.4846 37.8878 15.6072C37.9204 15.6496 37.9576 15.692 37.9857 15.7398C38.0183 15.7822 38.0509 15.83 38.0835 15.8724C38.0926 15.8863 38.1025 15.901 38.1161 15.9195V15.9241C38.1533 15.9711 38.1859 16.0236 38.2185 16.0752C38.2511 16.1223 38.2837 16.1793 38.3163 16.231C38.3626 16.3066 38.4096 16.3775 38.4468 16.4539C38.4513 16.4539 38.4513 16.4585 38.4513 16.4585C38.4559 16.4724 38.465 16.4824 38.4703 16.4963C38.5165 16.5765 38.559 16.6574 38.6007 16.7423C38.647 16.8271 38.6895 16.9173 38.7266 17.0075C38.7683 17.0977 38.8055 17.1872 38.8427 17.2774C38.8942 17.3954 38.9405 17.5188 38.9822 17.6468C39.0194 17.7555 39.0565 17.8642 39.0891 17.9776C39.0982 18.0108 39.1081 18.0439 39.1172 18.0771C39.1407 18.1619 39.1635 18.2475 39.1824 18.3323C39.1915 18.3562 39.1961 18.3747 39.2014 18.3986V18.4179C39.2203 18.4981 39.2385 18.5744 39.253 18.65C39.2575 18.6639 39.2575 18.6832 39.2621 18.6971C39.2757 18.7634 39.2856 18.8343 39.2947 18.9006C39.3318 19.1374 39.3599 19.3741 39.369 19.6108C39.3781 19.7481 39.3826 19.89 39.3826 20.0272L39.3773 20.0242Z"/>
</mask>
<path d="M39.3773 20.0242V37.9759C39.3773 38.9984 38.5484 39.8405 37.539 39.8405H34.9976V22.3807H33.9502V59.9599C33.9502 61.0819 33.0515 61.9995 31.9488 61.9995H27.5221V40.0202H26.4747V61.9995H22.048C20.9498 61.9995 20.0511 61.0811 20.0511 59.9599V22.3815H19.0038V39.8413H16.4624C15.4522 39.8413 14.624 38.9984 14.624 37.9767V20.0249C14.624 19.9447 14.624 19.8684 14.6286 19.7882C14.6286 19.7265 14.6331 19.6702 14.6377 19.6132C14.6422 19.4851 14.6513 19.3579 14.6657 19.2345C14.6847 19.0641 14.7074 18.8937 14.7446 18.7233C14.7583 18.6192 14.7818 18.5151 14.8053 18.411V18.4017C14.8098 18.3878 14.8098 18.3732 14.8144 18.3593C14.8189 18.3454 14.8189 18.3308 14.8235 18.3169C14.847 18.2367 14.8652 18.1511 14.8887 18.0755C14.8933 18.0616 14.8933 18.0516 14.8978 18.0377C14.9024 18.0285 14.9024 18.0239 14.9069 18.0138C14.9206 17.9522 14.9395 17.8905 14.963 17.8295C14.982 17.7679 15.0047 17.7062 15.0237 17.6452C15.0472 17.565 15.0798 17.4795 15.1124 17.3993C15.117 17.39 15.117 17.3846 15.1215 17.3753C15.1405 17.3183 15.1632 17.2666 15.1868 17.2142C15.2285 17.1055 15.28 17.0014 15.3263 16.8926C15.4287 16.6798 15.5402 16.4762 15.657 16.2773C15.7684 16.093 15.8898 15.9125 16.0157 15.7429C16.0764 15.6573 16.1416 15.5725 16.2113 15.4876C16.2766 15.402 16.3463 15.3218 16.4161 15.2416C16.4813 15.1615 16.5511 15.0851 16.6254 15.0095C16.6952 14.934 16.765 14.863 16.8393 14.7967C16.8954 14.7396 16.9508 14.6834 17.0115 14.6309C17.0676 14.5785 17.1275 14.5314 17.1836 14.4798C17.1973 14.4705 17.2071 14.4605 17.2208 14.4466C17.3368 14.3471 17.4582 14.2523 17.584 14.1628C17.719 14.0634 17.854 13.9685 17.9981 13.8791C18.096 13.8174 18.1938 13.7611 18.2916 13.704C18.4873 13.5953 18.6875 13.4912 18.8923 13.401C18.9992 13.3539 19.1061 13.3061 19.2184 13.2637C19.2791 13.2398 19.3443 13.2167 19.4042 13.1928C19.4133 13.1881 19.4232 13.1881 19.4323 13.1835C19.4414 13.1789 19.4512 13.1789 19.4603 13.1743C19.4694 13.1696 19.474 13.1696 19.4838 13.1696C19.5491 13.1457 19.6143 13.1226 19.6795 13.1033C19.7447 13.084 19.8099 13.0655 19.8752 13.0463C19.9821 13.0177 20.089 12.9892 20.1967 12.9661C20.2013 12.9661 20.2058 12.9614 20.2157 12.9614C20.3135 12.9375 20.4113 12.919 20.5092 12.9044C20.6396 12.8805 20.7701 12.8573 20.9005 12.8427C20.9096 12.8427 20.924 12.8381 20.9331 12.8381C21.0636 12.8242 21.2031 12.8095 21.3427 12.8049C21.3518 12.8003 21.3662 12.8003 21.3753 12.8003C21.4966 12.7956 21.6172 12.791 21.7431 12.791H23.3304C24.3967 13.4727 25.6534 13.8652 27.0033 13.8652C28.3533 13.8652 29.6054 13.4727 30.6762 12.791H32.2636C32.3895 12.791 32.51 12.7956 32.6314 12.8003C32.6405 12.8003 32.6504 12.8003 32.6595 12.8049C32.7429 12.8095 32.8225 12.8142 32.9014 12.8242C32.9666 12.8288 33.0273 12.8334 33.0925 12.8435H33.1061C33.1297 12.8481 33.1524 12.8481 33.1759 12.8527C33.1949 12.8573 33.2131 12.8573 33.2275 12.862C33.3018 12.8712 33.3761 12.8859 33.4459 12.8951C33.5619 12.9144 33.6787 12.9329 33.7902 12.9614C33.9063 12.9853 34.0185 13.0139 34.13 13.0463C34.2369 13.0748 34.3439 13.1079 34.4515 13.1411C34.4606 13.1457 34.4705 13.1504 34.4796 13.155C34.5312 13.1689 34.582 13.1881 34.6336 13.2074C34.6851 13.2267 34.7359 13.2452 34.7875 13.2645C34.8944 13.3069 35.0059 13.3501 35.1136 13.4017C35.3184 13.492 35.5186 13.5961 35.7143 13.7048C35.8955 13.8089 36.0677 13.9176 36.2406 14.031C36.4408 14.1682 36.6365 14.3148 36.8177 14.4759C36.8784 14.5284 36.9391 14.58 36.9944 14.6325C37.0551 14.6841 37.1105 14.7412 37.1712 14.7983C37.2409 14.8646 37.3107 14.9355 37.3759 15.0065C37.4502 15.082 37.5246 15.163 37.5943 15.2478C37.6967 15.3658 37.7946 15.4846 37.8878 15.6072C37.9204 15.6496 37.9576 15.692 37.9857 15.7398C38.0183 15.7822 38.0509 15.83 38.0835 15.8724C38.0926 15.8863 38.1025 15.901 38.1161 15.9195V15.9241C38.1533 15.9711 38.1859 16.0236 38.2185 16.0752C38.2511 16.1223 38.2837 16.1793 38.3163 16.231C38.3626 16.3066 38.4096 16.3775 38.4468 16.4539C38.4513 16.4539 38.4513 16.4585 38.4513 16.4585C38.4559 16.4724 38.465 16.4824 38.4703 16.4963C38.5165 16.5765 38.559 16.6574 38.6007 16.7423C38.647 16.8271 38.6895 16.9173 38.7266 17.0075C38.7683 17.0977 38.8055 17.1872 38.8427 17.2774C38.8942 17.3954 38.9405 17.5188 38.9822 17.6468C39.0194 17.7555 39.0565 17.8642 39.0891 17.9776C39.0982 18.0108 39.1081 18.0439 39.1172 18.0771C39.1407 18.1619 39.1635 18.2475 39.1824 18.3323C39.1915 18.3562 39.1961 18.3747 39.2014 18.3986V18.4179C39.2203 18.4981 39.2385 18.5744 39.253 18.65C39.2575 18.6639 39.2575 18.6832 39.2621 18.6971C39.2757 18.7634 39.2856 18.8343 39.2947 18.9006C39.3318 19.1374 39.3599 19.3741 39.369 19.6108C39.3781 19.7481 39.3826 19.89 39.3826 20.0272L39.3773 20.0242Z" stroke="white" stroke-width="2" stroke-linejoin="round" mask="url(#path-6-inside-4_528_1978)"/>
</g>
<path id="Vector_6" d="M22.1057 8.6928C22.1057 8.69125 22.1057 8.68971 22.1057 8.68817V8.6928ZM22.1057 8.6928C22.1163 8.71852 22.1265 8.74418 22.1367 8.76971M22.1057 8.6928L22.1367 8.76971M22.1367 8.76971C22.1622 8.83372 22.1874 8.89687 22.2172 8.95806L22.1367 8.76971ZM22.4622 9.03877C22.4701 9.03075 22.4776 9.02253 22.4849 9.01412C22.4749 9.02582 22.4668 9.03406 22.4622 9.03877ZM22.6085 8.60269C22.601 8.58385 22.5927 8.56312 22.5832 8.53957C22.5787 8.5249 22.5734 8.51039 22.5675 8.4961C22.5652 8.48981 22.5628 8.48355 22.5603 8.47734C22.5548 8.46353 22.5496 8.44929 22.541 8.42567L22.5402 8.42336C22.5336 8.4051 22.5248 8.38062 22.5143 8.35388C22.4795 8.25189 22.4499 8.15959 22.4282 8.07141C22.4265 8.06472 22.4248 8.05806 22.4228 8.05144C22.4144 8.02241 22.4079 7.99456 22.4009 7.95856L22.401 7.95855L22.3998 7.95272C22.391 7.91012 22.3809 7.86904 22.3732 7.83784L22.3724 7.83467C22.3639 7.79991 22.3581 7.77603 22.3535 7.75377L22.3531 7.75199C22.3073 7.53322 22.2783 7.30229 22.2651 7.06916C22.2648 7.06249 22.2643 7.05584 22.2636 7.0492C22.2619 7.03103 22.2614 7.00006 22.2614 6.94157C22.2614 6.92715 22.2608 6.91272 22.2595 6.89835C22.2572 6.87131 22.2568 6.83719 22.2568 6.78041C22.2568 6.1681 22.3673 5.58122 22.5724 5.04733C22.5774 5.03446 22.5818 5.0214 22.5856 5.0082C22.8262 4.38664 23.1926 3.82747 23.6491 3.3633L23.6499 3.36244C24.5049 2.48892 25.6905 1.95117 26.9981 1.95117C28.949 1.95117 30.6311 3.15224 31.3575 4.88025C31.3692 4.91402 31.3809 4.94418 31.3901 4.96779C31.3927 4.97432 31.395 4.98022 31.3971 4.98563C31.4053 5.00633 31.4106 5.01986 31.4158 5.03418L31.4157 5.0342L31.4179 5.03986C31.6213 5.582 31.7348 6.16648 31.7348 6.78118C31.7348 6.79418 31.7353 6.8071 31.7363 6.81993C31.7363 6.89698 31.7357 6.96625 31.7324 7.03118C31.7243 7.19218 31.7073 7.35422 31.6818 7.51819C31.6678 7.60534 31.6554 7.6822 31.6404 7.7529L31.6401 7.75407L31.6123 7.8857L31.5875 8.00287C31.5449 8.1542 31.498 8.30448 31.4474 8.44901L31.4472 8.44895L31.4449 8.45625L31.4412 8.46527C31.4388 8.47108 31.434 8.48254 31.4293 8.49443C31.4252 8.50481 31.4201 8.51831 31.4147 8.53389C31.3895 8.60307 31.3604 8.67004 31.3239 8.75426L31.3212 8.76049L31.3211 8.76045L31.3175 8.76913C31.2992 8.81364 31.2794 8.85575 31.2598 8.89095C31.2531 8.90291 31.2469 8.91515 31.2413 8.92763C31.2112 8.99376 31.1931 9.0324 31.175 9.06368L31.1749 9.06362L31.1699 9.0727C31.1543 9.10104 31.1408 9.12595 31.1285 9.14861C31.1006 9.20012 31.079 9.24005 31.0527 9.28228L31.0441 9.29659C31.0051 9.36426 30.9639 9.42838 30.9218 9.48506C30.91 9.50104 30.8991 9.5177 30.8892 9.53498C30.8831 9.54557 30.8798 9.55079 30.8781 9.55338L30.8768 9.55533L30.8767 9.55543L30.8767 9.55544C30.8681 9.56589 30.8599 9.57669 30.8522 9.58781C30.778 9.69436 30.7037 9.7946 30.6297 9.88224L30.6198 9.89431C30.5386 9.99669 30.4464 10.0951 30.3434 10.1998L30.3433 10.1997L30.3356 10.2079C30.2381 10.3116 30.1286 10.4108 30.0073 10.5118L30.0073 10.5118L30.002 10.5163C29.9029 10.6013 29.7918 10.6854 29.6746 10.7689C29.5862 10.8287 29.4955 10.8874 29.4062 10.9414C29.4016 10.9439 29.3948 10.9474 29.3816 10.9541L29.3793 10.9553C29.3641 10.963 29.3389 10.9758 29.3124 10.9908C29.2957 11.0003 29.2794 11.0108 29.2639 11.0222C29.2631 11.0228 29.2614 11.024 29.2588 11.0257C29.2498 11.0297 29.2416 11.0336 29.2359 11.0362L29.2214 11.043C29.2183 11.0444 29.2191 11.044 29.2222 11.0427C29.2028 11.0506 29.1839 11.0597 29.1656 11.07C29.0843 11.1157 29.0073 11.1546 28.9281 11.189C28.9187 11.1931 28.9094 11.1974 28.9003 11.202C28.8517 11.2268 28.8064 11.2463 28.7641 11.2613L28.748 11.2674C28.7277 11.2754 28.7037 11.2847 28.6786 11.2945C28.6436 11.3081 28.6062 11.3226 28.5731 11.3358C28.5315 11.3506 28.491 11.3625 28.439 11.3779C28.4163 11.3846 28.3913 11.392 28.3631 11.4006C28.3529 11.4036 28.3429 11.407 28.333 11.4107C28.3235 11.4143 28.3103 11.4186 28.283 11.4269C28.2803 11.4277 28.2774 11.4286 28.2743 11.4295C28.2549 11.4354 28.2284 11.4434 28.2005 11.4526C28.1556 11.4646 28.1263 11.4717 28.1006 11.476C28.0832 11.4788 28.0659 11.4826 28.0488 11.4874C28.0059 11.4992 27.9548 11.5091 27.9024 11.5161C27.8881 11.518 27.8739 11.5205 27.8598 11.5236C27.853 11.5251 27.8452 11.5268 27.8369 11.5286C27.8086 11.5349 27.773 11.5427 27.7409 11.5503C27.6523 11.5653 27.5663 11.5767 27.4778 11.5841L27.3829 11.5909L27.2919 11.5973C27.1861 11.6019 27.092 11.6058 26.9989 11.6058C26.904 11.6058 26.8084 11.6017 26.7052 11.597C26.7001 11.5968 26.695 11.5967 26.6899 11.5966C26.6583 11.5904 26.6262 11.5873 26.5939 11.5873C26.5481 11.5873 26.5333 11.5868 26.5221 11.5856L26.5221 11.5855L26.5127 11.5847C26.4627 11.5802 26.4391 11.5774 26.4161 11.5728C26.4073 11.5711 26.3985 11.5696 26.3896 11.5683C26.369 11.5654 26.3461 11.5613 26.3138 11.5553L26.3052 11.5537C26.2772 11.5484 26.2402 11.5415 26.2036 11.5359L26.2036 11.5359L26.1985 11.5352C26.1423 11.5272 26.0947 11.5193 26.0455 11.5089C26.023 11.5038 26.0036 11.5006 25.9918 11.4989C25.9605 11.4874 25.9281 11.4791 25.8951 11.4742C25.8875 11.4723 25.8798 11.4705 25.8721 11.469C25.8461 11.4638 25.8328 11.4611 25.8207 11.4581C25.8164 11.4571 25.8137 11.4563 25.8124 11.456C25.7949 11.4491 25.777 11.4432 25.7589 11.4384C25.6834 11.4183 25.6121 11.396 25.5278 11.3696C25.5101 11.3641 25.4918 11.3584 25.4728 11.3525C25.4536 11.3456 25.4356 11.3392 25.4187 11.3331C25.3597 11.3121 25.3128 11.2953 25.2656 11.2755C25.2538 11.2705 25.2418 11.266 25.2297 11.262C25.2113 11.2559 25.1884 11.2465 25.1663 11.2352L25.1664 11.235L25.1605 11.2322L25.1554 11.2294L25.1446 11.2235C25.131 11.2161 25.102 11.2004 25.0656 11.1853C24.9878 11.1514 24.9098 11.1117 24.8161 11.0622C24.8083 11.0581 24.8004 11.0541 24.7924 11.0504C24.7744 11.0421 24.763 11.0361 24.7455 11.0268C24.7339 11.0207 24.7198 11.0132 24.6993 11.0028C24.5978 10.9445 24.496 10.8826 24.3951 10.8172C24.3638 10.7946 24.3381 10.7766 24.3158 10.761C24.2688 10.728 24.2364 10.7054 24.1968 10.672C24.1887 10.6653 24.1805 10.6587 24.172 10.6525C24.0763 10.5819 23.9898 10.5136 23.915 10.445L23.9152 10.4448L23.9045 10.4356C23.814 10.3571 23.727 10.2766 23.6513 10.1991L23.6514 10.1989L23.6424 10.1902C23.5459 10.096 23.4608 10.0014 23.385 9.90111C23.3785 9.89252 23.3718 9.88413 23.3647 9.87597C23.3296 9.83525 23.3095 9.81161 23.2943 9.7912C23.2809 9.77317 23.2663 9.75606 23.2507 9.73999C23.25 9.73921 23.2486 9.73743 23.2463 9.73434C23.2403 9.7261 23.2331 9.71534 23.2189 9.69348L23.2097 9.67986C23.1768 9.63269 23.1577 9.60685 23.1447 9.58927C23.1286 9.56753 23.1218 9.55841 23.1099 9.5372C23.1001 9.51959 23.0891 9.5026 23.0772 9.48632C22.9786 9.35157 22.8905 9.19913 22.7991 9.02214C22.7938 9.01141 22.7887 9.00093 22.7837 8.99067C22.7426 8.90654 22.7088 8.83747 22.6783 8.76471C22.6746 8.75604 22.6708 8.74748 22.6667 8.73903C22.6452 8.695 22.6299 8.65665 22.6085 8.60269ZM29.1402 11.1148L29.1402 11.1147L29.1378 11.1172L29.1381 11.1169L29.1388 11.1162L29.1402 11.1148ZM21.9426 8.19079C21.929 8.14376 21.9191 8.10057 21.91 8.05353C21.9032 8.02038 21.8951 7.98722 21.8869 7.95406C21.8787 7.9209 21.8706 7.88774 21.8638 7.85459C21.8122 7.6086 21.7803 7.35258 21.7659 7.09734L21.9426 8.19079Z" stroke="white" stroke-linejoin="round"/>
</g>
<defs>
<clipPath id="clip0_528_1978">
<rect width="54" height="62" fill="white"/>
</clipPath>
</defs>
</svg>
