<svg width="84" height="92" viewBox="0 0 84 92" fill="none" xmlns="http://www.w3.org/2000/svg">
<g id="Group 13834">
<path id="Vector" d="M8.02652 40.2682C8.02652 40.2682 6.55261 53.4498 16.336 63.7074C26.1181 73.9671 41.3388 76.6879 53.6134 79.2159C65.888 81.7439 76.4156 76.09 79.3728 65.7703C82.3299 55.4505 73.3055 51.0676 69.9007 38.394C66.4958 25.7204 67.5231 21.8484 57.7165 12.9984C47.91 4.14842 30.2461 6.34149 19.5019 17.7336C8.75763 29.1257 8.02652 40.2682 8.02652 40.2682Z" fill="#7B1FA2"/>
<path id="Path 34272" d="M46.6798 50.8917V51.3157H40.2688L39.9528 51.1697L39.8528 50.8397L40.2718 47.4998L40.6908 47.1328H46.2688L46.6878 47.4998L47.1028 50.8347L47.0028 51.1647L46.6868 51.3107V50.8867L46.2678 50.9387L45.9008 47.9708H41.0598L40.7438 50.4708H46.6798V50.8898L46.2608 50.9418L46.6798 50.8917ZM46.6798 50.8917V51.3157H40.2688L39.9528 51.1697L39.8528 50.8397L40.2718 47.4998L40.6908 47.1328H46.2688L46.6878 47.4998L47.1028 50.8347L47.0028 51.1647L46.6868 51.3107V50.8867L46.2678 50.9387L45.9008 47.9708H41.0598L40.7438 50.4708H46.6798V50.8898L46.2608 50.9418L46.6798 50.8917ZM43.9518 53.6807V54.1047H43.4098V53.6807L43.4188 54.1008L42.8188 54.2007C41.6928 54.5207 39.4408 55.4537 39.4128 59.6837C39.4128 62.5837 40.5388 67.0517 44.0198 73.7927L43.6428 73.9857V73.5657H43.7138V73.9857L43.3368 73.7927C46.8228 67.0517 47.9538 62.5858 47.9488 59.6927C47.9398 56.8568 46.9128 55.5288 45.9188 54.8307C45.5006 54.5399 45.033 54.3275 44.5388 54.2037L43.9388 54.1038L43.9528 53.6837L43.9668 53.2648C44.8429 53.3283 45.6851 53.6294 46.4028 54.1357C47.6228 54.9697 48.8028 56.6468 48.7958 59.6898C48.7958 62.8078 47.6088 67.3727 44.0958 74.1797L43.7188 74.4058H43.6478L43.2708 74.1797C39.7608 67.3677 38.5788 62.8027 38.5708 59.6797C38.5618 56.6367 39.7438 54.9638 40.9588 54.1298C41.6766 53.6234 42.5187 53.3223 43.3948 53.2587H43.9648L43.9518 53.6807ZM43.8058 66.5037V66.9277H43.7728L43.3908 66.6827C41.5438 62.7257 40.9128 60.0637 40.9128 58.2267C40.8514 57.6033 40.9395 56.9742 41.1698 56.3917C41.4 55.8091 41.7658 55.2898 42.2368 54.8768C42.6381 54.5583 43.1259 54.3677 43.6368 54.3298H43.9478C44.4587 54.3677 44.9465 54.5583 45.3478 54.8768C45.8186 55.2901 46.1845 55.8093 46.4154 56.3917C46.6463 56.9741 46.7355 57.6031 46.6758 58.2267C46.6758 60.0637 46.0398 62.7267 44.1888 66.6827L43.8068 66.9277V66.5037L43.4248 66.3257C45.2478 62.4347 45.8318 59.8718 45.8318 58.2258C45.891 57.7322 45.8317 57.2316 45.6588 56.7656C45.486 56.2995 45.2045 55.8813 44.8378 55.5457L44.1828 55.2208L43.9758 55.1788L43.9188 55.1688L43.9328 54.7498V55.1738H43.6498V54.7498L43.6638 55.1688L43.3998 55.2208C42.8768 55.3948 41.7838 55.8287 41.7558 58.2267C41.7558 59.8707 42.3348 62.4377 44.1558 66.3267L43.7738 66.5057V66.0867H43.8068V66.5057L43.4248 66.3257L43.8058 66.5037ZM43.9518 53.6807V54.1047H43.4098V53.6807L43.4188 54.1008L42.8188 54.2007C41.6928 54.5207 39.4408 55.4537 39.4128 59.6837C39.4128 62.5837 40.5388 67.0517 44.0198 73.7927L43.6428 73.9857V73.5657H43.7138V73.9857L43.3368 73.7927C46.8228 67.0517 47.9538 62.5858 47.9488 59.6927C47.9398 56.8568 46.9128 55.5288 45.9188 54.8307C45.5006 54.5399 45.033 54.3275 44.5388 54.2037L43.9388 54.1038L43.9528 53.6837L43.9668 53.2648C44.8429 53.3283 45.6851 53.6294 46.4028 54.1357C47.6228 54.9697 48.8028 56.6468 48.7958 59.6898C48.7958 62.8078 47.6088 67.3727 44.0958 74.1797L43.7188 74.4058H43.6478L43.2708 74.1797C39.7608 67.3677 38.5788 62.8027 38.5708 59.6797C38.5618 56.6367 39.7438 54.9638 40.9588 54.1298C41.6766 53.6234 42.5187 53.3223 43.3948 53.2587H43.9648L43.9518 53.6807ZM43.8058 66.5037V66.9277H43.7728L43.3908 66.6827C41.5438 62.7257 40.9128 60.0637 40.9128 58.2267C40.8514 57.6033 40.9395 56.9742 41.1698 56.3917C41.4 55.8091 41.7658 55.2898 42.2368 54.8768C42.6381 54.5583 43.1259 54.3677 43.6368 54.3298H43.9478C44.4587 54.3677 44.9465 54.5583 45.3478 54.8768C45.8186 55.2901 46.1845 55.8093 46.4154 56.3917C46.6463 56.9741 46.7355 57.6031 46.6758 58.2267C46.6758 60.0637 46.0398 62.7267 44.1888 66.6827L43.8068 66.9277V66.5037L43.4248 66.3257C45.2478 62.4347 45.8318 59.8718 45.8318 58.2258C45.891 57.7322 45.8317 57.2316 45.6588 56.7656C45.486 56.2995 45.2045 55.8813 44.8378 55.5457L44.1828 55.2208L43.9758 55.1788L43.9188 55.1688L43.9328 54.7498V55.1738H43.6498V54.7498L43.6638 55.1688L43.3998 55.2208C42.8768 55.3948 41.7838 55.8287 41.7558 58.2267C41.7558 59.8707 42.3348 62.4377 44.1558 66.3267L43.7738 66.5057V66.0867H43.8068V66.5057L43.4248 66.3257L43.8058 66.5037ZM51.9988 21.8257L51.5798 21.8447C51.2218 12.9927 43.5388 5.24474 43.0058 4.73474L42.8838 4.43475V4.40173H43.3028L43.6028 4.70172L43.5838 4.72076L43.2588 4.84277L42.9478 4.67773L42.9338 4.65875L43.2728 4.40375H43.6918V4.43677L43.5648 4.73676C43.0278 5.24576 35.3448 12.9947 34.9818 21.8467C34.9678 22.2617 34.9578 22.6807 34.9578 23.1047V23.3688H34.5388V22.9498H52.0298V23.3688H51.6058C51.6058 22.8508 51.6058 22.3368 51.5818 21.8428L52.0008 21.8237L52.4198 21.8047C52.4478 22.3187 52.4478 22.8418 52.4478 23.3688L52.3258 23.6688L52.0258 23.7957H34.5348L34.1108 23.3768V23.1038C34.1108 22.6651 34.1201 22.2364 34.1388 21.8177C34.5578 12.5177 42.3918 4.72676 42.9768 4.14276L43.2688 4.44275H42.8498V4.40973L43.1368 4.00977L43.6078 4.15576L43.6218 4.17474L43.2828 4.42975L42.9828 4.12976L43.0018 4.11072L43.4588 4.01672L43.7178 4.40771V4.44073H43.2988L43.5988 4.14075C44.1688 4.71975 51.9988 12.5117 52.4178 21.8157L51.9988 21.8257ZM43.2128 18.8818L43.2218 19.3007H43.2028C42.3264 19.3007 41.4859 18.9526 40.8662 18.3329C40.2465 17.7132 39.8983 16.8726 39.8983 15.9962C39.8983 15.1198 40.2465 14.2793 40.8662 13.6596C41.4859 13.0399 42.3264 12.6918 43.2028 12.6918V12.9318L43.1938 12.6918H43.2028V12.9318L43.1938 12.6918H43.2128C43.6468 12.6912 44.0766 12.7761 44.4777 12.9416C44.8789 13.1071 45.2435 13.35 45.5508 13.6564C45.858 13.9629 46.1019 14.3268 46.2685 14.7275C46.4352 15.1282 46.5212 15.5578 46.5218 15.9918C46.5224 16.4257 46.4375 16.8555 46.272 17.2567C46.1065 17.6578 45.8636 18.0224 45.5571 18.3297C45.2507 18.637 44.8867 18.8809 44.486 19.0475C44.0854 19.2141 43.6558 19.3001 43.2218 19.3007H43.1798L43.2128 18.8818L43.2458 18.4628L43.2218 18.7687V18.4628H43.2458L43.2218 18.7687V18.4628C43.5492 18.4687 43.8745 18.4093 44.1787 18.288C44.4829 18.1667 44.7598 17.9859 44.9933 17.7563C45.2267 17.5266 45.412 17.2527 45.5383 16.9506C45.6646 16.6484 45.7293 16.3241 45.7287 15.9966C45.7281 15.6692 45.6622 15.3451 45.5348 15.0435C45.4074 14.7418 45.2211 14.4685 44.9868 14.2397C44.7526 14.011 44.475 13.8312 44.1704 13.711C43.8657 13.5908 43.5402 13.5326 43.2128 13.5397V13.1157L43.2318 13.5347H43.2038C42.8764 13.5281 42.5509 13.587 42.2465 13.7077C41.9421 13.8284 41.6648 14.0087 41.4309 14.2379C41.197 14.4671 41.0112 14.7407 40.8844 15.0426C40.7575 15.3445 40.6922 15.6687 40.6922 15.9962C40.6922 16.3237 40.7575 16.648 40.8844 16.9499C41.0112 17.2518 41.197 17.5254 41.4309 17.7546C41.6648 17.9838 41.9421 18.1641 42.2465 18.2848C42.5509 18.4055 42.8764 18.4644 43.2038 18.4578H43.2458L43.2128 18.8818ZM51.9988 21.8257L51.5798 21.8447C51.2218 12.9927 43.5388 5.24474 43.0058 4.73474L42.8838 4.43475V4.40173H43.3028L43.6028 4.70172L43.5838 4.72076L43.2588 4.84277L42.9478 4.67773L42.9338 4.65875L43.2728 4.40375H43.6918V4.43677L43.5648 4.73676C43.0278 5.24576 35.3448 12.9947 34.9818 21.8467C34.9678 22.2617 34.9578 22.6807 34.9578 23.1047V23.3688H34.5388V22.9498H52.0298V23.3688H51.6058C51.6058 22.8508 51.6058 22.3368 51.5818 21.8428L52.0008 21.8237L52.4198 21.8047C52.4478 22.3187 52.4478 22.8418 52.4478 23.3688L52.3258 23.6688L52.0258 23.7957H34.5348L34.1108 23.3768V23.1038C34.1108 22.6651 34.1201 22.2364 34.1388 21.8177C34.5578 12.5177 42.3918 4.72676 42.9768 4.14276L43.2688 4.44275H42.8498V4.40973L43.1368 4.00977L43.6078 4.15576L43.6218 4.17474L43.2828 4.42975L42.9828 4.12976L43.0018 4.11072L43.4588 4.01672L43.7178 4.40771V4.44073H43.2988L43.5988 4.14075C44.1688 4.71975 51.9988 12.5117 52.4178 21.8157L51.9988 21.8257ZM43.2128 18.8818L43.2218 19.3007H43.2028C42.3264 19.3007 41.4859 18.9526 40.8662 18.3329C40.2465 17.7132 39.8983 16.8726 39.8983 15.9962C39.8983 15.1198 40.2465 14.2793 40.8662 13.6596C41.4859 13.0399 42.3264 12.6918 43.2028 12.6918V12.9318L43.1938 12.6918H43.2028V12.9318L43.1938 12.6918H43.2128C43.6468 12.6912 44.0766 12.7761 44.4777 12.9416C44.8789 13.1071 45.2435 13.35 45.5508 13.6564C45.858 13.9629 46.1019 14.3268 46.2685 14.7275C46.4352 15.1282 46.5212 15.5578 46.5218 15.9918C46.5224 16.4257 46.4375 16.8555 46.272 17.2567C46.1065 17.6578 45.8636 18.0224 45.5571 18.3297C45.2507 18.637 44.8867 18.8809 44.486 19.0475C44.0854 19.2141 43.6558 19.3001 43.2218 19.3007H43.1798L43.2128 18.8818L43.2458 18.4628L43.2218 18.7687V18.4628H43.2458L43.2218 18.7687V18.4628C43.5492 18.4687 43.8745 18.4093 44.1787 18.288C44.4829 18.1667 44.7598 17.9859 44.9933 17.7563C45.2267 17.5266 45.412 17.2527 45.5383 16.9506C45.6646 16.6484 45.7293 16.3241 45.7287 15.9966C45.7281 15.6692 45.6622 15.3451 45.5348 15.0435C45.4074 14.7418 45.2211 14.4685 44.9868 14.2397C44.7526 14.011 44.475 13.8312 44.1704 13.711C43.8657 13.5908 43.5402 13.5326 43.2128 13.5397V13.1157L43.2318 13.5347H43.2038C42.8764 13.5281 42.5509 13.587 42.2465 13.7077C41.9421 13.8284 41.6648 14.0087 41.4309 14.2379C41.197 14.4671 41.0112 14.7407 40.8844 15.0426C40.7575 15.3445 40.6922 15.6687 40.6922 15.9962C40.6922 16.3237 40.7575 16.648 40.8844 16.9499C41.0112 17.2518 41.197 17.5254 41.4309 17.7546C41.6648 17.9838 41.9421 18.1641 42.2465 18.2848C42.5509 18.4055 42.8764 18.4644 43.2038 18.4578H43.2458L43.2128 18.8818ZM51.0188 35.2988L50.6038 35.2277C51.1025 32.413 51.4235 29.5697 51.5648 26.7147L51.9838 26.7338V27.1577H34.5728V26.7338L34.9918 26.7147C35.1332 29.5681 35.4542 32.4097 35.9528 35.2227L35.7128 35.6797C34.1667 36.3065 32.8558 37.4018 31.9643 38.812C31.0729 40.2222 30.6457 41.8763 30.7428 43.5417C30.7973 45.6521 31.2116 47.7378 31.9678 49.7087C32.3125 50.6619 32.7184 51.5918 33.1828 52.4927L32.8158 52.6927L32.7968 52.2737L34.4028 52.1937L34.4218 52.6127L34.0028 52.6738C33.8252 51.4839 33.7323 50.2828 33.7248 49.0798C33.7058 43.0308 36.5658 41.5097 36.6828 41.4667L36.8668 41.8488L36.4518 41.9288L36.4098 41.7117L36.7348 41.2178L37.2348 41.5377C37.8658 44.2377 38.3798 45.9898 38.3798 45.9938L37.9748 46.1118V45.6927H43.2938H48.5838V46.1118L48.1788 45.9938C48.1788 45.9938 48.6878 44.2317 49.3188 41.5367L49.8138 41.2167L50.1438 41.7017L50.1058 41.9188L49.6908 41.8477L49.8748 41.4658C49.9928 41.5078 52.8478 43.0297 52.8288 49.0737C52.8214 50.2768 52.7285 51.4778 52.5508 52.6677L52.1318 52.6068L52.1508 52.1877L53.7508 52.2678L53.7318 52.6868L53.3648 52.4868C53.8352 51.5863 54.2428 50.6544 54.5848 49.6978C55.3392 47.7268 55.7518 45.6415 55.8048 43.5317C55.904 41.8682 55.4786 40.2155 54.5886 38.8066C53.6985 37.3977 52.3887 36.3037 50.8438 35.6788L50.6038 35.2217L51.0188 35.2927L51.1928 34.9067C52.8831 35.603 54.3157 36.8067 55.2928 38.3518C56.2699 39.8969 56.7433 41.7071 56.6478 43.5327C56.4997 46.8027 55.6292 49.9992 54.0988 52.8928L53.7128 53.1097L52.1128 53.0297L51.8068 52.8787L51.7128 52.5488C51.8883 51.3996 51.9795 50.2392 51.9858 49.0767C52.0975 47.1233 51.6497 45.1786 50.6948 43.4708C50.4634 43.0957 50.1757 42.7584 49.8418 42.4708L49.5828 42.2708L49.5078 42.2288L49.2768 41.7767L49.3148 41.5598L49.7298 41.6307L50.1398 41.7247C49.5088 44.4377 48.9908 46.2247 48.9908 46.2247L48.5858 46.5308L43.2958 46.5208H37.9748L37.5698 46.2208C37.5698 46.2208 37.0468 44.4358 36.4158 41.7208L36.8258 41.6268L37.2408 41.5468L37.2828 41.7637L37.0518 42.2258L36.9768 42.2678C36.5718 42.5408 34.5768 44.0108 34.5698 49.0748C34.5761 50.2372 34.6674 51.3976 34.8428 52.5468L34.7488 52.8768L34.4428 53.0278L32.8368 53.1077L32.4508 52.8907C30.9232 49.9976 30.0529 46.8029 29.9018 43.5347C29.81 41.7093 30.2853 39.9001 31.2625 38.3555C32.2397 36.8109 33.6709 35.6066 35.3598 34.9077L35.5338 35.2938L35.1188 35.3638C34.6115 32.5172 34.2875 29.6409 34.1488 26.7527L34.2618 26.4418L34.5678 26.3148H51.9848L52.2908 26.4418L52.4038 26.7527C52.2651 29.6425 51.9411 32.5205 51.4338 35.3688L51.0188 35.2977L51.1928 34.9117L51.0188 35.2988ZM51.0188 35.2988L50.6038 35.2277C51.1025 32.413 51.4235 29.5697 51.5648 26.7147L51.9838 26.7338V27.1577H34.5728V26.7338L34.9918 26.7147C35.1332 29.5681 35.4542 32.4097 35.9528 35.2227L35.7128 35.6797C34.1667 36.3065 32.8558 37.4018 31.9643 38.812C31.0729 40.2222 30.6457 41.8763 30.7428 43.5417C30.7973 45.6521 31.2116 47.7378 31.9678 49.7087C32.3125 50.6619 32.7184 51.5918 33.1828 52.4927L32.8158 52.6927L32.7968 52.2737L34.4028 52.1937L34.4218 52.6127L34.0028 52.6738C33.8252 51.4839 33.7323 50.2828 33.7248 49.0798C33.7058 43.0308 36.5658 41.5097 36.6828 41.4667L36.8668 41.8488L36.4518 41.9288L36.4098 41.7117L36.7348 41.2178L37.2348 41.5377C37.8658 44.2377 38.3798 45.9898 38.3798 45.9938L37.9748 46.1118V45.6927H43.2938H48.5838V46.1118L48.1788 45.9938C48.1788 45.9938 48.6878 44.2317 49.3188 41.5367L49.8138 41.2167L50.1438 41.7017L50.1058 41.9188L49.6908 41.8477L49.8748 41.4658C49.9928 41.5078 52.8478 43.0297 52.8288 49.0737C52.8214 50.2768 52.7285 51.4778 52.5508 52.6677L52.1318 52.6068L52.1508 52.1877L53.7508 52.2678L53.7318 52.6868L53.3648 52.4868C53.8352 51.5863 54.2428 50.6544 54.5848 49.6978C55.3392 47.7268 55.7518 45.6415 55.8048 43.5317C55.904 41.8682 55.4786 40.2155 54.5886 38.8066C53.6985 37.3977 52.3887 36.3037 50.8438 35.6788L50.6038 35.2217L51.0188 35.2927L51.1928 34.9067C52.8831 35.603 54.3157 36.8067 55.2928 38.3518C56.2699 39.8969 56.7433 41.7071 56.6478 43.5327C56.4997 46.8027 55.6292 49.9992 54.0988 52.8928L53.7128 53.1097L52.1128 53.0297L51.8068 52.8787L51.7128 52.5488C51.8883 51.3996 51.9795 50.2392 51.9858 49.0767C52.0975 47.1233 51.6497 45.1786 50.6948 43.4708C50.4634 43.0957 50.1757 42.7584 49.8418 42.4708L49.5828 42.2708L49.5078 42.2288L49.2768 41.7767L49.3148 41.5598L49.7298 41.6307L50.1398 41.7247C49.5088 44.4377 48.9908 46.2247 48.9908 46.2247L48.5858 46.5308L43.2958 46.5208H37.9748L37.5698 46.2208C37.5698 46.2208 37.0468 44.4358 36.4158 41.7208L36.8258 41.6268L37.2408 41.5468L37.2828 41.7637L37.0518 42.2258L36.9768 42.2678C36.5718 42.5408 34.5768 44.0108 34.5698 49.0748C34.5761 50.2372 34.6674 51.3976 34.8428 52.5468L34.7488 52.8768L34.4428 53.0278L32.8368 53.1077L32.4508 52.8907C30.9232 49.9976 30.0529 46.8029 29.9018 43.5347C29.81 41.7093 30.2853 39.9001 31.2625 38.3555C32.2397 36.8109 33.6709 35.6066 35.3598 34.9077L35.5338 35.2938L35.1188 35.3638C34.6115 32.5172 34.2875 29.6409 34.1488 26.7527L34.2618 26.4418L34.5678 26.3148H51.9848L52.2908 26.4418L52.4038 26.7527C52.2651 29.6425 51.9411 32.5205 51.4338 35.3688L51.0188 35.2977L51.1928 34.9117L51.0188 35.2988Z" fill="white"/>
</g>
</svg>
