<svg width="85" height="92" viewBox="0 0 85 92" fill="none" xmlns="http://www.w3.org/2000/svg">
<g id="Group 13834">
<path id="Vector" d="M8.52652 40.2682C8.52652 40.2682 7.05261 53.4498 16.836 63.7074C26.6181 73.9671 41.8388 76.6879 54.1134 79.2159C66.388 81.7439 76.9156 76.09 79.8728 65.7703C82.8299 55.4505 73.8055 51.0676 70.4007 38.394C66.9958 25.7204 68.0231 21.8484 58.2165 12.9984C48.41 4.14842 30.7461 6.34149 20.0019 17.7336C9.25763 29.1257 8.52652 40.2682 8.52652 40.2682Z" fill="#7B1FA2"/>
<path id="Path 34332" d="M44.3403 32.4758H44.7823C44.7827 33.145 44.5845 33.7994 44.213 34.356C43.8414 34.9127 43.313 35.3465 42.6948 35.6028C42.0766 35.8591 41.3962 35.9263 40.7398 35.7958C40.0833 35.6654 39.4804 35.3432 39.0071 34.8699C38.5339 34.3967 38.2116 33.7937 38.0812 33.1373C37.9507 32.4808 38.0179 31.8005 38.2742 31.1823C38.5305 30.564 38.9644 30.0356 39.521 29.6641C40.0777 29.2925 40.732 29.0944 41.4013 29.0948C42.2976 29.0958 43.157 29.4524 43.7908 30.0862C44.4247 30.72 44.7812 31.5794 44.7823 32.4758H43.8973C43.8973 31.9813 43.7506 31.498 43.4759 31.0869C43.2012 30.6757 42.8108 30.3553 42.354 30.1661C41.8972 29.9769 41.3945 29.9273 40.9095 30.0238C40.4246 30.1203 39.9791 30.3584 39.6295 30.708C39.2799 31.0576 39.0418 31.5031 38.9453 31.988C38.8488 32.473 38.8983 32.9757 39.0876 33.4325C39.2768 33.8893 39.5972 34.2797 40.0083 34.5544C40.4195 34.8291 40.9028 34.9758 41.3973 34.9758C42.0603 34.9758 42.6962 34.7124 43.165 34.2435C43.6339 33.7747 43.8973 33.1388 43.8973 32.4758H44.3403ZM48.0143 44.2137L47.5723 44.2438C47.5723 44.2388 47.2893 40.2317 47.1843 39.6747C47.1672 39.3998 47.0961 39.1309 46.975 38.8834C46.8538 38.636 46.685 38.4149 46.4783 38.2328C45.7275 37.7533 44.895 37.416 44.0223 37.2378L44.1413 36.8098L44.5293 37.0338C43.0673 39.5598 42.3023 41.0208 42.2973 41.0258L41.9043 41.2648H40.9043L40.5113 41.0258C40.5113 41.0258 39.7403 39.5588 38.2793 37.0338L38.6673 36.8098L38.7863 37.2378C37.9135 37.416 37.081 37.7533 36.3303 38.2328C36.1235 38.4149 35.9547 38.636 35.8336 38.8834C35.7124 39.1309 35.6413 39.3998 35.6243 39.6747C35.5243 40.2317 35.2413 44.2388 35.2363 44.2438L34.7943 44.2137V43.7708H48.0143V44.2137V44.6608H34.7893L34.4663 44.5168L34.3473 44.1838C34.3473 44.1688 34.6203 40.2307 34.7473 39.5157C34.8205 38.7501 35.1875 38.0426 35.7713 37.5417C36.6124 36.9801 37.5545 36.5869 38.5453 36.3838L39.0453 36.5837C40.5123 39.1187 41.2923 40.6008 41.2923 40.6058L40.8993 40.8148V40.3727H41.8993V40.8148L41.5063 40.6058C41.5063 40.6058 42.2873 39.1187 43.7483 36.5837L44.2553 36.3838C45.2481 36.5875 46.1919 36.9821 47.0343 37.5458C47.618 38.0466 47.985 38.7541 48.0583 39.5198C48.1823 40.2358 48.4583 44.1737 48.4583 44.1877L48.3393 44.5208L48.0163 44.6647L48.0143 44.2137ZM37.7873 41.8718L37.6533 44.2037L37.1863 44.6208L36.7683 44.1537L36.9023 41.8218L37.3693 41.4037L37.7873 41.8718ZM45.1503 44.2037L45.0163 41.8718L45.4343 41.4048L45.9013 41.8228L46.0353 44.1548L45.6173 44.6218L45.1503 44.2037ZM49.9283 47.1038L50.2283 47.4268C48.0592 49.4517 45.2589 50.6677 42.2984 50.87C39.338 51.0723 36.3983 50.2486 33.9739 48.5375C31.5496 46.8265 29.7887 44.3325 28.9876 41.4753C28.1865 38.6182 28.3941 35.5723 29.5755 32.8503C30.7569 30.1283 32.8399 27.8963 35.4739 26.53C38.108 25.1637 41.1323 24.7465 44.0379 25.3486C46.9435 25.9508 49.553 27.5354 51.4272 29.8359C53.3014 32.1365 54.3259 35.0124 54.3283 37.9797C54.3308 39.7516 53.968 41.5051 53.2626 43.1305C52.5572 44.7559 51.5242 46.2184 50.2283 47.4268L49.9283 47.1038L49.6283 46.7808C51.6822 44.8664 53.0036 42.2952 53.3646 39.5107C53.7255 36.7263 53.1034 33.9031 51.6054 31.5283C50.1075 29.1535 47.8277 27.376 45.1593 26.5023C42.4909 25.6286 39.6013 25.7137 36.9889 26.7427C34.3765 27.7717 32.2051 29.6801 30.8494 32.1389C29.4936 34.5976 29.0385 37.4524 29.5624 40.2109C30.0864 42.9693 31.5567 45.4584 33.7196 47.2487C35.8826 49.0391 38.6025 50.0184 41.4103 50.0178C44.4614 50.022 47.3997 48.8646 49.6283 46.7808L49.9283 47.1038ZM61.7563 18.4868V18.9338H37.0613C36.7474 18.9353 36.4467 19.0605 36.2244 19.282C36.002 19.5036 35.8759 19.8038 35.8733 20.1177V27.0338H35.4343L35.2203 26.6407C37.1877 25.5718 39.3992 25.0327 41.6378 25.0762C43.8764 25.1197 46.0653 25.7444 47.9897 26.8889C49.9141 28.0335 51.5079 29.6586 52.6149 31.6049C53.7218 33.5511 54.3038 35.7517 54.3038 37.9908C54.3038 40.2298 53.7218 42.4304 52.6149 44.3766C51.5079 46.3229 49.9141 47.948 47.9897 49.0926C46.0653 50.2371 43.8764 50.8618 41.6378 50.9053C39.3992 50.9488 37.1877 50.4097 35.2203 49.3408L35.4343 48.9478H35.8763V58.2748C35.8794 58.5889 36.0056 58.8892 36.2277 59.1113C36.4498 59.3334 36.7502 59.4596 37.0643 59.4628H67.1903C67.5044 59.4596 67.8047 59.3334 68.0268 59.1113C68.249 58.8892 68.3751 58.5889 68.3783 58.2748V25.7347L61.4423 18.7988L61.7553 18.4858L62.0683 18.1728L69.1343 25.2458L69.2633 25.5588V58.2828C69.2638 58.8332 69.0457 59.3613 68.657 59.751C68.2682 60.1406 67.7407 60.36 67.1903 60.3608H37.0613C36.5105 60.3595 35.9828 60.1401 35.5933 59.7507C35.2039 59.3613 34.9846 58.8335 34.9833 58.2828V48.9558L35.2023 48.5728L35.6443 48.5627C37.4767 49.5614 39.5375 50.0663 41.6241 50.0277C43.7107 49.9892 45.7513 49.4085 47.5457 48.3429C49.3401 47.2773 50.8264 45.7633 51.8587 43.9495C52.891 42.1358 53.4338 40.0847 53.4338 37.9977C53.4338 35.9108 52.891 33.8598 51.8587 32.046C50.8264 30.2323 49.3401 28.7182 47.5457 27.6526C45.7513 26.5869 43.7107 26.0064 41.6241 25.9678C39.5375 25.9293 37.4767 26.4341 35.6443 27.4327L35.2023 27.4228L34.9833 27.0397V20.1238C34.9841 19.5734 35.2034 19.0458 35.5931 18.657C35.9827 18.2683 36.5108 18.0503 37.0613 18.0508H61.7563L62.0693 18.1797L61.7563 18.4868ZM61.7663 23.9407H62.2083C62.2114 24.2557 62.3383 24.5569 62.5615 24.7791C62.7846 25.0014 63.0863 25.127 63.4013 25.1288H68.8203V25.5718H68.3783V25.5518H68.8203L68.5073 25.8647L62.2073 19.5707L62.2083 23.9407H61.3173V18.4968L61.5953 18.0837L62.0773 18.1838L69.1343 25.2458L69.2633 25.5588V25.5787L69.1343 25.8918L68.8213 26.0258H63.4023C62.8508 26.0252 62.3221 25.8063 61.9317 25.4169C61.5413 25.0274 61.3211 24.4992 61.3193 23.9478L61.7663 23.9407ZM39.4343 53.6258H59.4643L59.9063 54.0688L59.4643 54.5157H39.4343L38.9873 54.0688L39.4343 53.6258ZM65.3973 52.2737V52.7217H62.0793V55.4218H64.9533V52.2748H65.4003H65.8423V55.8647L65.7133 56.1777L65.4003 56.3118H61.6343L61.3213 56.1777L61.1873 55.8647V52.2748L61.3213 51.9618L61.6343 51.8328H65.3983L65.7113 51.9618L65.8403 52.2748L65.3973 52.2737ZM54.2243 46.4167H59.4643L59.9063 46.8588L59.4643 47.3058H54.2243L53.7773 46.8588L54.2243 46.4167ZM65.4013 45.0598V45.5068H62.0793V48.2068H64.9533V45.0548H65.4003H65.8423V48.6487L65.7133 48.9628L65.4003 49.0967H61.6343L61.3213 48.9628L61.1873 48.6487V45.0548L61.3213 44.7418L61.6343 44.6128H65.3983L65.7113 44.7418L65.8403 45.0548L65.4013 45.0598ZM56.3773 39.2028H59.4643L59.9063 39.6458L59.4643 40.0928H56.3773L55.9343 39.6458L56.3773 39.2028ZM65.4013 37.8458V38.2938H62.0793V40.9938H64.9533V37.8458H65.4013H65.8423V41.4348L65.7133 41.7477L65.4003 41.8818H61.6343L61.3213 41.7477L61.1873 41.4348V37.8458L61.3213 37.5328L61.6343 37.4037H65.3983L65.7113 37.5328L65.8403 37.8458H65.4013ZM55.1293 31.9838H59.4643L59.9063 32.4258L59.4643 32.8738H55.1293L54.6873 32.4258L55.1293 31.9838ZM65.4013 30.6318V31.0787H62.0793V33.7787H64.9533V30.6318H65.4013H65.8423V34.2217L65.7133 34.5348L65.4003 34.6688H61.6343L61.3213 34.5348L61.1873 34.2217V30.6318L61.3213 30.3188L61.6343 30.1898H65.3983L65.7113 30.3188L65.8403 30.6318H65.4013ZM23.2553 55.6838L22.9273 55.9838L22.4653 55.4838L22.2913 55.6428L22.4553 55.8218L22.9553 55.3588L23.2553 55.6818L23.5553 56.0048L22.7353 56.7708L22.1093 56.7508L21.3333 55.9258L21.2143 55.6078L21.3533 55.2947L22.1833 54.5237L22.5013 54.4098L22.8143 54.5488L23.5803 55.3788L23.5553 56.0048L23.2553 55.6838ZM25.0253 54.0287L24.7023 54.3287L24.2353 53.8287L24.0563 53.9927L24.2203 54.1718L24.7203 53.6998L25.0203 54.0228L25.3203 54.3458L24.4953 55.1208L23.8693 55.1008L23.0933 54.2758L22.9743 53.9578L23.1133 53.6448L23.9433 52.8748L24.5693 52.8998L25.3403 53.7198L25.3203 54.3458L25.0253 54.0287ZM25.9703 53.1537L25.6473 53.4537L24.8713 52.6288L24.7523 52.3108L24.8913 52.0027L25.7163 51.2328L26.3423 51.2527L27.1183 52.0778L27.2373 52.3958L27.0983 52.7037L26.2733 53.4748L25.6473 53.4548L25.9703 53.1548L25.6703 52.8318L26.1703 52.3647L26.0063 52.1858L25.8323 52.3498L26.2993 52.8498L25.9763 53.1498L25.6763 52.8268L25.9703 53.1537ZM29.0533 54.6258L28.7533 54.3027L31.0533 52.1498L31.2673 51.6498L31.0833 51.1827L30.5413 50.6058L30.4223 50.2878L30.5613 49.9797L33.2213 47.4938L33.5213 47.8168L33.2433 48.1647C32.7474 47.773 32.2821 47.3441 31.8513 46.8818C31.4164 46.417 31.0154 45.9218 30.6513 45.3998L31.0193 45.1468L31.3193 45.4698L28.6593 47.9558L28.0333 47.9358L27.4863 47.3538L26.9943 47.1448L26.5273 47.3238L24.2343 49.4788L20.2223 53.2178C19.8927 53.5281 19.6302 53.9024 19.4506 54.3179C19.2711 54.7333 19.1784 55.1812 19.1783 55.6338C19.1806 56.2771 19.3705 56.9057 19.7247 57.4427C20.0789 57.9797 20.582 58.4017 21.1725 58.657C21.7629 58.9124 22.415 58.99 23.0489 58.8804C23.6828 58.7707 24.2709 58.4786 24.7413 58.0397L28.7483 54.3008L29.0483 54.6238L29.3483 54.9468L25.3413 58.6907C24.528 59.4482 23.4477 59.8526 22.3369 59.8151C21.2262 59.7776 20.1756 59.3014 19.4153 58.4908C18.6851 57.7186 18.2792 56.6955 18.2813 55.6328C18.2808 55.0585 18.3984 54.4903 18.6266 53.9634C18.8549 53.4365 19.189 52.9622 19.6083 52.5698L23.6203 48.8257L25.9273 46.6777L27.0013 46.2548L28.1403 46.7468L28.3843 47.0057L30.7213 44.8238L31.0743 44.7048L31.3923 44.8937C31.726 45.3822 32.0967 45.8442 32.5013 46.2758C32.9018 46.7052 33.334 47.104 33.7943 47.4688L33.9583 47.8018L33.8193 48.1398L31.4873 50.3218L31.7213 50.5757L32.1393 51.6498L31.6393 52.7928L29.3393 54.9457L29.0533 54.6258Z" fill="white"/>
</g>
</svg>
