<svg width="16" height="20" viewBox="0 0 16 20" fill="none" xmlns="http://www.w3.org/2000/svg">
<path d="M7.99902 10C6.89902 10 5.99902 9.1 5.99902 8C5.99902 6.9 6.89902 6 7.99902 6C9.09902 6 9.99902 6.9 9.99902 8C9.99902 9.1 9.09902 10 7.99902 10ZM13.999 8.2C13.999 4.57 11.349 2 7.99902 2C4.64902 2 1.99902 4.57 1.99902 8.2C1.99902 10.54 3.94902 13.64 7.99902 17.34C12.049 13.64 13.999 10.54 13.999 8.2ZM7.99902 0C12.199 0 15.999 3.22 15.999 8.2C15.999 11.52 13.329 15.45 7.99902 20C2.66902 15.45 -0.000976562 11.52 -0.000976562 8.2C-0.000976562 3.22 3.79902 0 7.99902 0Z" fill="black"/>
</svg>
