<svg width="61" height="61" viewBox="0 0 61 61" fill="none" xmlns="http://www.w3.org/2000/svg">
<rect x="1" y="1" width="59" height="59" rx="29.5" fill="#FEFFC5" stroke="white"/>
<g clip-path="url(#clip0_5645_1206)">
<path d="M17.6132 18C24.3134 18 31.0136 18 37.7137 18C37.7231 18 37.7325 18.0004 37.7419 18.0016C37.8109 18.0093 37.8798 18.0218 37.9488 18.0218C40.384 18.0254 42.8191 18.0303 45.2543 18.0262C45.5123 18.0258 45.7494 18.0682 45.9841 18.1682C47.0209 18.6108 47.6731 19.3773 47.8911 20.4673C47.9744 20.8841 47.9576 21.3238 47.9597 21.753C47.978 25.928 47.9988 30.1026 48.0009 34.2776C48.0017 36.227 47.9793 38.1767 47.9352 40.126C47.9095 41.2617 47.325 42.0867 46.34 42.651C45.7886 42.9673 45.182 42.9637 44.5775 42.9673C42.0677 42.9818 39.5578 43 37.048 43.0004C33.0144 43.0012 28.9809 42.9883 24.9473 42.9822C21.7913 42.9774 18.6394 42.9774 15.483 42.9722C15.4034 42.9722 15.3103 42.9673 15.2418 42.9342C14.6666 42.7705 14.6577 42.6696 14.3989 42.4897C13.6462 41.9664 13.1662 41.2572 13.0817 40.3382C13.0323 39.8037 13.0413 39.2635 13.038 38.7258C13.0217 36.0027 12.9948 33.28 13.0009 30.5573C13.0082 27.2968 13.0437 24.0364 13.0727 20.7759C13.0744 20.5908 13.1095 20.4008 13.1593 20.2216C13.5225 18.9178 14.5724 18.0984 15.9357 18.0508C16.3365 18.0367 16.7381 18.0387 17.1394 18.029C17.2916 18.0254 17.4438 18.0105 17.5961 18.0004C17.6018 18.0004 17.6075 18 17.6132 18ZM30.4903 40.4254C30.4903 40.4286 30.4903 40.4318 30.4903 40.435C34.5377 40.435 38.5852 40.4375 42.633 40.433C43.3742 40.4322 44.1159 40.4117 44.8567 40.385C45.1776 40.3733 45.3588 40.3532 45.358 39.8912C45.3474 33.6116 45.3506 27.3315 45.3506 21.0515C45.3506 20.7219 45.2784 20.6311 44.9433 20.6206C43.9983 20.5912 43.0534 20.5561 42.1081 20.5545C36.4957 20.5448 30.8838 20.5411 25.2714 20.5416C22.8428 20.5416 20.4145 20.5528 17.9859 20.5666C17.3332 20.5702 16.6806 20.5968 16.0283 20.6226C15.7459 20.6339 15.6556 20.7392 15.6556 21.0055C15.6556 27.3392 15.6556 33.6729 15.6556 40.0066C15.6556 40.2325 15.7103 40.3116 15.9189 40.3592C15.9957 40.3766 16.074 40.385 16.1524 40.3883C16.503 40.402 16.854 40.4238 17.2051 40.4238C21.6333 40.4262 26.062 40.4254 30.4903 40.4254Z" fill="#967604"/>
<path d="M26.2433 26.0266C26.0653 26.1581 25.8776 26.2796 25.7106 26.4236C25.3216 26.7592 24.9335 27.0973 24.5632 27.4531C24.4143 27.5963 24.2673 27.6488 24.0628 27.6496C22.7705 27.6532 21.4787 27.6693 20.1864 27.6814C20.1329 27.6818 20.0791 27.6814 19.9921 27.6814V33.6464H26.0506C26.0506 33.5782 26.0506 33.5068 26.0506 33.4358C26.0506 32.8041 26.049 32.1719 26.0531 31.5402C26.0535 31.4635 26.0645 31.374 26.1049 31.313C26.5698 30.6087 27.0637 29.9257 27.667 29.327C27.6858 29.3084 27.7074 29.2931 27.747 29.2608C27.7539 29.3282 27.7629 29.3774 27.7629 29.427C27.7629 30.8588 27.7645 32.2909 27.7605 33.7227C27.7596 34.0115 27.7437 34.3008 27.7221 34.5888C27.689 35.0241 27.5147 35.2375 27.078 35.2795C26.531 35.3319 25.9792 35.3509 25.429 35.3533C23.2865 35.363 21.144 35.3606 19.0015 35.3626C18.6427 35.3626 18.2721 34.9983 18.2713 34.6425C18.266 32.2361 18.259 29.8293 18.2598 27.4229C18.2598 27.1352 18.2839 26.8447 18.328 26.5603C18.3831 26.2049 18.5296 26.0553 18.8901 26.0319C19.5611 25.9883 20.2342 25.9588 20.9068 25.9556C22.5461 25.9483 24.1849 25.9588 25.8241 25.9637C25.9592 25.9637 26.0943 25.9746 26.2298 25.9806C26.2343 25.996 26.2388 26.0117 26.2429 26.027L26.2433 26.0266Z" fill="#967604"/>
<path d="M36.9112 29.1995C35.2315 29.1781 33.5519 29.1603 31.8723 29.1341C31.2833 29.1248 30.9714 28.74 31.0682 28.1663C31.1196 27.8605 31.3861 27.5838 31.7192 27.5624C32.3633 27.5208 33.0095 27.4918 33.6544 27.4922C36.2524 27.4938 38.8504 27.5071 41.4484 27.5216C41.6852 27.5229 41.9215 27.5737 42.1586 27.5809C42.6856 27.5971 42.9232 28.4402 42.6431 28.7517C42.526 28.882 42.4129 29.0183 42.2807 29.1321C42.2293 29.1765 42.1305 29.1797 42.0533 29.1797C40.3394 29.1821 38.6251 29.1817 36.9112 29.1817C36.9112 29.1878 36.9112 29.1934 36.9112 29.1995Z" fill="#967604"/>
<path d="M23.6793 30.0849C23.923 29.7682 24.145 29.4636 24.3834 29.1723C25.6112 27.674 27.0908 26.5009 28.9092 25.7699C29.046 25.715 29.1954 25.661 29.339 25.6602C29.4407 25.6598 29.5921 25.7255 29.6321 25.8054C29.6778 25.8966 29.668 26.07 29.6056 26.1479C29.4725 26.3133 29.2974 26.4497 29.1268 26.5816C27.5549 27.7963 26.1867 29.1925 25.1544 30.8937C24.9487 31.2326 24.7304 31.5687 24.4797 31.8753C24.1246 32.3093 23.6899 32.3335 23.3111 31.9277C22.7352 31.3109 22.1854 30.6694 21.636 30.0292C21.4376 29.798 21.4752 29.4406 21.6866 29.2163C21.8882 29.0025 22.1744 28.9654 22.4417 29.1558C22.7556 29.3793 23.0479 29.6322 23.3532 29.8678C23.4528 29.9449 23.563 30.0082 23.6797 30.0853L23.6793 30.0849Z" fill="#967604"/>
<path d="M35.0625 32.9705C34.0017 32.9705 32.9412 32.9705 31.8804 32.9705C31.4906 32.9705 31.0893 32.6066 31.053 32.2201C31.0073 31.7384 31.3404 31.3289 31.8208 31.3261C33.9486 31.314 36.076 31.31 38.2038 31.314C38.681 31.3148 38.9777 31.5621 39.0634 31.9639C39.1418 32.3306 38.9295 32.7538 38.5642 32.9422C38.5087 32.9709 38.4336 32.9688 38.3671 32.9688C37.2654 32.9705 36.1642 32.9701 35.0625 32.9701V32.9705Z" fill="#967604"/>
</g>
<defs>
<clipPath id="clip0_5645_1206">
<rect width="35" height="25" fill="white" transform="translate(13 18)"/>
</clipPath>
</defs>
</svg>
