<svg width="24" height="25" viewBox="0 0 24 25" fill="none" xmlns="http://www.w3.org/2000/svg">
<g clip-path="url(#clip0_3780_17895)">
<path d="M-0.000310458 24.2306C0.657116 22.2699 1.26216 20.6369 1.731 18.9672C1.88815 18.4062 1.87506 17.6644 1.63409 17.1481C-0.508441 12.498 0.266851 7.36037 3.719 3.81122C7.16852 0.267315 12.4306 -0.754965 16.9775 1.23455C21.459 3.19523 24.2119 7.67754 23.984 12.6474C23.6199 20.5871 15.0655 25.8322 7.58236 22.6657C6.75206 22.3145 6.06321 22.2752 5.23291 22.5661C3.60375 23.1402 1.94054 23.6199 -0.00292969 24.2306H-0.000310458ZM3.02752 21.2922C3.81067 21.0511 4.39476 20.9121 4.9448 20.6893C6.03701 20.249 6.98256 20.3014 8.13764 20.7968C9.4944 21.3813 11.0738 21.6828 12.5589 21.6828C16.878 21.6906 20.5868 18.6815 21.7576 14.4718C22.8891 10.4062 21.2469 6.10218 17.6638 3.72996C14.0597 1.34726 9.31105 1.59104 5.95058 4.33023C2.60844 7.05631 1.23073 11.6828 3.10086 15.5176C4.01497 17.3944 3.97568 18.9121 3.21872 20.6395C3.16634 20.7575 3.14277 20.8885 3.0249 21.2922H3.02752Z" fill="#12A312"/>
<path d="M5.96063 9.27187C6.28541 8.63491 6.48709 7.88261 6.95593 7.38196C7.84647 6.43307 8.83654 6.69258 9.35515 7.87737C9.7978 8.89179 10.5024 9.87999 9.35515 10.9337C9.20847 11.07 9.30276 11.7411 9.50445 11.9403C10.4552 12.8734 11.4532 13.7699 12.4956 14.6008C13.1478 15.1198 13.8445 15.0045 14.2583 14.2417C14.7141 13.4003 15.2825 13.4318 15.9792 13.859C16.0159 13.8826 16.063 13.8905 16.097 13.9167C16.7414 14.4567 18.1715 14.2758 17.776 15.7778C17.501 16.821 16.3694 17.6388 15.086 17.6624C11.8094 17.7253 6.58662 13.2509 6.16755 10.0189C6.13873 9.80398 6.14397 9.58379 6.1335 9.36623C6.07587 9.33478 6.01563 9.30332 5.95801 9.27187H5.96063Z" fill="#12A312"/>
</g>
<defs>
<clipPath id="clip0_3780_17895">
<rect width="24" height="24" fill="white" transform="translate(0 0.230469)"/>
</clipPath>
</defs>
</svg>
