<svg width="101" height="24" viewBox="0 0 101 24" fill="none" xmlns="http://www.w3.org/2000/svg">
<g id="Group">
<path id="Subtract" fill-rule="evenodd" clip-rule="evenodd" d="M28.9069 1.5026C30.2818 1.87297 31.3625 2.95354 31.7278 4.32347C32.3925 6.80949 32.3925 11.9998 32.3925 11.9998C32.3925 11.9998 32.3925 17.1901 31.7278 19.6761C31.3574 21.051 30.2769 22.1317 28.9069 22.497C26.4209 23.1617 16.4463 23.1617 16.4463 23.1617C16.4463 23.1617 6.47672 23.1617 3.98558 22.497C2.61067 22.1266 1.52997 21.046 1.16471 19.6761C0.5 17.1901 0.5 11.9997 0.5 11.9997C0.5 11.9997 0.5 6.80949 1.16471 4.32347C1.53508 2.94856 2.61578 1.86786 3.98558 1.5026C6.47672 0.837891 16.4463 0.837891 16.4463 0.837891C16.4463 0.837891 26.4209 0.837891 28.9069 1.5026ZM21.5452 11.9998L13.2601 16.7842V7.21545L21.5452 11.9998Z" fill="#FF0000"/>
<g id="Group_2">
<path id="Vector" fill-rule="evenodd" clip-rule="evenodd" d="M46.7913 21.1471C46.1621 20.721 45.7106 20.0614 45.4468 19.1635C45.1829 18.2654 45.0459 17.0731 45.0459 15.5814V13.552C45.0459 12.0452 45.1981 10.8377 45.5025 9.92433C45.807 9.01118 46.2839 8.34661 46.9282 7.93048C47.5726 7.51448 48.4199 7.30143 49.4701 7.30143C50.5051 7.30143 51.3322 7.51448 51.9561 7.9407C52.5801 8.3668 53.0368 9.0315 53.326 9.93456C53.6152 10.8377 53.7573 12.0452 53.7573 13.5469V15.5764C53.7573 17.068 53.6152 18.2654 53.3361 19.1684C53.0571 20.0715 52.6006 20.7362 51.9663 21.1522C51.3371 21.5682 50.4797 21.7815 49.399 21.7815C48.293 21.7864 47.4204 21.5733 46.7913 21.1471ZM50.3275 18.9554C50.5 18.4988 50.5914 17.7529 50.5914 16.7231V12.3649C50.5914 11.3602 50.5051 10.6297 50.3275 10.1629C50.1551 9.70119 49.8455 9.46782 49.4041 9.46782C48.978 9.46782 48.6786 9.70119 48.5011 10.1629C48.3285 10.6246 48.2373 11.3602 48.2373 12.3649V16.7231C48.2373 17.758 48.3184 18.5039 48.4858 18.9554C48.6533 19.412 48.9577 19.6403 49.3991 19.6403C49.8455 19.6403 50.15 19.412 50.3275 18.9554ZM95.2286 15.6169V16.3223C95.2286 17.2202 95.254 17.8899 95.3098 18.3414C95.3605 18.788 95.4722 19.1177 95.6396 19.3208C95.807 19.5236 96.0657 19.6302 96.4157 19.6302C96.8877 19.6302 97.2123 19.4476 97.3849 19.0822C97.5574 18.7169 97.6536 18.1081 97.669 17.2557L100.383 17.4131C100.399 17.5347 100.404 17.7022 100.404 17.9152C100.404 19.2091 100.048 20.173 99.3432 20.8122C98.638 21.4515 97.6385 21.7712 96.3448 21.7712C94.7922 21.7712 93.7066 21.2841 93.0825 20.31C92.4584 19.3359 92.149 17.8341 92.149 15.7946V13.3542C92.149 11.2537 92.4736 9.72649 93.1179 8.75762C93.7623 7.7936 94.8683 7.31153 96.4362 7.31153C97.5168 7.31153 98.3438 7.5095 98.9221 7.90518C99.5005 8.30085 99.9064 8.91469 100.145 9.75193C100.378 10.589 100.5 11.7459 100.5 13.2172V15.6119H95.2286V15.6169ZM95.6294 9.7316C95.472 9.92957 95.3656 10.2542 95.3097 10.7007C95.2539 11.1472 95.2286 11.8322 95.2286 12.7402V13.7449H97.532V12.7402C97.532 11.8421 97.5015 11.1624 97.4406 10.7007C97.3797 10.239 97.2682 9.90925 97.1108 9.72151C96.9535 9.53377 96.7049 9.4374 96.3701 9.4374C96.0353 9.43229 95.7867 9.53377 95.6294 9.7316ZM39.1301 15.3531L35.5483 2.42064H38.6735L39.9267 8.28066C40.2464 9.72662 40.4797 10.9544 40.632 11.9742H40.7232C40.8298 11.2435 41.0632 10.0208 41.4286 8.30085L42.7273 2.41553H45.8526L42.2301 15.3531V21.5581H39.1301V15.3531ZM63.9196 7.57544V21.553H61.4589L61.1849 19.8432H61.1189C60.4492 21.137 59.4447 21.7814 58.1103 21.7814C57.182 21.7814 56.4969 21.4769 56.0556 20.8681C55.6142 20.2592 55.396 19.3106 55.396 18.0168V7.57544H58.5417V17.8392C58.5417 18.4632 58.6076 18.9098 58.7446 19.1736C58.8816 19.4373 59.1099 19.5743 59.4295 19.5743C59.7035 19.5743 59.9673 19.4931 60.2159 19.3258C60.4644 19.1583 60.6522 18.9452 60.774 18.6865V7.57531L63.9196 7.57544ZM80.0637 7.57544V21.553H77.603L77.329 19.8432H77.263C76.5933 21.137 75.5888 21.7814 74.2544 21.7814C73.326 21.7814 72.641 21.4769 72.1997 20.8681C71.7583 20.2592 71.5401 19.3106 71.5401 18.0168V7.57544H74.6857V17.8392C74.6857 18.4632 74.7517 18.9098 74.8887 19.1736C75.0256 19.4373 75.254 19.5743 75.5736 19.5743C75.8476 19.5743 76.1114 19.4931 76.36 19.3258C76.6085 19.1583 76.7963 18.9452 76.9181 18.6865V7.57531L80.0637 7.57544Z" fill="#282828"/>
<path id="Vector_2" fill-rule="evenodd" clip-rule="evenodd" d="M72.4738 4.95257H69.3485V21.5532H66.2688V4.95257H63.1436V2.42092H72.4687V4.95257H72.4738ZM90.4798 9.81292C90.2871 8.93018 89.9827 8.29091 89.5565 7.89524C89.1304 7.49943 88.5469 7.30159 87.801 7.30159C87.2228 7.30159 86.6849 7.4639 86.1826 7.79376C85.6803 8.11838 85.2947 8.54971 85.0207 9.0824H84.9954V1.71558H81.9614V21.5583H84.559L84.8786 20.2341H84.9447C85.1882 20.706 85.5534 21.0763 86.0405 21.3502C86.5275 21.6242 87.0655 21.7612 87.659 21.7612C88.7245 21.7612 89.5057 21.269 90.0081 20.2898C90.5103 19.3107 90.759 17.7785 90.759 15.6933V13.4811C90.7641 11.9185 90.6676 10.6958 90.4798 9.81305V9.81292ZM87.593 15.5156C87.593 16.5355 87.5524 17.332 87.4662 17.9104C87.385 18.4888 87.243 18.8997 87.0451 19.1433C86.8472 19.3868 86.5834 19.5086 86.2485 19.5086C85.9897 19.5086 85.7514 19.4477 85.5281 19.3259C85.31 19.2041 85.1273 19.0215 84.9903 18.7779V10.8379C85.0969 10.4573 85.2795 10.1479 85.5383 9.90443C85.797 9.66083 86.076 9.53904 86.3804 9.53904C86.7001 9.53904 86.9486 9.66582 87.1212 9.91439C87.2937 10.1631 87.4155 10.5892 87.4864 11.1777C87.5525 11.7714 87.5879 12.6136 87.5879 13.7094V15.5156H87.593Z" fill="#282828"/>
</g>
</g>
</svg>
