<svg width="101" height="20" viewBox="0 0 101 20" fill="none" xmlns="http://www.w3.org/2000/svg">
<g id="Group 8">
<path id="polygon3009" d="M16.4188 0.150146H0.548828V4.01015L1.99883 9.75015L6.54883 10.0101L10.4088 6.15015L18.0488 4.51015L16.4188 0.150146Z" fill="#00C425"/>
<path id="polygon3005" d="M0.548828 4.01001V19.88H4.40883L10.8688 19.34L10.4188 13.87L0.548828 4.01001Z" fill="#3AF23A"/>
<path id="polygon3007" d="M4.40625 19.8798H20.2762V16.0198L18.5862 10.8798L14.2662 10.0098L4.40625 19.8798Z" fill="#006446"/>
<path id="path3011" d="M96.1783 7.98029L92.6883 11.1504L96.1783 14.3404V16.1805H96.0683L90.8883 11.4804V15.9505H89.3883V2.43017H90.8883V10.8804L96.0383 6.19025H96.1783V7.98029ZM28.4883 15.9505H36.1483V14.4404H30.0483V2.87018H28.4883V15.9505ZM41.4483 6.20025C39.0983 6.20025 36.9583 8.11029 36.9583 11.1904C36.9583 14.1804 38.9183 16.1605 41.7383 16.1605C42.9983 16.1605 44.1583 15.8405 45.2083 15.0804V13.4704C44.1083 14.3904 42.8883 14.7804 41.7883 14.7804C40.0983 14.7804 38.5983 13.7304 38.4583 11.7704H45.5983C45.6183 11.5804 45.6583 11.1604 45.6583 11.0004C45.6583 7.85029 43.7583 6.20025 41.4483 6.20025ZM41.4583 7.57028C42.7883 7.57028 44.1383 8.4303 44.1883 10.4603H38.4483C38.5383 8.89031 39.7483 7.57028 41.4583 7.57028ZM66.6483 6.20025C65.3783 6.20025 64.4583 6.87027 63.9083 7.86029C63.4483 6.80026 62.5983 6.20025 61.2383 6.20025C60.0483 6.20025 59.1683 6.89027 58.6883 7.81029H58.6483L58.4683 6.39025H57.2783V15.9405H58.7983V9.91033C58.7983 8.74031 59.5283 7.65028 60.8483 7.65028C62.1383 7.65028 62.7083 8.4103 62.7083 9.79033V15.9505H64.2283V9.81033C64.2283 8.70031 64.9683 7.65028 66.2683 7.65028C67.5783 7.65028 68.1383 8.4103 68.1383 9.79033V15.9505H69.6583V9.58032C69.6683 7.58028 68.7383 6.20025 66.6483 6.20025ZM75.8183 6.20025C73.5383 6.20025 71.4083 8.13029 71.4083 11.1904C71.4083 14.2104 73.5283 16.1605 75.8183 16.1605C77.2483 16.1605 78.5983 15.4905 79.3183 14.1604H79.3383L79.5183 15.9505H80.7583V6.40025H79.5183L79.3383 8.19029H79.3183C78.5983 6.88026 77.2483 6.20025 75.8183 6.20025ZM76.0983 7.62028C77.8983 7.62028 79.2683 9.07031 79.2683 11.1804C79.2683 13.2804 77.9083 14.7404 76.0983 14.7404C74.3283 14.7404 72.9283 13.3104 72.9283 11.2004C72.9283 9.05031 74.3283 7.62028 76.0983 7.62028ZM87.2383 6.29025C86.4083 6.29025 85.1483 6.68026 84.4983 7.92029H84.4783L84.3183 6.40025H83.0983V15.9505H84.6183V10.4503C84.6183 8.24029 86.4083 7.55028 87.8783 7.85029V6.34025C87.6783 6.31025 87.4883 6.29025 87.2383 6.29025ZM55.3283 6.18025H55.2083L51.2183 10.1603L47.2383 6.18025H47.1183V8.11029L50.1883 11.1804L47.1183 14.2304V16.1805H47.2383L51.1983 12.1804L55.2083 16.1805H55.3283V14.2204L52.2283 11.1504L55.3283 8.03029V6.18025ZM96.1783 2.64017V2.43017H97.8383V2.64017H97.1383V4.30021H96.8883V2.63017C96.8783 2.64017 96.1783 2.64017 96.1783 2.64017ZM98.6783 2.43017L99.3983 4.0102L100.118 2.43017H100.458V4.30021H100.218V2.73017L99.4983 4.30021H99.2883L98.5783 2.73017V4.30021H98.3383V2.42017H98.6783V2.43017Z" fill="#32323C"/>
<path id="polygon3003" d="M20.2819 16.0201V0.150146H16.4219L10.4219 6.15015L20.2819 16.0201Z" fill="#008A44"/>
</g>
</svg>
