<svg width="101" height="100" viewBox="0 0 101 100" fill="none" xmlns="http://www.w3.org/2000/svg">
<g id="Company Logo" clip-path="url(#clip0_51_1330)">
<path id="Vector" d="M98.1609 38.9604C98.9278 38.9201 99.6947 38.9201 100.462 38.9403C98.1608 43.7437 95.9408 48.5875 93.7005 53.4111H91.8236C90.7943 50.9892 89.5833 48.6278 88.5137 46.206C89.2604 46.1858 90.0072 46.1858 90.7539 46.206C91.3998 47.6995 92.1667 49.1324 92.752 50.6259C94.5482 46.7307 96.405 42.8557 98.1609 38.9604Z" fill="#FF0000"/>
<path id="Vector_2" d="M40.3785 41.019C41.8519 41.0392 43.3454 41.0392 44.8187 41.019C44.7985 42.3309 44.7985 43.6629 44.8187 44.9748C43.3454 44.9546 41.8519 44.9748 40.3584 44.9546C40.3987 43.6428 40.3584 42.3309 40.3785 41.019ZM18.0365 46.6701C21.0639 44.9546 25.4637 45.5399 27.5021 48.5067C28.7534 50.2626 29.1167 52.4827 29.0965 54.5816C25.6252 54.6018 22.1538 54.5816 18.6824 54.6018C18.8438 55.6715 19.308 56.8017 20.297 57.3668C21.7098 58.1943 23.9298 57.9521 24.6362 56.3173C26.0692 56.277 27.4819 56.277 28.9149 56.3173C28.4709 57.9521 27.2801 59.3447 25.7866 60.1116C24.172 60.9997 22.2345 61.1611 20.4383 60.8584C18.5411 60.5556 16.7852 59.486 15.7156 57.8916C14.545 56.1962 14.2422 54.0367 14.5046 52.0387C14.767 49.8388 16.0788 47.76 18.0365 46.6701ZM20.3979 49.1929C19.4089 49.6571 18.9246 50.7268 18.7026 51.7561H24.6362C24.5151 50.969 24.2326 50.1415 23.6271 49.5966C22.7794 48.7691 21.4272 48.7489 20.3979 49.1929ZM64.5773 45.9032C66.9589 45.4794 69.6028 45.9839 71.4394 47.6389C74.5677 50.4241 74.7089 55.8128 71.8027 58.7998C69.5019 61.2015 65.647 61.6455 62.7004 60.2933C60.4197 59.264 58.8657 56.943 58.6033 54.4807C58.5024 53.0478 58.563 51.5745 59.1483 50.2424C60.0363 47.9618 62.1958 46.3068 64.5773 45.9032ZM65.0819 49.1929C63.8306 49.6369 63.2453 50.9892 63.0637 52.2203C62.9224 53.7542 62.9426 55.4899 63.9315 56.7613C65.0012 58.1539 67.3625 58.1136 68.4322 56.7412C69.3202 55.6311 69.4615 54.1174 69.3606 52.745C69.3 51.5341 68.8762 50.2424 67.8671 49.4957C67.0598 48.9507 65.9901 48.87 65.0819 49.1929ZM80.4206 46.7307C81.8939 45.5803 83.9929 45.4592 85.6882 46.1454C86.8992 46.6701 87.8074 47.7398 88.2312 48.9709C88.7156 50.2424 88.5743 51.6148 88.5743 52.9469C88.5743 55.4899 88.5541 58.0328 88.5945 60.5556C87.1212 60.5758 85.6478 60.5556 84.1543 60.5758V51.857C84.1543 51.1103 83.8718 50.303 83.2461 49.8388C82.2976 49.1929 80.9251 49.314 80.1178 50.1213C79.472 50.7672 79.1895 51.6956 79.2096 52.5836V60.5758C77.7565 60.5556 76.2832 60.5758 74.83 60.5556C74.83 55.7522 74.8502 50.9488 74.83 46.1454C76.263 46.1656 77.6758 46.1252 79.1087 46.1656C79.0885 46.8316 79.0885 47.4976 79.0684 48.1636C79.5124 47.6792 79.8757 47.1343 80.4206 46.7307ZM0.53833 46.1857H5.13994C6.06833 49.2737 7.05727 52.3616 7.92512 55.4697C8.99479 52.4221 9.80209 49.2737 10.8112 46.1857C12.2845 46.1656 13.778 46.1857 15.2514 46.1656C13.556 50.969 11.9011 55.7724 10.2259 60.5758C8.69205 60.5758 7.15818 60.5556 5.62432 60.596C3.86844 55.8128 2.31439 50.9488 0.53833 46.1857ZM30.1057 46.1656H34.344C34.3238 46.9729 34.344 47.7802 34.3036 48.5875C34.6669 48.1838 34.9293 47.6792 35.3127 47.2958C36.2613 46.2463 37.8154 45.8225 39.1878 46.1857C39.1676 47.4572 39.1676 48.7287 39.1878 49.98C38.0979 49.859 36.887 49.8993 35.9586 50.5653C34.9696 51.2515 34.5256 52.523 34.5458 53.6936C34.5256 55.9944 34.5458 58.275 34.5458 60.5758C33.0725 60.5758 31.579 60.5556 30.1057 60.596C30.1258 55.7724 30.1258 50.969 30.1057 46.1656ZM40.3785 46.1857C41.872 46.1656 43.3454 46.1857 44.8389 46.1656C44.8187 50.969 44.8389 55.7724 44.8389 60.5758C43.3656 60.5556 41.872 60.5758 40.3785 60.5758V46.1857ZM46.0296 46.1656C50.046 46.1857 54.0623 46.1656 58.0584 46.1857C58.018 47.2958 58.0584 48.3856 58.0382 49.4957C57.8969 49.7782 57.6548 49.98 57.4731 50.2222C55.4145 52.5029 53.3962 54.844 51.2973 57.1044C53.6586 57.1448 56.02 57.1044 58.3813 57.1246V60.596C54.2641 60.5758 50.1469 60.5758 46.0296 60.596V57.2457C48.1892 54.8238 50.3285 52.4221 52.5082 50.0204C52.5688 49.8993 52.8311 49.7782 52.6899 49.6168C50.4698 49.6773 48.2497 49.6168 46.0296 49.6571V46.1656Z" fill="black"/>
</g>
<defs>
<clipPath id="clip0_51_1330">
<rect width="100" height="100" fill="white" transform="translate(0.5)"/>
</clipPath>
</defs>
</svg>
