<svg width="101" height="100" viewBox="0 0 101 100" fill="none" xmlns="http://www.w3.org/2000/svg">
<g id="Company Logo" clip-path="url(#clip0_51_1319)">
<path id="Vector" d="M14.2503 61.7707C12.746 62.0349 11.2152 62.1141 9.63174 62.325L4.80186 48.1789V62.9321C3.29756 63.0904 1.9252 63.3016 0.5 63.5127V36.4871H4.51172L10.0012 51.8212V36.4871H14.2503V61.7707ZM22.5639 46.3842C24.2003 46.3842 26.7075 46.305 28.2118 46.305V50.5276C26.3379 50.5276 24.1475 50.5276 22.5639 50.6068V56.8883C25.0448 56.73 27.5257 56.5186 30.0328 56.4394V60.5036L18.341 61.4275V36.4871H30.0328V40.7098H22.5639V46.3842ZM45.7361 40.7099H41.3551V60.1346C39.9299 60.1346 38.5047 60.1346 37.1325 60.1872V40.7099H32.7515V36.4871H45.7363L45.7361 40.7099ZM52.598 46.0939H58.378V50.3166H52.598V59.8971H48.4542V36.4871H60.2519V40.7098H52.598V46.0939ZM67.1138 56.202C69.5155 56.2547 71.9435 56.4397 74.2925 56.5715V60.7415C70.5185 60.5038 66.7443 60.2666 62.8911 60.1872V36.4871H67.1138V56.202ZM77.8554 61.0318C79.2014 61.1111 80.6266 61.1903 81.9989 61.3484V36.4871H77.8554V61.0318ZM100.5 36.4871L95.1423 49.3401L100.5 63.5127C98.9163 63.3016 97.3328 63.0112 95.7492 62.7473L92.7143 54.9353L89.6267 62.1141C88.0956 61.8499 86.6177 61.7707 85.0872 61.5596L90.5239 49.1816L85.6148 36.4871H90.1541L92.9253 43.5866L95.8813 36.4871H100.5Z" fill="#D81F26"/>
</g>
<defs>
<clipPath id="clip0_51_1319">
<rect width="100" height="100" fill="white" transform="translate(0.5)"/>
</clipPath>
</defs>
</svg>
