<svg width="101" height="34" viewBox="0 0 101 34" fill="none" xmlns="http://www.w3.org/2000/svg">
<g id="Group 5">
<path id="Vector" d="M12.8154 0.682861H13.7047C16.7919 0.749976 19.8289 1.99159 22.0101 4.18958C21.2047 5.01173 20.3826 5.80032 19.594 6.62247C18.3691 5.51509 16.8926 4.65938 15.2819 4.35737C12.8993 3.85401 10.3322 4.30703 8.33557 5.6661C6.15436 7.09227 4.67785 9.50839 4.35906 12.0923C4.00671 14.6426 4.72819 17.3272 6.38926 19.3071C7.98322 21.2366 10.4161 22.4447 12.9329 22.5286C15.2819 22.6628 17.7315 21.9413 19.443 20.297C20.7852 19.1393 21.406 17.3775 21.6074 15.6661C18.8221 15.6661 16.0369 15.6829 13.2517 15.6661V12.2097H24.9799C25.5839 15.9178 24.7114 20.0957 21.8926 22.7467C20.0134 24.6259 17.4128 25.7333 14.7617 25.9514C12.1946 26.2031 9.54362 25.7165 7.26174 24.4749C4.52685 23.0151 2.34564 20.5487 1.27181 17.646C0.265101 14.9782 0.248322 11.9581 1.18792 9.27349C2.04362 6.82382 3.68792 4.65938 5.80201 3.14931C7.83222 1.65602 10.2987 0.833868 12.8154 0.682861Z" fill="#3780FF"/>
<path id="Vector_2" d="M80.0974 1.55518H83.688V25.5149C82.4967 25.5149 81.2887 25.5317 80.0974 25.4981C80.1142 17.5283 80.0974 9.54175 80.0974 1.55518Z" fill="#38B137"/>
<path id="Vector_3" d="M32.9665 9.86075C35.1812 9.44129 37.5806 9.91109 39.4094 11.2366C41.0705 12.4111 42.2282 14.2567 42.5806 16.2702C43.0336 18.6024 42.4631 21.1527 40.953 22.9983C39.3255 25.0621 36.6577 26.1695 34.0571 26.0017C31.6745 25.8675 29.3591 24.6762 27.9497 22.7299C26.3557 20.5822 25.9698 17.6292 26.8423 15.1124C27.7148 12.4111 30.1812 10.3473 32.9665 9.86075ZM33.4698 13.0487C32.5638 13.2836 31.7248 13.8037 31.1208 14.542C29.4933 16.4883 29.594 19.6594 31.3893 21.4715C32.4128 22.5118 33.9564 22.9983 35.3826 22.7131C36.7081 22.4782 37.8658 21.589 38.5034 20.4145C39.6108 18.4178 39.292 15.6661 37.5973 14.1057C36.5067 13.099 34.9128 12.6795 33.4698 13.0487Z" fill="#FA3913"/>
<path id="Vector_4" d="M50.7517 9.86077C53.2852 9.37419 56.0537 10.0789 57.9497 11.8574C61.0369 14.6259 61.3725 19.8104 58.7383 22.9983C57.1443 25.0118 54.5604 26.1191 52.0101 26.0017C49.5772 25.9346 47.1779 24.7265 45.7349 22.7299C44.1074 20.5319 43.7551 17.5118 44.6779 14.9447C45.6007 12.3272 48.0168 10.3306 50.7517 9.86077ZM51.255 13.0487C50.349 13.2836 49.5101 13.8037 48.9061 14.5252C47.2953 16.4379 47.3624 19.5587 49.0906 21.3876C50.1141 22.4782 51.7081 23.0151 53.1846 22.7131C54.4933 22.4614 55.6678 21.5889 56.3054 20.4144C57.396 18.401 57.0772 15.6493 55.3658 14.0889C54.2752 13.0822 52.6812 12.6796 51.255 13.0487Z" fill="#FCBD06"/>
<path id="Vector_5" d="M65.8355 10.8337C67.765 9.62566 70.3322 9.29009 72.4127 10.3304C73.0671 10.6156 73.604 11.1022 74.1241 11.5887C74.1409 11.1357 74.1241 10.6659 74.1409 10.1961C75.2651 10.2129 76.3892 10.1961 77.5302 10.2129V25.0115C77.5134 27.2431 76.9429 29.6088 75.3322 31.2364C73.5704 33.0317 70.8691 33.5854 68.4362 33.2162C65.8355 32.8303 63.5704 30.9344 62.5637 28.535C63.5704 28.0484 64.6275 27.6625 65.6677 27.2095C66.255 28.5854 67.4463 29.7599 68.9395 30.0283C70.4328 30.2968 72.161 29.9276 73.1342 28.686C74.1744 27.4109 74.1744 25.6659 74.1241 24.1055C73.3523 24.8605 72.463 25.5317 71.3892 25.7834C69.057 26.4377 66.4899 25.6323 64.6946 24.0552C62.8825 22.478 61.8087 20.0451 61.9093 17.629C61.9597 14.8941 63.5033 12.2599 65.8355 10.8337ZM69.3087 12.9814C68.2852 13.1491 67.3288 13.7196 66.6744 14.5082C65.0973 16.3874 65.0973 19.3907 66.6912 21.2364C67.5973 22.327 69.057 22.931 70.4664 22.78C71.7919 22.6458 73.0167 21.8068 73.6711 20.6491C74.7785 18.686 74.5939 16.0183 73.1006 14.3069C72.1778 13.2498 70.7013 12.7297 69.3087 12.9814Z" fill="#3780FF"/>
<path id="Vector_6" d="M88 11.6894C90.0135 9.8102 93.1175 9.17261 95.7014 10.1625C98.1511 11.0854 99.7115 13.4176 100.5 15.8169C96.8591 17.327 93.2349 18.8203 89.594 20.3303C90.0973 21.2867 90.8692 22.1592 91.9094 22.5115C93.3692 23.0317 95.1141 22.8471 96.339 21.874C96.8256 21.5048 97.2115 21.0183 97.5806 20.5485C98.5034 21.1693 99.4262 21.7733 100.349 22.3941C99.0403 24.3572 96.8423 25.733 94.4765 25.9511C91.8591 26.2699 89.0739 25.2632 87.3792 23.2162C84.594 19.9948 84.8624 14.5921 88 11.6894ZM89.7953 14.7934C89.2249 15.6156 88.99 16.6223 89.0067 17.6122C91.4396 16.6055 93.8725 15.5988 96.3054 14.5753C95.9027 13.6357 94.9296 13.0652 93.9396 12.9142C92.3457 12.629 90.6846 13.4847 89.7953 14.7934Z" fill="#FA3913"/>
</g>
</svg>
