<svg width="100" height="26" viewBox="0 0 100 26" fill="none" xmlns="http://www.w3.org/2000/svg">
<g id="Group 6">
<path id="Vector" fill-rule="evenodd" clip-rule="evenodd" d="M31.9919 20.2841L33.2399 17.3841C34.5879 18.3921 36.3839 18.9161 38.1559 18.9161C39.4639 18.9161 40.2919 18.4121 40.2919 17.6481C40.2719 15.5121 32.4559 17.1841 32.3959 11.8281C32.3759 9.10813 34.7919 7.01213 38.2159 7.01213C40.2519 7.01213 42.2839 7.51613 43.7359 8.66413L42.5679 11.6241C41.2399 10.7761 39.5879 10.1721 38.0159 10.1721C36.9479 10.1721 36.2439 10.6761 36.2439 11.3201C36.2639 13.4161 44.1399 12.2681 44.2199 17.3841C44.2199 20.1641 41.8639 22.1201 38.4799 22.1201C35.9999 22.1161 33.7239 21.5321 31.9919 20.2841ZM79.9159 16.3361C79.2919 17.4241 78.1239 18.1681 76.7719 18.1681C74.7759 18.1681 73.1679 16.5561 73.1679 14.5641C73.1679 12.5721 74.7799 10.9601 76.7719 10.9601C78.1199 10.9601 79.2919 11.7041 79.9159 12.7921L83.3599 10.8801C82.0719 8.58413 79.5919 7.01213 76.7719 7.01213C72.5999 7.01213 69.2159 10.3961 69.2159 14.5681C69.2159 18.7401 72.5999 22.1241 76.7719 22.1241C79.6119 22.1241 82.0719 20.5721 83.3599 18.2561L79.9159 16.3361ZM45.9519 0.744141H50.2639V21.8361H45.9519V0.744141ZM85.0519 0.744141V21.8361H89.3639V15.5081L94.4799 21.8361H99.9999L93.4919 14.3201L99.5159 7.30813H94.2359L89.3599 13.1281V0.744141H85.0519Z" fill="black"/>
<path id="Vector_2" d="M63.0759 16.376C62.4519 17.404 61.1639 18.168 59.7119 18.168C57.7159 18.168 56.1079 16.556 56.1079 14.564C56.1079 12.572 57.7199 10.9601 59.7119 10.9601C61.1639 10.9601 62.4519 11.764 63.0759 12.812V16.376ZM63.0759 7.31206V9.02405C62.3719 7.83606 60.6199 7.00806 58.7839 7.00806C54.9959 7.00806 52.0159 10.3521 52.0159 14.544C52.0159 18.736 54.9959 22.12 58.7839 22.12C60.6159 22.12 62.3679 21.296 63.0759 20.104V21.816H67.3879V7.31206H63.0759Z" fill="black"/>
<g id="Group">
<path id="Vector_3" fill-rule="evenodd" clip-rule="evenodd" d="M5.34002 16.3561C5.34002 17.8281 4.15202 19.0161 2.68002 19.0161C1.20802 19.0161 0.0200195 17.8241 0.0200195 16.3561C0.0200195 14.888 1.20802 13.696 2.68002 13.696H5.34002V16.3561ZM6.66802 16.3561C6.66802 14.884 7.85602 13.696 9.32802 13.696C10.8 13.696 11.988 14.884 11.988 16.3561V23.0041C11.988 24.4761 10.8 25.6641 9.32802 25.6641C7.85602 25.6641 6.66802 24.4761 6.66802 23.0041V16.3561Z" fill="#E01E5A"/>
<path id="Vector_4" fill-rule="evenodd" clip-rule="evenodd" d="M9.328 5.68012C7.856 5.68012 6.668 4.49212 6.668 3.02011C6.668 1.54811 7.856 0.360107 9.328 0.360107C10.8 0.360107 11.988 1.54811 11.988 3.02011V5.68012H9.328ZM9.328 7.02813C10.8 7.02813 11.988 8.21613 11.988 9.68813C11.988 11.1601 10.8 12.3481 9.328 12.3481H2.66C1.188 12.3481 0 11.1561 0 9.68813C0 8.22013 1.188 7.02813 2.66 7.02813H9.328Z" fill="#36C5F0"/>
<path id="Vector_5" fill-rule="evenodd" clip-rule="evenodd" d="M19.9839 9.68813C19.9839 8.21613 21.1719 7.02813 22.6439 7.02813C24.1159 7.02813 25.3039 8.21613 25.3039 9.68813C25.3039 11.1601 24.1159 12.3481 22.6439 12.3481H19.9839V9.68813ZM18.6559 9.68813C18.6559 11.1601 17.4679 12.3481 15.9959 12.3481C14.5239 12.3481 13.3359 11.1601 13.3359 9.68813V3.02011C13.3359 1.54811 14.5239 0.360107 15.9959 0.360107C17.4679 0.360107 18.6559 1.54811 18.6559 3.02011V9.68813Z" fill="#2EB67D"/>
<path id="Vector_6" fill-rule="evenodd" clip-rule="evenodd" d="M15.9959 20.3441C17.4679 20.3441 18.6559 21.5321 18.6559 23.0041C18.6559 24.4761 17.4679 25.6641 15.9959 25.6641C14.5239 25.6641 13.3359 24.4761 13.3359 23.0041V20.3441H15.9959ZM15.9959 19.0161C14.5239 19.0161 13.3359 17.8281 13.3359 16.3561C13.3359 14.884 14.5239 13.696 15.9959 13.696H22.6639C24.1359 13.696 25.3239 14.884 25.3239 16.3561C25.3239 17.8281 24.1359 19.0161 22.6639 19.0161H15.9959Z" fill="#ECB22E"/>
</g>
</g>
</svg>
