<svg width="101" height="26" viewBox="0 0 101 26" fill="none" xmlns="http://www.w3.org/2000/svg">
<g id="Group 6">
<path id="Vector" fill-rule="evenodd" clip-rule="evenodd" d="M32.4919 20.2841L33.7399 17.3841C35.0879 18.3921 36.8839 18.9161 38.6559 18.9161C39.9639 18.9161 40.7919 18.4121 40.7919 17.6481C40.7719 15.5121 32.9559 17.1841 32.8959 11.8281C32.8759 9.10813 35.2919 7.01213 38.7159 7.01213C40.7519 7.01213 42.7839 7.51613 44.2359 8.66413L43.0679 11.6241C41.7399 10.7761 40.0879 10.1721 38.5159 10.1721C37.4479 10.1721 36.7439 10.6761 36.7439 11.3201C36.7639 13.4161 44.6399 12.2681 44.7199 17.3841C44.7199 20.1641 42.3639 22.1201 38.9799 22.1201C36.4999 22.1161 34.2239 21.5321 32.4919 20.2841ZM80.4159 16.3361C79.7919 17.4241 78.6239 18.1681 77.2719 18.1681C75.2759 18.1681 73.6679 16.5561 73.6679 14.5641C73.6679 12.5721 75.2799 10.9601 77.2719 10.9601C78.6199 10.9601 79.7919 11.7041 80.4159 12.7921L83.8599 10.8801C82.5719 8.58413 80.0919 7.01213 77.2719 7.01213C73.0999 7.01213 69.7159 10.3961 69.7159 14.5681C69.7159 18.7401 73.0999 22.1241 77.2719 22.1241C80.1119 22.1241 82.5719 20.5721 83.8599 18.2561L80.4159 16.3361ZM46.4519 0.744141H50.7639V21.8361H46.4519V0.744141ZM85.5519 0.744141V21.8361H89.8639V15.5081L94.9799 21.8361H100.5L93.9919 14.3201L100.016 7.30813H94.7359L89.8599 13.1281V0.744141H85.5519Z" fill="black"/>
<path id="Vector_2" d="M63.5759 16.376C62.9519 17.404 61.6639 18.168 60.2119 18.168C58.2159 18.168 56.6079 16.556 56.6079 14.564C56.6079 12.572 58.2199 10.9601 60.2119 10.9601C61.6639 10.9601 62.9519 11.764 63.5759 12.812V16.376ZM63.5759 7.31206V9.02405C62.8719 7.83606 61.1199 7.00806 59.2839 7.00806C55.4959 7.00806 52.5159 10.3521 52.5159 14.544C52.5159 18.736 55.4959 22.12 59.2839 22.12C61.1159 22.12 62.8679 21.296 63.5759 20.104V21.816H67.8879V7.31206H63.5759Z" fill="black"/>
<g id="Group">
<path id="Vector_3" fill-rule="evenodd" clip-rule="evenodd" d="M5.84002 16.3561C5.84002 17.8281 4.65202 19.0161 3.18002 19.0161C1.70802 19.0161 0.52002 17.8241 0.52002 16.3561C0.52002 14.888 1.70802 13.696 3.18002 13.696H5.84002V16.3561ZM7.16802 16.3561C7.16802 14.884 8.35602 13.696 9.82802 13.696C11.3 13.696 12.488 14.884 12.488 16.3561V23.0041C12.488 24.4761 11.3 25.6641 9.82802 25.6641C8.35602 25.6641 7.16802 24.4761 7.16802 23.0041V16.3561Z" fill="#E01E5A"/>
<path id="Vector_4" fill-rule="evenodd" clip-rule="evenodd" d="M9.828 5.68012C8.356 5.68012 7.168 4.49212 7.168 3.02011C7.168 1.54811 8.356 0.360107 9.828 0.360107C11.3 0.360107 12.488 1.54811 12.488 3.02011V5.68012H9.828ZM9.828 7.02813C11.3 7.02813 12.488 8.21613 12.488 9.68813C12.488 11.1601 11.3 12.3481 9.828 12.3481H3.16C1.688 12.3481 0.5 11.1561 0.5 9.68813C0.5 8.22013 1.688 7.02813 3.16 7.02813H9.828Z" fill="#36C5F0"/>
<path id="Vector_5" fill-rule="evenodd" clip-rule="evenodd" d="M20.4839 9.68813C20.4839 8.21613 21.6719 7.02813 23.1439 7.02813C24.6159 7.02813 25.8039 8.21613 25.8039 9.68813C25.8039 11.1601 24.6159 12.3481 23.1439 12.3481H20.4839V9.68813ZM19.1559 9.68813C19.1559 11.1601 17.9679 12.3481 16.4959 12.3481C15.0239 12.3481 13.8359 11.1601 13.8359 9.68813V3.02011C13.8359 1.54811 15.0239 0.360107 16.4959 0.360107C17.9679 0.360107 19.1559 1.54811 19.1559 3.02011V9.68813Z" fill="#2EB67D"/>
<path id="Vector_6" fill-rule="evenodd" clip-rule="evenodd" d="M16.4959 20.3441C17.9679 20.3441 19.1559 21.5321 19.1559 23.0041C19.1559 24.4761 17.9679 25.6641 16.4959 25.6641C15.0239 25.6641 13.8359 24.4761 13.8359 23.0041V20.3441H16.4959ZM16.4959 19.0161C15.0239 19.0161 13.8359 17.8281 13.8359 16.3561C13.8359 14.884 15.0239 13.696 16.4959 13.696H23.1639C24.6359 13.696 25.8239 14.884 25.8239 16.3561C25.8239 17.8281 24.6359 19.0161 23.1639 19.0161H16.4959Z" fill="#ECB22E"/>
</g>
</g>
</svg>
