<svg width="100" height="22" viewBox="0 0 100 22" fill="none" xmlns="http://www.w3.org/2000/svg">
<g id="Group 7">
<path id="Vector" d="M99.9998 9.98318V8.22452H97.8159V5.49048L97.7424 5.51311L95.6912 6.14073L95.6507 6.15302V8.22462H92.4131V7.07056C92.4131 6.53319 92.5332 6.12197 92.77 5.84772C93.0052 5.57676 93.3415 5.43901 93.7706 5.43901C94.079 5.43901 94.3983 5.51166 94.7196 5.65493L94.8002 5.69091V3.8388L94.7623 3.82487C94.4625 3.71711 94.0548 3.66284 93.5493 3.66284C92.9123 3.66284 92.3336 3.80146 91.8288 4.07619C91.3237 4.35131 90.9264 4.74406 90.6481 5.24341C90.3708 5.74218 90.23 6.31824 90.23 6.95574V8.22452H88.7094V9.98318H90.23V17.3921H92.4131V9.98318H95.6507V14.6914C95.6507 16.6305 96.5653 17.6131 98.3692 17.6131C98.6656 17.6131 98.9775 17.5784 99.2961 17.5104C99.6203 17.4406 99.8412 17.3708 99.9712 17.2963L99.9999 17.2793V15.5044L99.9111 15.5631C99.7926 15.642 99.6451 15.7066 99.4722 15.7546C99.2984 15.8034 99.1533 15.8279 99.0409 15.8279C98.6184 15.8279 98.3057 15.714 98.1118 15.4893C97.9156 15.2626 97.816 14.866 97.816 14.3113V9.98318H99.9998ZM83.8343 15.8282C83.0419 15.8282 82.4172 15.5654 81.977 15.0479C81.534 14.5277 81.3096 13.7862 81.3096 12.844C81.3096 11.8719 81.534 11.111 81.9772 10.5817C82.4177 10.0558 83.0364 9.78894 83.8165 9.78894C84.5734 9.78894 85.176 10.0438 85.6076 10.547C86.0414 11.0527 86.2616 11.8074 86.2616 12.7909C86.2616 13.7864 86.0546 14.5511 85.6463 15.0626C85.2409 15.5703 84.6313 15.8282 83.8343 15.8282ZM83.9313 8.00368C82.4196 8.00368 81.2189 8.44663 80.3628 9.32025C79.5073 10.194 79.0735 11.4031 79.0735 12.9143C79.0735 14.3497 79.497 15.5042 80.3322 16.3453C81.1674 17.1867 82.304 17.6129 83.7103 17.6129C85.1756 17.6129 86.3524 17.1638 87.2081 16.2781C88.0638 15.3933 88.4972 14.1957 88.4972 12.7197C88.4972 11.2619 88.0905 10.0988 87.2878 9.26328C86.4848 8.42738 85.3554 8.00368 83.9313 8.00368ZM75.5538 8.00368C74.5255 8.00368 73.6749 8.2667 73.0252 8.7853C72.3714 9.307 72.0398 9.99121 72.0398 10.8192C72.0398 11.2496 72.1114 11.6319 72.2522 11.9561C72.394 12.2814 72.6133 12.5679 72.9046 12.8083C73.1938 13.0467 73.6401 13.2965 74.2315 13.5506C74.7288 13.7552 75.0996 13.9283 75.3351 14.0647C75.5653 14.1984 75.7287 14.3327 75.821 14.4636C75.9107 14.5917 75.9561 14.767 75.9561 14.9833C75.9561 15.5992 75.4949 15.8989 74.5458 15.8989C74.1938 15.8989 73.7923 15.8254 73.3524 15.6805C72.9157 15.5377 72.5035 15.3287 72.1303 15.0608L72.0396 14.9958V17.0975L72.0729 17.113C72.3818 17.2556 72.7712 17.3758 73.2302 17.4705C73.6884 17.5652 74.1046 17.6133 74.4662 17.6133C75.5821 17.6133 76.4806 17.3491 77.1363 16.8274C77.7962 16.3021 78.1306 15.6017 78.1306 14.7451C78.1306 14.1272 77.9505 13.5972 77.5957 13.1699C77.2433 12.746 76.6316 12.3568 75.7785 12.0128C75.0989 11.74 74.6635 11.5135 74.4838 11.3397C74.3107 11.1718 74.2227 10.9343 74.2227 10.6335C74.2227 10.3669 74.3313 10.1533 74.5541 9.98038C74.7786 9.80654 75.0911 9.71813 75.4831 9.71813C75.8468 9.71813 76.219 9.77559 76.5891 9.88819C76.9589 10.0008 77.2837 10.1516 77.5549 10.3361L77.6441 10.397V8.40329L77.6098 8.38859C77.3597 8.28131 77.0298 8.18951 76.6291 8.11502C76.2303 8.04102 75.8685 8.00368 75.5538 8.00368ZM66.3488 15.8282C65.5566 15.8282 64.9317 15.5654 64.4915 15.0479C64.0485 14.5277 63.8245 13.7864 63.8245 12.844C63.8245 11.8719 64.0488 11.111 64.492 10.5817C64.9322 10.0558 65.5508 9.78894 66.3313 9.78894C67.0879 9.78894 67.6905 10.0438 68.1222 10.547C68.5561 11.0527 68.7761 11.8074 68.7761 12.7909C68.7761 13.7864 68.569 14.5511 68.1608 15.0626C67.7554 15.5703 67.1461 15.8282 66.3488 15.8282ZM66.4461 8.00368C64.934 8.00368 63.7332 8.44663 62.8776 9.32025C62.0221 10.194 61.588 11.4031 61.588 12.9143C61.588 14.3502 62.0117 15.5042 62.8469 16.3453C63.6822 17.1867 64.8187 17.6129 66.2249 17.6129C67.6901 17.6129 68.8672 17.1638 69.7229 16.2781C70.5783 15.3933 71.012 14.1957 71.012 12.7197C71.012 11.2619 70.6051 10.0988 69.8023 9.26328C68.9991 8.42738 67.8698 8.00368 66.4461 8.00368ZM58.2743 9.81216V8.22452H56.1178V17.3919H58.2743V12.7024C58.2743 11.905 58.455 11.2499 58.8118 10.7551C59.164 10.2662 59.6334 10.0185 60.2064 10.0185C60.4007 10.0185 60.6187 10.0505 60.8549 10.1139C61.0886 10.1769 61.2579 10.2452 61.3577 10.3172L61.4483 10.3829V8.20885L61.4134 8.19386C61.2126 8.10854 60.9285 8.06549 60.569 8.06549C60.0271 8.06549 59.5422 8.23962 59.1268 8.58245C58.7622 8.88378 58.4987 9.29694 58.2972 9.81216H58.2743ZM52.256 8.00368C51.2667 8.00368 50.3843 8.21582 49.6337 8.63401C48.8816 9.05316 48.3 9.65157 47.9042 10.4125C47.5102 11.1716 47.3102 12.0583 47.3102 13.0471C47.3102 13.9133 47.5041 14.7082 47.8875 15.4087C48.271 16.1104 48.8139 16.6594 49.5011 17.0402C50.1874 17.4204 50.9805 17.6132 51.8587 17.6132C52.8835 17.6132 53.7584 17.4083 54.46 17.0043L54.4883 16.988V15.0124L54.3977 15.0786C54.0799 15.3101 53.7248 15.4948 53.3427 15.6279C52.9615 15.7609 52.6141 15.8282 52.3093 15.8282C51.4632 15.8282 50.7839 15.5634 50.2909 15.0414C49.7967 14.5187 49.5462 13.7848 49.5462 12.8613C49.5462 11.9319 49.8075 11.1791 50.3224 10.6237C50.8358 10.0699 51.5163 9.78894 52.3449 9.78894C53.0537 9.78894 53.7444 10.0289 54.3979 10.5029L54.4883 10.5686V8.48697L54.4591 8.47052C54.2132 8.33287 53.8778 8.2192 53.4615 8.13301C53.0469 8.04701 52.6413 8.00368 52.256 8.00368ZM45.825 8.22462H43.6685V17.3919H45.825V8.22462ZM44.7688 4.31929C44.4139 4.31929 44.1043 4.44012 43.85 4.67954C43.5946 4.91964 43.4651 5.22194 43.4651 5.5787C43.4651 5.92985 43.5931 6.22664 43.8461 6.46035C44.0974 6.69339 44.4079 6.8115 44.7689 6.8115C45.1298 6.8115 45.4415 6.69339 45.6958 6.46074C45.9518 6.22664 46.0816 5.92995 46.0816 5.5787C46.0816 5.23441 45.9553 4.93521 45.7064 4.68921C45.4577 4.44369 45.1421 4.31929 44.7688 4.31929ZM39.3884 7.54824V17.3919H41.5891V4.59992H38.5432L34.6717 14.1014L30.9146 4.59992H27.7446V17.3918H29.8127V7.54728H29.8837L33.8512 17.3919H35.4119L39.3174 7.54824H39.3884Z" fill="#706D6E"/>
<path id="Vector_2" d="M10.1445 10.4699H0V0.325439H10.1445V10.4699Z" fill="#F1511B"/>
<path id="Vector_3" d="M21.3452 10.4699H11.2009V0.325439H21.3452V10.4699Z" fill="#80CC28"/>
<path id="Vector_4" d="M10.1442 21.6744H0V11.53H10.1442V21.6744Z" fill="#00ADEF"/>
<path id="Vector_5" d="M21.3452 21.6744H11.2009V11.53H21.3452V21.6744Z" fill="#FBBC09"/>
</g>
</svg>
